<ttFont>
    <TTGlyph name=".notdef" xMin="33" yMin="0" xMax="298" yMax="666">
      <contour>
        <pt x="33" y="0" on="1"/>
        <pt x="33" y="666" on="1"/>
        <pt x="298" y="666" on="1"/>
        <pt x="298" y="0" on="1"/>
      </contour>
      <contour>
        <pt x="66" y="33" on="1"/>
        <pt x="265" y="33" on="1"/>
        <pt x="265" y="633" on="1"/>
        <pt x="66" y="633" on="1"/>
      </contour>
    </TTGlyph>
    <TTGlyph name="A" xMin="-2" yMin="-5" xMax="697" yMax="676">
      <contour>
        <pt x="147" y="1" on="1"/>
        <pt x="27" y="-5" on="1"/>
        <pt x="-2" y="-5" on="0"/>
        <pt x="-2" y="20" on="0"/>
        <pt x="31" y="31" on="1"/>
        <pt x="91" y="49" on="0"/>
        <pt x="117" y="108" on="1"/>
        <pt x="213" y="328" on="0"/>
        <pt x="304" y="578" on="1"/>
        <pt x="317" y="611" on="0"/>
        <pt x="317" y="636" on="0"/>
        <pt x="318" y="636" on="1"/>
        <pt x="354" y="648" on="0"/>
        <pt x="366" y="663" on="0"/>
        <pt x="368" y="667" on="1"/>
        <pt x="372" y="676" on="0"/>
        <pt x="375" y="676" on="1"/>
        <pt x="380" y="676" on="0"/>
        <pt x="385" y="662" on="1"/>
        <pt x="459" y="429" on="0"/>
        <pt x="563" y="128" on="1"/>
        <pt x="582" y="73" on="0"/>
        <pt x="628" y="34" on="0"/>
        <pt x="697" y="22" on="0"/>
        <pt x="697" y="5" on="1"/>
        <pt x="697" y="-5" on="0"/>
        <pt x="668" y="-5" on="1"/>
        <pt x="529" y="1" on="1"/>
        <pt x="424" y="0" on="1"/>
        <pt x="395" y="0" on="0"/>
        <pt x="395" y="12" on="1"/>
        <pt x="395" y="26" on="0"/>
        <pt x="428" y="31" on="1"/>
        <pt x="489" y="41" on="0"/>
        <pt x="489" y="76" on="1"/>
        <pt x="489" y="106" on="0"/>
        <pt x="451" y="233" on="1"/>
        <pt x="448" y="244" on="0"/>
        <pt x="424" y="244" on="1"/>
        <pt x="233" y="244" on="1"/>
        <pt x="222" y="244" on="0"/>
        <pt x="216" y="226" on="1"/>
        <pt x="176" y="110" on="0"/>
        <pt x="176" y="66" on="0"/>
        <pt x="209" y="36" on="0"/>
        <pt x="267" y="21" on="0"/>
        <pt x="267" y="-1" on="0"/>
        <pt x="238" y="-1" on="1"/>
      </contour>
      <contour>
        <pt x="333" y="542" on="1"/>
        <pt x="243" y="302" on="1"/>
        <pt x="241" y="296" on="0"/>
        <pt x="241" y="294" on="1"/>
        <pt x="241" y="287" on="0"/>
        <pt x="262" y="287" on="1"/>
        <pt x="417" y="287" on="1"/>
        <pt x="431" y="287" on="0"/>
        <pt x="431" y="292" on="1"/>
        <pt x="431" y="294" on="0"/>
        <pt x="429" y="302" on="1"/>
        <pt x="350" y="541" on="1"/>
        <pt x="344" y="559" on="0"/>
        <pt x="339" y="559" on="0"/>
      </contour>
    </TTGlyph>
    <TTGlyph name="A.ordn" xMin="-1" yMin="277" xMax="454" yMax="686">
      <component glyphName="A.subs" x="0" y="280" flags="0x1004"/>
    </TTGlyph>
    <TTGlyph name="A.sc" xMin="32" yMin="-3" xMax="531" yMax="463">
      <component glyphName="a.sc" x="0" y="0" flags="0x1004"/>
    </TTGlyph>
    <TTGlyph name="A.sinf" xMin="-1" yMin="-147" xMax="454" yMax="262">
      <component glyphName="A.subs" x="0" y="-144" flags="0x1004"/>
    </TTGlyph>
    <TTGlyph name="A.subs" xMin="-1" yMin="-3" xMax="454" yMax="406">
      <contour>
        <pt x="344" y="1" on="1"/>
        <pt x="280" y="0" on="1"/>
        <pt x="261" y="0" on="0"/>
        <pt x="261" y="14" on="0"/>
        <pt x="301" y="23" on="0"/>
        <pt x="315" y="35" on="0"/>
        <pt x="315" y="51" on="0"/>
        <pt x="314" y="58" on="1"/>
        <pt x="311" y="75" on="0"/>
        <pt x="294" y="140" on="1"/>
        <pt x="292" y="146" on="0"/>
        <pt x="276" y="146" on="1"/>
        <pt x="151" y="146" on="1"/>
        <pt x="144" y="146" on="0"/>
        <pt x="140" y="136" on="1"/>
        <pt x="115" y="67" on="0"/>
        <pt x="115" y="40" on="0"/>
        <pt x="136" y="21" on="0"/>
        <pt x="174" y="12" on="0"/>
        <pt x="174" y="-1" on="0"/>
        <pt x="155" y="-1" on="1"/>
        <pt x="86" y="1" on="1"/>
        <pt x="18" y="-3" on="1"/>
        <pt x="-1" y="-3" on="0"/>
        <pt x="-1" y="13" on="0"/>
        <pt x="20" y="19" on="1"/>
        <pt x="60" y="30" on="0"/>
        <pt x="76" y="65" on="1"/>
        <pt x="137" y="194" on="0"/>
        <pt x="201" y="355" on="0"/>
        <pt x="203" y="362" on="1"/>
        <pt x="206" y="371" on="0"/>
        <pt x="206" y="379" on="1"/>
        <pt x="207" y="382" on="1"/>
        <pt x="229" y="387" on="0"/>
        <pt x="250" y="406" on="0"/>
        <pt x="253" y="406" on="0"/>
        <pt x="257" y="397" on="1"/>
        <pt x="372" y="77" on="1"/>
        <pt x="384" y="44" on="0"/>
        <pt x="410" y="22" on="0"/>
        <pt x="454" y="11" on="0"/>
        <pt x="454" y="3" on="1"/>
        <pt x="454" y="-3" on="0"/>
        <pt x="436" y="-3" on="1"/>
        <pt x="436" y="-3" on="0"/>
        <pt x="363" y="1" on="1"/>
      </contour>
      <contour>
        <pt x="225" y="336" on="0"/>
        <pt x="219" y="336" on="0"/>
        <pt x="213" y="318" on="0"/>
        <pt x="191" y="264" on="1"/>
        <pt x="157" y="179" on="0"/>
        <pt x="157" y="172" on="0"/>
        <pt x="170" y="172" on="1"/>
        <pt x="271" y="172" on="1"/>
        <pt x="280" y="172" on="0"/>
        <pt x="280" y="178" on="0"/>
        <pt x="279" y="181" on="1"/>
        <pt x="228" y="325" on="1"/>
      </contour>
    </TTGlyph>
    <TTGlyph name="A.sups" xMin="-1" yMin="437" xMax="454" yMax="846">
      <component glyphName="A.subs" x="0" y="440" flags="0x1004"/>
    </TTGlyph>
    <TTGlyph name="AE" xMin="-5" yMin="-5" xMax="847" yMax="653">
      <contour>
        <pt x="475" y="648" on="1"/>
        <pt x="776" y="653" on="1"/>
        <pt x="784" y="653" on="1"/>
        <pt x="801" y="653" on="0"/>
        <pt x="802" y="644" on="1"/>
        <pt x="813" y="586" on="0"/>
        <pt x="814" y="541" on="1"/>
        <pt x="814" y="532" on="0"/>
        <pt x="792" y="532" on="0"/>
        <pt x="789" y="542" on="1"/>
        <pt x="777" y="578" on="0"/>
        <pt x="766" y="591" on="1"/>
        <pt x="742" y="618" on="0"/>
        <pt x="699" y="618" on="1"/>
        <pt x="568" y="618" on="1"/>
        <pt x="557" y="618" on="0"/>
        <pt x="533" y="604" on="0"/>
        <pt x="533" y="592" on="1"/>
        <pt x="533" y="354" on="1"/>
        <pt x="533" y="345" on="0"/>
        <pt x="543" y="332" on="0"/>
        <pt x="550" y="332" on="1"/>
        <pt x="598" y="332" on="0"/>
        <pt x="678" y="336" on="0"/>
        <pt x="701" y="357" on="0"/>
        <pt x="709" y="375" on="0"/>
        <pt x="722" y="388" on="0"/>
        <pt x="729" y="388" on="0"/>
        <pt x="739" y="378" on="0"/>
        <pt x="735" y="337" on="0"/>
        <pt x="735" y="284" on="0"/>
        <pt x="738" y="240" on="1"/>
        <pt x="738" y="223" on="0"/>
        <pt x="729" y="223" on="1"/>
        <pt x="713" y="223" on="0"/>
        <pt x="706" y="246" on="1"/>
        <pt x="694" y="283" on="0"/>
        <pt x="617" y="287" on="0"/>
        <pt x="556" y="287" on="1"/>
        <pt x="533" y="287" on="0"/>
        <pt x="533" y="264" on="1"/>
        <pt x="533" y="111" on="1"/>
        <pt x="533" y="80" on="0"/>
        <pt x="566" y="35" on="0"/>
        <pt x="598" y="35" on="1"/>
        <pt x="702" y="35" on="1"/>
        <pt x="710" y="35" on="0"/>
        <pt x="770" y="47" on="0"/>
        <pt x="778" y="53" on="1"/>
        <pt x="797" y="68" on="0"/>
        <pt x="820" y="116" on="1"/>
        <pt x="826" y="127" on="0"/>
        <pt x="847" y="124" on="0"/>
        <pt x="847" y="115" on="1"/>
        <pt x="847" y="78" on="0"/>
        <pt x="830" y="12" on="1"/>
        <pt x="826" y="-5" on="0"/>
        <pt x="816" y="-5" on="1"/>
        <pt x="512" y="1" on="1"/>
        <pt x="492" y="1" on="1"/>
        <pt x="377" y="-5" on="1"/>
        <pt x="348" y="-5" on="0"/>
        <pt x="348" y="18" on="0"/>
        <pt x="419" y="31" on="0"/>
        <pt x="454" y="63" on="0"/>
        <pt x="454" y="96" on="1"/>
        <pt x="454" y="267" on="1"/>
        <pt x="454" y="276" on="0"/>
        <pt x="446" y="285" on="0"/>
        <pt x="432" y="285" on="1"/>
        <pt x="291" y="285" on="1"/>
        <pt x="273" y="285" on="0"/>
        <pt x="261" y="262" on="1"/>
        <pt x="225" y="201" on="0"/>
        <pt x="179" y="112" on="1"/>
        <pt x="170" y="96" on="0"/>
        <pt x="170" y="82" on="1"/>
        <pt x="170" y="46" on="0"/>
        <pt x="235" y="30" on="1"/>
        <pt x="268" y="21" on="0"/>
        <pt x="268" y="-1" on="0"/>
        <pt x="239" y="-1" on="1"/>
        <pt x="150" y="1" on="1"/>
        <pt x="24" y="-5" on="1"/>
        <pt x="-5" y="-5" on="0"/>
        <pt x="-5" y="18" on="0"/>
        <pt x="53" y="35" on="0"/>
        <pt x="111" y="90" on="0"/>
        <pt x="132" y="126" on="1"/>
        <pt x="405" y="594" on="1"/>
        <pt x="409" y="600" on="0"/>
        <pt x="398" y="610" on="0"/>
        <pt x="388" y="611" on="1"/>
        <pt x="300" y="626" on="1"/>
        <pt x="290" y="630" on="0"/>
        <pt x="290" y="651" on="0"/>
        <pt x="300" y="651" on="1"/>
      </contour>
      <contour>
        <pt x="438" y="581" on="1"/>
        <pt x="302" y="343" on="1"/>
        <pt x="298" y="336" on="0"/>
        <pt x="298" y="328" on="0"/>
        <pt x="314" y="328" on="1"/>
        <pt x="438" y="328" on="1"/>
        <pt x="450" y="328" on="0"/>
        <pt x="454" y="332" on="0"/>
        <pt x="454" y="343" on="1"/>
        <pt x="454" y="580" on="1"/>
        <pt x="454" y="598" on="0"/>
        <pt x="447" y="598" on="0"/>
      </contour>
    </TTGlyph>
    <TTGlyph name="AE.sc" xMin="-4" yMin="-3" xMax="631" yMax="436">
      <component glyphName="ae.sc" x="0" y="0" flags="0x1004"/>
    </TTGlyph>
    <TTGlyph name="AEacute" xMin="-5" yMin="-5" xMax="847" yMax="850">
      <component glyphName="acutecomb.cap" x="496" y="0" flags="0x1004"/>
      <component glyphName="AE" x="0" y="0" flags="0x1204"/>
    </TTGlyph>
    <TTGlyph name="Aacute" xMin="-2" yMin="-5" xMax="697" yMax="850">
      <component glyphName="acutecomb.cap" x="319" y="0" flags="0x1004"/>
      <component glyphName="A" x="0" y="0" flags="0x1204"/>
    </TTGlyph>
    <TTGlyph name="Aacute.sc" xMin="32" yMin="-3" xMax="531" yMax="679">
      <component glyphName="aacute.sc" x="0" y="0" flags="0x1004"/>
    </TTGlyph>
    <TTGlyph name="Abreve" xMin="-2" yMin="-5" xMax="697" yMax="846">
      <component glyphName="uni0306.cap" x="203" y="0" flags="0x1004"/>
      <component glyphName="A" x="0" y="0" flags="0x1204"/>
    </TTGlyph>
    <TTGlyph name="Abreve.sc" xMin="32" yMin="-3" xMax="531" yMax="638">
      <component glyphName="abreve.sc" x="0" y="0" flags="0x1004"/>
    </TTGlyph>
    <TTGlyph name="Acircumflex" xMin="-2" yMin="-5" xMax="697" yMax="833">
      <component glyphName="uni0302.cap" x="212" y="20" flags="0x1004"/>
      <component glyphName="A" x="0" y="0" flags="0x1204"/>
    </TTGlyph>
    <TTGlyph name="Acircumflex.sc" xMin="32" yMin="-3" xMax="531" yMax="678">
      <component glyphName="acircumflex.sc" x="0" y="0" flags="0x1004"/>
    </TTGlyph>
    <TTGlyph name="Adieresis" xMin="-2" yMin="-5" xMax="697" yMax="801">
      <component glyphName="uni0308.cap" x="210" y="1" flags="0x1004"/>
      <component glyphName="A" x="0" y="0" flags="0x1204"/>
    </TTGlyph>
    <TTGlyph name="Adieresis.deu" xMin="-2" yMin="-5" xMax="697" yMax="710">
      <contour>
        <pt x="496" y="710" on="0"/>
        <pt x="534" y="710" on="0"/>
        <pt x="566" y="678" on="0"/>
        <pt x="565" y="660" on="1"/>
        <pt x="566" y="642" on="0"/>
        <pt x="534" y="610" on="0"/>
        <pt x="496" y="610" on="0"/>
        <pt x="464" y="642" on="0"/>
        <pt x="465" y="660" on="1"/>
        <pt x="464" y="678" on="0"/>
      </contour>
      <contour>
        <pt x="198" y="710" on="0"/>
        <pt x="236" y="710" on="0"/>
        <pt x="268" y="678" on="0"/>
        <pt x="267" y="660" on="1"/>
        <pt x="268" y="642" on="0"/>
        <pt x="236" y="610" on="0"/>
        <pt x="198" y="610" on="0"/>
        <pt x="166" y="642" on="0"/>
        <pt x="167" y="660" on="1"/>
        <pt x="166" y="678" on="0"/>
      </contour>
      <contour>
        <pt x="147" y="1" on="1"/>
        <pt x="27" y="-5" on="1"/>
        <pt x="-2" y="-5" on="0"/>
        <pt x="-2" y="20" on="0"/>
        <pt x="31" y="31" on="1"/>
        <pt x="91" y="49" on="0"/>
        <pt x="117" y="108" on="1"/>
        <pt x="213" y="328" on="0"/>
        <pt x="304" y="578" on="1"/>
        <pt x="317" y="611" on="0"/>
        <pt x="317" y="636" on="0"/>
        <pt x="318" y="636" on="1"/>
        <pt x="354" y="648" on="0"/>
        <pt x="366" y="663" on="0"/>
        <pt x="368" y="667" on="1"/>
        <pt x="372" y="676" on="0"/>
        <pt x="375" y="676" on="1"/>
        <pt x="380" y="676" on="0"/>
        <pt x="385" y="662" on="1"/>
        <pt x="459" y="429" on="0"/>
        <pt x="563" y="128" on="1"/>
        <pt x="582" y="73" on="0"/>
        <pt x="628" y="34" on="0"/>
        <pt x="697" y="22" on="0"/>
        <pt x="697" y="5" on="1"/>
        <pt x="697" y="-5" on="0"/>
        <pt x="668" y="-5" on="1"/>
        <pt x="529" y="1" on="1"/>
        <pt x="424" y="0" on="1"/>
        <pt x="395" y="0" on="0"/>
        <pt x="395" y="12" on="1"/>
        <pt x="395" y="26" on="0"/>
        <pt x="428" y="31" on="1"/>
        <pt x="489" y="41" on="0"/>
        <pt x="489" y="76" on="1"/>
        <pt x="489" y="106" on="0"/>
        <pt x="451" y="233" on="1"/>
        <pt x="448" y="244" on="0"/>
        <pt x="424" y="244" on="1"/>
        <pt x="233" y="244" on="1"/>
        <pt x="222" y="244" on="0"/>
        <pt x="216" y="226" on="1"/>
        <pt x="176" y="110" on="0"/>
        <pt x="176" y="66" on="0"/>
        <pt x="209" y="36" on="0"/>
        <pt x="267" y="21" on="0"/>
        <pt x="267" y="-1" on="0"/>
        <pt x="238" y="-1" on="1"/>
      </contour>
      <contour>
        <pt x="333" y="542" on="1"/>
        <pt x="243" y="302" on="1"/>
        <pt x="241" y="296" on="0"/>
        <pt x="241" y="294" on="1"/>
        <pt x="241" y="287" on="0"/>
        <pt x="262" y="287" on="1"/>
        <pt x="417" y="287" on="1"/>
        <pt x="431" y="287" on="0"/>
        <pt x="431" y="292" on="1"/>
        <pt x="431" y="294" on="0"/>
        <pt x="429" y="302" on="1"/>
        <pt x="350" y="541" on="1"/>
        <pt x="344" y="559" on="0"/>
        <pt x="339" y="559" on="0"/>
      </contour>
    </TTGlyph>
    <TTGlyph name="Adieresis.sc" xMin="32" yMin="-3" xMax="531" yMax="623">
      <component glyphName="adieresis.sc" x="0" y="0" flags="0x1004"/>
    </TTGlyph>
    <TTGlyph name="Agrave" xMin="-2" yMin="-5" xMax="697" yMax="850">
      <component glyphName="gravecomb.cap" x="228" y="0" flags="0x1004"/>
      <component glyphName="A" x="0" y="0" flags="0x1204"/>
    </TTGlyph>
    <TTGlyph name="Agrave.sc" xMin="32" yMin="-3" xMax="531" yMax="679">
      <component glyphName="agrave.sc" x="0" y="0" flags="0x1004"/>
    </TTGlyph>
    <TTGlyph name="Alpha" xMin="-2" yMin="-5" xMax="697" yMax="676">
      <component glyphName="A" x="0" y="0" flags="0x1204"/>
    </TTGlyph>
    <TTGlyph name="Amacron" xMin="-2" yMin="-5" xMax="697" yMax="777">
      <component glyphName="uni0304.cap" x="208" y="0" flags="0x1004"/>
      <component glyphName="A" x="0" y="0" flags="0x1204"/>
    </TTGlyph>
    <TTGlyph name="Amacron.sc" xMin="32" yMin="-3" xMax="531" yMax="585">
      <component glyphName="amacron.sc" x="0" y="0" flags="0x1004"/>
    </TTGlyph>
    <TTGlyph name="Aogonek" xMin="-2" yMin="-287" xMax="697" yMax="676">
      <contour>
        <pt x="333" y="542" on="1"/>
        <pt x="243" y="302" on="1"/>
        <pt x="241" y="296" on="0"/>
        <pt x="241" y="294" on="1"/>
        <pt x="241" y="287" on="0"/>
        <pt x="262" y="287" on="1"/>
        <pt x="417" y="287" on="1"/>
        <pt x="431" y="287" on="0"/>
        <pt x="431" y="292" on="1"/>
        <pt x="431" y="294" on="0"/>
        <pt x="429" y="302" on="1"/>
        <pt x="350" y="541" on="1"/>
        <pt x="344" y="559" on="0"/>
        <pt x="339" y="559" on="0"/>
      </contour>
      <contour>
        <pt x="147" y="1" on="1"/>
        <pt x="27" y="-5" on="1"/>
        <pt x="-2" y="-5" on="0"/>
        <pt x="-2" y="20" on="0"/>
        <pt x="31" y="31" on="1"/>
        <pt x="91" y="49" on="0"/>
        <pt x="117" y="108" on="1"/>
        <pt x="213" y="328" on="0"/>
        <pt x="304" y="578" on="1"/>
        <pt x="317" y="611" on="0"/>
        <pt x="317" y="636" on="0"/>
        <pt x="318" y="636" on="1"/>
        <pt x="354" y="648" on="0"/>
        <pt x="366" y="663" on="0"/>
        <pt x="368" y="667" on="1"/>
        <pt x="372" y="676" on="0"/>
        <pt x="375" y="676" on="1"/>
        <pt x="380" y="676" on="0"/>
        <pt x="385" y="662" on="1"/>
        <pt x="459" y="429" on="0"/>
        <pt x="563" y="128" on="1"/>
        <pt x="582" y="73" on="0"/>
        <pt x="628" y="34" on="0"/>
        <pt x="697" y="22" on="0"/>
        <pt x="697" y="5" on="1"/>
        <pt x="697" y="-5" on="0"/>
        <pt x="668" y="-5" on="1"/>
        <pt x="662" y="-5" on="0"/>
        <pt x="567" y="0" on="1"/>
        <pt x="479" y="-75" on="0"/>
        <pt x="479" y="-155" on="1"/>
        <pt x="479" y="-181" on="0"/>
        <pt x="518" y="-216" on="0"/>
        <pt x="557" y="-216" on="0"/>
        <pt x="586" y="-205" on="0"/>
        <pt x="596" y="-198" on="1"/>
        <pt x="622" y="-179" on="0"/>
        <pt x="631" y="-173" on="0"/>
        <pt x="639" y="-176" on="0"/>
        <pt x="639" y="-182" on="1"/>
        <pt x="639" y="-214" on="0"/>
        <pt x="548" y="-287" on="0"/>
        <pt x="461" y="-287" on="0"/>
        <pt x="394" y="-221" on="0"/>
        <pt x="394" y="-174" on="1"/>
        <pt x="394" y="-89" on="0"/>
        <pt x="536" y="1" on="1"/>
        <pt x="524" y="1" on="0"/>
        <pt x="492" y="2" on="0"/>
        <pt x="428" y="0" on="0"/>
        <pt x="424" y="0" on="1"/>
        <pt x="395" y="0" on="0"/>
        <pt x="395" y="12" on="1"/>
        <pt x="395" y="26" on="0"/>
        <pt x="428" y="31" on="1"/>
        <pt x="489" y="41" on="0"/>
        <pt x="489" y="76" on="1"/>
        <pt x="489" y="106" on="0"/>
        <pt x="451" y="233" on="1"/>
        <pt x="448" y="244" on="0"/>
        <pt x="424" y="244" on="1"/>
        <pt x="233" y="244" on="1"/>
        <pt x="222" y="244" on="0"/>
        <pt x="216" y="226" on="1"/>
        <pt x="176" y="110" on="0"/>
        <pt x="176" y="66" on="0"/>
        <pt x="209" y="36" on="0"/>
        <pt x="267" y="21" on="0"/>
        <pt x="267" y="-1" on="0"/>
        <pt x="238" y="-1" on="1"/>
      </contour>
    </TTGlyph>
    <TTGlyph name="Aogonek.sc" xMin="32" yMin="-283" xMax="531" yMax="463">
      <component glyphName="aogonek.sc" x="0" y="0" flags="0x1004"/>
    </TTGlyph>
    <TTGlyph name="Aring" xMin="-2" yMin="-5" xMax="697" yMax="864">
      <component glyphName="uni030A.cap" x="269" y="0" flags="0x1004"/>
      <component glyphName="A" x="0" y="0" flags="0x1204"/>
    </TTGlyph>
    <TTGlyph name="Aring.sc" xMin="32" yMin="-3" xMax="531" yMax="677">
      <component glyphName="aring.sc" x="0" y="0" flags="0x1004"/>
    </TTGlyph>
    <TTGlyph name="Aringacute" xMin="-2" yMin="-5" xMax="697" yMax="1007">
      <component glyphName="acutecomb.flat" x="284" y="387" flags="0x1004"/>
      <component glyphName="Aring" x="0" y="0" flags="0x1204"/>
    </TTGlyph>
    <TTGlyph name="Atilde" xMin="-2" yMin="-5" xMax="697" yMax="829">
      <component glyphName="tildecomb.cap" x="220" y="7" flags="0x1004"/>
      <component glyphName="A" x="0" y="0" flags="0x1204"/>
    </TTGlyph>
    <TTGlyph name="Atilde.sc" xMin="32" yMin="-3" xMax="531" yMax="630">
      <component glyphName="atilde.sc" x="0" y="0" flags="0x1004"/>
    </TTGlyph>
    <TTGlyph name="B" xMin="19" yMin="-5" xMax="537" yMax="657">
      <contour>
        <pt x="254" y="371" on="1"/>
        <pt x="317" y="371" on="0"/>
        <pt x="365" y="400" on="1"/>
        <pt x="381" y="409" on="0"/>
        <pt x="410" y="457" on="0"/>
        <pt x="410" y="549" on="0"/>
        <pt x="350" y="627" on="0"/>
        <pt x="274" y="627" on="1"/>
        <pt x="235" y="627" on="0"/>
        <pt x="208" y="606" on="0"/>
        <pt x="208" y="582" on="1"/>
        <pt x="208" y="408" on="1"/>
        <pt x="208" y="371" on="0"/>
      </contour>
      <contour>
        <pt x="273" y="-4" on="1"/>
        <pt x="178" y="0" on="1"/>
        <pt x="178" y="0" on="0"/>
        <pt x="48" y="-5" on="1"/>
        <pt x="19" y="-5" on="0"/>
        <pt x="19" y="18" on="0"/>
        <pt x="92" y="31" on="0"/>
        <pt x="130" y="65" on="0"/>
        <pt x="130" y="99" on="1"/>
        <pt x="130" y="549" on="1"/>
        <pt x="130" y="585" on="0"/>
        <pt x="99" y="619" on="0"/>
        <pt x="30" y="625" on="0"/>
        <pt x="30" y="642" on="1"/>
        <pt x="30" y="653" on="0"/>
        <pt x="59" y="653" on="1"/>
        <pt x="163" y="652" on="1"/>
        <pt x="274" y="657" on="1"/>
        <pt x="387" y="657" on="0"/>
        <pt x="496" y="588" on="0"/>
        <pt x="496" y="508" on="1"/>
        <pt x="496" y="446" on="0"/>
        <pt x="462" y="412" on="1"/>
        <pt x="432" y="384" on="0"/>
        <pt x="395" y="369" on="1"/>
        <pt x="391" y="367" on="0"/>
        <pt x="391" y="361" on="0"/>
        <pt x="395" y="359" on="1"/>
        <pt x="498" y="328" on="0"/>
        <pt x="524" y="265" on="1"/>
        <pt x="537" y="235" on="0"/>
        <pt x="537" y="155" on="0"/>
        <pt x="518" y="97" on="0"/>
        <pt x="481" y="59" on="0"/>
        <pt x="468" y="50" on="1"/>
        <pt x="390" y="-4" on="0"/>
      </contour>
      <contour>
        <pt x="287" y="37" on="1"/>
        <pt x="347" y="37" on="0"/>
        <pt x="443" y="126" on="0"/>
        <pt x="443" y="189" on="1"/>
        <pt x="443" y="277" on="0"/>
        <pt x="369" y="318" on="1"/>
        <pt x="324" y="343" on="0"/>
        <pt x="265" y="343" on="1"/>
        <pt x="236" y="343" on="0"/>
        <pt x="208" y="320" on="0"/>
        <pt x="208" y="307" on="1"/>
        <pt x="208" y="108" on="1"/>
        <pt x="208" y="68" on="0"/>
        <pt x="246" y="37" on="0"/>
      </contour>
    </TTGlyph>
    <TTGlyph name="B.ordn" xMin="6" yMin="277" xMax="343" yMax="674">
      <component glyphName="B.subs" x="0" y="280" flags="0x1004"/>
    </TTGlyph>
    <TTGlyph name="B.sc" xMin="10" yMin="-3" xMax="383" yMax="453">
      <component glyphName="b.sc" x="0" y="0" flags="0x1004"/>
    </TTGlyph>
    <TTGlyph name="B.sinf" xMin="6" yMin="-147" xMax="343" yMax="250">
      <component glyphName="B.subs" x="0" y="-144" flags="0x1004"/>
    </TTGlyph>
    <TTGlyph name="B.subs" xMin="6" yMin="-3" xMax="343" yMax="394">
      <contour>
        <pt x="131" y="349" on="1"/>
        <pt x="128" y="280" on="1"/>
        <pt x="128" y="237" on="0"/>
        <pt x="135" y="225" on="0"/>
        <pt x="141" y="224" on="0"/>
        <pt x="148" y="223" on="1"/>
        <pt x="158" y="223" on="1"/>
        <pt x="260" y="223" on="0"/>
        <pt x="260" y="297" on="1"/>
        <pt x="260" y="329" on="0"/>
        <pt x="221" y="376" on="0"/>
        <pt x="172" y="376" on="1"/>
        <pt x="147" y="376" on="0"/>
        <pt x="132" y="364" on="0"/>
      </contour>
      <contour>
        <pt x="101" y="0" on="1"/>
        <pt x="25" y="-3" on="1"/>
        <pt x="6" y="-3" on="0"/>
        <pt x="6" y="11" on="0"/>
        <pt x="27" y="14" on="1"/>
        <pt x="78" y="22" on="0"/>
        <pt x="78" y="59" on="1"/>
        <pt x="78" y="329" on="1"/>
        <pt x="78" y="350" on="0"/>
        <pt x="58" y="369" on="0"/>
        <pt x="13" y="376" on="0"/>
        <pt x="13" y="385" on="1"/>
        <pt x="13" y="392" on="0"/>
        <pt x="32" y="392" on="1"/>
        <pt x="99" y="391" on="1"/>
        <pt x="99" y="391" on="0"/>
        <pt x="172" y="394" on="1"/>
        <pt x="245" y="394" on="0"/>
        <pt x="316" y="353" on="0"/>
        <pt x="316" y="267" on="0"/>
        <pt x="275" y="230" on="0"/>
        <pt x="250" y="221" on="1"/>
        <pt x="248" y="220" on="0"/>
        <pt x="247" y="216" on="0"/>
        <pt x="269" y="210" on="0"/>
        <pt x="294" y="199" on="0"/>
        <pt x="310" y="188" on="1"/>
        <pt x="343" y="165" on="0"/>
        <pt x="343" y="116" on="1"/>
        <pt x="343" y="86" on="0"/>
        <pt x="317" y="42" on="0"/>
        <pt x="295" y="28" on="0"/>
        <pt x="233" y="-2" on="0"/>
        <pt x="171" y="-2" on="1"/>
        <pt x="113" y="0" on="1"/>
      </contour>
      <contour>
        <pt x="281" y="113" on="1"/>
        <pt x="281" y="167" on="0"/>
        <pt x="233" y="191" on="1"/>
        <pt x="203" y="206" on="0"/>
        <pt x="146" y="206" on="0"/>
        <pt x="128" y="193" on="0"/>
        <pt x="128" y="169" on="1"/>
        <pt x="128" y="148" on="1"/>
        <pt x="128" y="46" on="0"/>
        <pt x="153" y="22" on="0"/>
        <pt x="219" y="22" on="0"/>
        <pt x="281" y="75" on="0"/>
      </contour>
    </TTGlyph>
    <TTGlyph name="B.sups" xMin="6" yMin="437" xMax="343" yMax="834">
      <component glyphName="B.subs" x="0" y="440" flags="0x1004"/>
    </TTGlyph>
    <TTGlyph name="Beta" xMin="19" yMin="-5" xMax="537" yMax="657">
      <component glyphName="B" x="0" y="0" flags="0x1204"/>
    </TTGlyph>
    <TTGlyph name="C" xMin="46" yMin="-15" xMax="620" yMax="663">
      <contour>
        <pt x="620" y="138" on="1"/>
        <pt x="611" y="63" on="0"/>
        <pt x="586" y="26" on="1"/>
        <pt x="582" y="19" on="0"/>
        <pt x="473" y="-15" on="0"/>
        <pt x="369" y="-15" on="1"/>
        <pt x="234" y="-15" on="0"/>
        <pt x="46" y="185" on="0"/>
        <pt x="46" y="466" on="0"/>
        <pt x="262" y="663" on="0"/>
        <pt x="410" y="663" on="1"/>
        <pt x="480" y="663" on="0"/>
        <pt x="552" y="639" on="0"/>
        <pt x="592" y="633" on="1"/>
        <pt x="603" y="632" on="0"/>
        <pt x="612" y="549" on="0"/>
        <pt x="614" y="486" on="0"/>
        <pt x="609" y="470" on="0"/>
        <pt x="602" y="471" on="1"/>
        <pt x="582" y="473" on="0"/>
        <pt x="576" y="508" on="1"/>
        <pt x="570" y="554" on="0"/>
        <pt x="541" y="581" on="1"/>
        <pt x="490" y="632" on="0"/>
        <pt x="287" y="632" on="0"/>
        <pt x="146" y="461" on="0"/>
        <pt x="146" y="347" on="1"/>
        <pt x="146" y="264" on="0"/>
        <pt x="206" y="114" on="0"/>
        <pt x="325" y="16" on="0"/>
        <pt x="400" y="16" on="1"/>
        <pt x="524" y="16" on="0"/>
        <pt x="586" y="137" on="1"/>
        <pt x="590" y="144" on="0"/>
        <pt x="610" y="155" on="0"/>
        <pt x="612" y="157" on="0"/>
        <pt x="613" y="157" on="1"/>
        <pt x="620" y="157" on="0"/>
      </contour>
    </TTGlyph>
    <TTGlyph name="C.ordn" xMin="30" yMin="271" xMax="402" yMax="678">
      <component glyphName="C.subs" x="0" y="280" flags="0x1004"/>
    </TTGlyph>
    <TTGlyph name="C.sc" xMin="12" yMin="-14" xMax="420" yMax="458">
      <component glyphName="c.sc" x="0" y="0" flags="0x1004"/>
    </TTGlyph>
    <TTGlyph name="C.sinf" xMin="30" yMin="-153" xMax="402" yMax="254">
      <component glyphName="C.subs" x="0" y="-144" flags="0x1004"/>
    </TTGlyph>
    <TTGlyph name="C.subs" xMin="30" yMin="-9" xMax="402" yMax="398">
      <contour>
        <pt x="266" y="398" on="1"/>
        <pt x="314" y="398" on="0"/>
        <pt x="342" y="389" on="0"/>
        <pt x="381" y="381" on="0"/>
        <pt x="386" y="380" on="1"/>
        <pt x="396" y="378" on="0"/>
        <pt x="398" y="296" on="1"/>
        <pt x="399" y="292" on="0"/>
        <pt x="395" y="282" on="0"/>
        <pt x="391" y="283" on="1"/>
        <pt x="384" y="284" on="0"/>
        <pt x="380" y="301" on="1"/>
        <pt x="377" y="327" on="0"/>
        <pt x="352" y="349" on="1"/>
        <pt x="342" y="359" on="0"/>
        <pt x="278" y="374" on="0"/>
        <pt x="251" y="374" on="1"/>
        <pt x="183" y="374" on="0"/>
        <pt x="95" y="276" on="0"/>
        <pt x="95" y="132" on="0"/>
        <pt x="189" y="15" on="0"/>
        <pt x="262" y="15" on="1"/>
        <pt x="301" y="15" on="0"/>
        <pt x="343" y="37" on="1"/>
        <pt x="373" y="54" on="0"/>
        <pt x="381" y="82" on="1"/>
        <pt x="383" y="87" on="0"/>
        <pt x="397" y="94" on="1"/>
        <pt x="400" y="95" on="0"/>
        <pt x="402" y="88" on="0"/>
        <pt x="402" y="83" on="1"/>
        <pt x="402" y="78" on="1"/>
        <pt x="395" y="42" on="0"/>
        <pt x="376" y="16" on="1"/>
        <pt x="375" y="14" on="0"/>
        <pt x="323" y="-9" on="0"/>
        <pt x="152" y="-9" on="0"/>
        <pt x="30" y="111" on="0"/>
        <pt x="30" y="280" on="0"/>
        <pt x="170" y="398" on="0"/>
      </contour>
    </TTGlyph>
    <TTGlyph name="C.sups" xMin="30" yMin="431" xMax="402" yMax="838">
      <component glyphName="C.subs" x="0" y="440" flags="0x1004"/>
    </TTGlyph>
    <TTGlyph name="Cacute" xMin="46" yMin="-15" xMax="620" yMax="850">
      <component glyphName="acutecomb.cap" x="337" y="0" flags="0x1004"/>
      <component glyphName="C" x="0" y="0" flags="0x1204"/>
    </TTGlyph>
    <TTGlyph name="Cacute.PLK" xMin="46" yMin="-15" xMax="620" yMax="843">
      <component glyphName="C" x="0" y="0" flags="0x1004"/>
      <component glyphName="acute.PLKcap" x="590" y="0" flags="0x1004"/>
    </TTGlyph>
    <TTGlyph name="Cacute.sc" xMin="12" yMin="-14" xMax="420" yMax="679">
      <component glyphName="cacute.sc" x="0" y="0" flags="0x1004"/>
    </TTGlyph>
    <TTGlyph name="Ccaron" xMin="46" yMin="-15" xMax="620" yMax="833">
      <component glyphName="uni030C.cap" x="230" y="20" flags="0x1004"/>
      <component glyphName="C" x="0" y="0" flags="0x1204"/>
    </TTGlyph>
    <TTGlyph name="Ccaron.sc" xMin="12" yMin="-14" xMax="420" yMax="687">
      <component glyphName="ccaron.sc" x="0" y="0" flags="0x1004"/>
    </TTGlyph>
    <TTGlyph name="Ccedilla" xMin="46" yMin="-275" xMax="620" yMax="663">
      <component glyphName="uni0327.cap" x="299" y="0" flags="0x1004"/>
      <component glyphName="C" x="0" y="0" flags="0x1204"/>
    </TTGlyph>
    <TTGlyph name="Ccedilla.sc" xMin="12" yMin="-287" xMax="420" yMax="458">
      <component glyphName="ccedilla.sc" x="0" y="0" flags="0x1004"/>
    </TTGlyph>
    <TTGlyph name="Ccircumflex" xMin="46" yMin="-15" xMax="620" yMax="833">
      <component glyphName="uni0302.cap" x="230" y="20" flags="0x1004"/>
      <component glyphName="C" x="0" y="0" flags="0x1204"/>
    </TTGlyph>
    <TTGlyph name="Ccircumflex.sc" xMin="12" yMin="-14" xMax="420" yMax="678">
      <component glyphName="ccircumflex.sc" x="0" y="0" flags="0x1004"/>
    </TTGlyph>
    <TTGlyph name="Cdotaccent" xMin="46" yMin="-15" xMax="620" yMax="810">
      <component glyphName="uni0307.cap" x="321" y="0" flags="0x1004"/>
      <component glyphName="C" x="0" y="0" flags="0x1204"/>
    </TTGlyph>
    <TTGlyph name="Cdotaccent.sc" xMin="12" yMin="-14" xMax="420" yMax="624">
      <component glyphName="cdotaccent.sc" x="0" y="0" flags="0x1004"/>
    </TTGlyph>
    <TTGlyph name="Chi" xMin="-5" yMin="-5" xMax="699" yMax="656">
      <component glyphName="X" x="0" y="0" flags="0x1204"/>
    </TTGlyph>
    <TTGlyph name="D" xMin="29" yMin="-7" xMax="719" yMax="659">
      <contour>
        <pt x="169" y="651" on="1"/>
        <pt x="340" y="659" on="1"/>
        <pt x="533" y="659" on="0"/>
        <pt x="719" y="483" on="0"/>
        <pt x="719" y="198" on="0"/>
        <pt x="514" y="-7" on="0"/>
        <pt x="371" y="-7" on="1"/>
        <pt x="368" y="-7" on="0"/>
        <pt x="210" y="0" on="0"/>
        <pt x="163" y="0" on="1"/>
        <pt x="58" y="-5" on="1"/>
        <pt x="29" y="-5" on="0"/>
        <pt x="29" y="18" on="0"/>
        <pt x="100" y="31" on="0"/>
        <pt x="129" y="63" on="0"/>
        <pt x="129" y="99" on="1"/>
        <pt x="129" y="549" on="1"/>
        <pt x="129" y="584" on="0"/>
        <pt x="100" y="615" on="0"/>
        <pt x="29" y="628" on="0"/>
        <pt x="29" y="642" on="1"/>
        <pt x="29" y="653" on="0"/>
        <pt x="58" y="653" on="1"/>
        <pt x="162" y="651" on="1"/>
      </contour>
      <contour>
        <pt x="209" y="121" on="1"/>
        <pt x="209" y="62" on="0"/>
        <pt x="256" y="44" on="1"/>
        <pt x="298" y="28" on="0"/>
        <pt x="359" y="28" on="1"/>
        <pt x="476" y="28" on="0"/>
        <pt x="624" y="194" on="0"/>
        <pt x="624" y="462" on="0"/>
        <pt x="455" y="628" on="0"/>
        <pt x="345" y="628" on="1"/>
        <pt x="250" y="628" on="0"/>
        <pt x="231" y="614" on="1"/>
        <pt x="209" y="599" on="0"/>
        <pt x="209" y="567" on="1"/>
      </contour>
    </TTGlyph>
    <TTGlyph name="D.ordn" xMin="19" yMin="276" xMax="471" yMax="675">
      <component glyphName="D.subs" x="0" y="280" flags="0x1004"/>
    </TTGlyph>
    <TTGlyph name="D.sc" xMin="17" yMin="-3" xMax="506" yMax="453">
      <component glyphName="d.sc" x="0" y="0" flags="0x1004"/>
    </TTGlyph>
    <TTGlyph name="D.sinf" xMin="19" yMin="-148" xMax="471" yMax="251">
      <component glyphName="D.subs" x="0" y="-144" flags="0x1004"/>
    </TTGlyph>
    <TTGlyph name="D.subs" xMin="19" yMin="-4" xMax="471" yMax="395">
      <contour>
        <pt x="241" y="-4" on="1"/>
        <pt x="108" y="0" on="1"/>
        <pt x="38" y="-3" on="1"/>
        <pt x="19" y="-3" on="0"/>
        <pt x="19" y="11" on="0"/>
        <pt x="64" y="18" on="0"/>
        <pt x="84" y="38" on="0"/>
        <pt x="84" y="59" on="1"/>
        <pt x="84" y="329" on="1"/>
        <pt x="84" y="350" on="0"/>
        <pt x="64" y="369" on="0"/>
        <pt x="19" y="376" on="0"/>
        <pt x="19" y="385" on="1"/>
        <pt x="19" y="392" on="0"/>
        <pt x="38" y="392" on="1"/>
        <pt x="105" y="391" on="1"/>
        <pt x="113" y="391" on="1"/>
        <pt x="221" y="395" on="1"/>
        <pt x="348" y="395" on="0"/>
        <pt x="471" y="293" on="0"/>
        <pt x="471" y="116" on="0"/>
        <pt x="335" y="-4" on="0"/>
      </contour>
      <contour>
        <pt x="205" y="17" on="1"/>
        <pt x="244" y="18" on="1"/>
        <pt x="318" y="18" on="0"/>
        <pt x="409" y="132" on="0"/>
        <pt x="409" y="278" on="0"/>
        <pt x="301" y="377" on="0"/>
        <pt x="224" y="377" on="1"/>
        <pt x="174" y="377" on="0"/>
        <pt x="136" y="365" on="0"/>
        <pt x="136" y="340" on="1"/>
        <pt x="136" y="73" on="1"/>
        <pt x="136" y="46" on="0"/>
        <pt x="177" y="17" on="0"/>
      </contour>
    </TTGlyph>
    <TTGlyph name="D.sups" xMin="19" yMin="436" xMax="471" yMax="835">
      <component glyphName="D.subs" x="0" y="440" flags="0x1004"/>
    </TTGlyph>
    <TTGlyph name="Dcaron" xMin="29" yMin="-7" xMax="719" yMax="833">
      <component glyphName="uni030C.cap" x="191" y="20" flags="0x1004"/>
      <component glyphName="D" x="0" y="0" flags="0x1204"/>
    </TTGlyph>
    <TTGlyph name="Dcaron.sc" xMin="17" yMin="-3" xMax="506" yMax="733">
      <component glyphName="dcaron.sc" x="0" y="0" flags="0x1004"/>
    </TTGlyph>
    <TTGlyph name="Dcroat" xMin="29" yMin="-7" xMax="704" yMax="659">
      <contour>
        <pt x="317" y="28" on="1"/>
        <pt x="376" y="30" on="1"/>
        <pt x="449" y="30" on="0"/>
        <pt x="558" y="126" on="0"/>
        <pt x="609" y="267" on="0"/>
        <pt x="609" y="346" on="1"/>
        <pt x="609" y="466" on="0"/>
        <pt x="461" y="628" on="0"/>
        <pt x="345" y="628" on="1"/>
        <pt x="251" y="628" on="0"/>
        <pt x="232" y="614" on="1"/>
        <pt x="210" y="599" on="0"/>
        <pt x="210" y="567" on="1"/>
        <pt x="210" y="353" on="1"/>
        <pt x="377" y="353" on="1"/>
        <pt x="382" y="353" on="0"/>
        <pt x="391" y="346" on="0"/>
        <pt x="391" y="342" on="1"/>
        <pt x="390" y="341" on="1"/>
        <pt x="390" y="340" on="0"/>
        <pt x="390" y="339" on="1"/>
        <pt x="378" y="317" on="0"/>
        <pt x="359" y="317" on="1"/>
        <pt x="210" y="317" on="1"/>
        <pt x="210" y="121" on="1"/>
        <pt x="210" y="93" on="0"/>
        <pt x="227" y="64" on="0"/>
        <pt x="274" y="28" on="0"/>
      </contour>
      <contour>
        <pt x="169" y="651" on="1"/>
        <pt x="340" y="659" on="1"/>
        <pt x="534" y="659" on="0"/>
        <pt x="704" y="490" on="0"/>
        <pt x="704" y="194" on="0"/>
        <pt x="513" y="-7" on="0"/>
        <pt x="371" y="-7" on="1"/>
        <pt x="368" y="-7" on="0"/>
        <pt x="210" y="0" on="0"/>
        <pt x="163" y="0" on="1"/>
        <pt x="58" y="-5" on="1"/>
        <pt x="29" y="-5" on="0"/>
        <pt x="29" y="18" on="0"/>
        <pt x="100" y="31" on="0"/>
        <pt x="129" y="63" on="0"/>
        <pt x="129" y="99" on="1"/>
        <pt x="129" y="317" on="1"/>
        <pt x="60" y="317" on="1"/>
        <pt x="54" y="317" on="0"/>
        <pt x="46" y="329" on="0"/>
        <pt x="46" y="342" on="0"/>
        <pt x="61" y="353" on="0"/>
        <pt x="70" y="353" on="1"/>
        <pt x="129" y="353" on="1"/>
        <pt x="129" y="549" on="1"/>
        <pt x="129" y="584" on="0"/>
        <pt x="100" y="615" on="0"/>
        <pt x="29" y="628" on="0"/>
        <pt x="29" y="642" on="1"/>
        <pt x="29" y="653" on="0"/>
        <pt x="58" y="653" on="1"/>
        <pt x="162" y="651" on="1"/>
      </contour>
    </TTGlyph>
    <TTGlyph name="Dcroat.sc" xMin="17" yMin="-3" xMax="506" yMax="453">
      <component glyphName="eth.sc" x="0" y="0" flags="0x1004"/>
    </TTGlyph>
    <TTGlyph name="Delta" xMin="33" yMin="0" xMax="616" yMax="670">
      <contour>
        <pt x="35" y="27" on="1"/>
        <pt x="293" y="570" on="1"/>
        <pt x="303" y="592" on="0"/>
        <pt x="304" y="605" on="1"/>
        <pt x="306" y="628" on="0"/>
        <pt x="311" y="629" on="0"/>
        <pt x="317" y="631" on="1"/>
        <pt x="328" y="634" on="1"/>
        <pt x="342" y="639" on="0"/>
        <pt x="356" y="657" on="0"/>
        <pt x="365" y="670" on="0"/>
        <pt x="367" y="670" on="1"/>
        <pt x="372" y="670" on="0"/>
        <pt x="377" y="656" on="1"/>
        <pt x="615" y="27" on="1"/>
        <pt x="616" y="25" on="0"/>
        <pt x="616" y="20" on="1"/>
        <pt x="616" y="0" on="0"/>
        <pt x="601" y="0" on="1"/>
        <pt x="48" y="0" on="1"/>
        <pt x="33" y="0" on="0"/>
        <pt x="33" y="17" on="1"/>
        <pt x="33" y="21" on="0"/>
      </contour>
      <contour>
        <pt x="486" y="120" on="1"/>
        <pt x="340" y="539" on="1"/>
        <pt x="334" y="557" on="0"/>
        <pt x="329" y="557" on="0"/>
        <pt x="321" y="540" on="1"/>
        <pt x="124" y="104" on="1"/>
        <pt x="115" y="83" on="0"/>
        <pt x="115" y="74" on="1"/>
        <pt x="115" y="55" on="0"/>
        <pt x="151" y="55" on="1"/>
        <pt x="485" y="55" on="1"/>
        <pt x="502" y="55" on="0"/>
        <pt x="502" y="67" on="1"/>
        <pt x="502" y="74" on="0"/>
      </contour>
    </TTGlyph>
    <TTGlyph name="E" xMin="23" yMin="-5" xMax="525" yMax="653">
      <contour>
        <pt x="413" y="337" on="1"/>
        <pt x="415" y="269" on="1"/>
        <pt x="415" y="252" on="0"/>
        <pt x="406" y="252" on="1"/>
        <pt x="390" y="252" on="0"/>
        <pt x="383" y="275" on="1"/>
        <pt x="368" y="320" on="0"/>
        <pt x="337" y="320" on="1"/>
        <pt x="244" y="320" on="1"/>
        <pt x="225" y="320" on="0"/>
        <pt x="210" y="310" on="0"/>
        <pt x="210" y="294" on="1"/>
        <pt x="210" y="102" on="1"/>
        <pt x="210" y="65" on="0"/>
        <pt x="241" y="35" on="0"/>
        <pt x="276" y="35" on="1"/>
        <pt x="380" y="35" on="1"/>
        <pt x="433" y="35" on="0"/>
        <pt x="475" y="68" on="0"/>
        <pt x="498" y="116" on="1"/>
        <pt x="504" y="127" on="0"/>
        <pt x="525" y="124" on="0"/>
        <pt x="525" y="115" on="1"/>
        <pt x="525" y="75" on="0"/>
        <pt x="508" y="12" on="1"/>
        <pt x="504" y="-5" on="0"/>
        <pt x="494" y="-5" on="1"/>
        <pt x="167" y="1" on="1"/>
        <pt x="52" y="-5" on="1"/>
        <pt x="23" y="-5" on="0"/>
        <pt x="23" y="18" on="0"/>
        <pt x="95" y="31" on="0"/>
        <pt x="130" y="64" on="0"/>
        <pt x="130" y="99" on="1"/>
        <pt x="130" y="549" on="1"/>
        <pt x="130" y="584" on="0"/>
        <pt x="101" y="615" on="0"/>
        <pt x="30" y="628" on="0"/>
        <pt x="30" y="642" on="1"/>
        <pt x="30" y="653" on="0"/>
        <pt x="59" y="653" on="1"/>
        <pt x="236" y="650" on="1"/>
        <pt x="458" y="653" on="1"/>
        <pt x="475" y="653" on="0"/>
        <pt x="476" y="644" on="1"/>
        <pt x="491" y="563" on="0"/>
        <pt x="491" y="526" on="0"/>
        <pt x="477" y="526" on="1"/>
        <pt x="469" y="526" on="0"/>
        <pt x="466" y="536" on="1"/>
        <pt x="451" y="583" on="0"/>
        <pt x="444" y="591" on="1"/>
        <pt x="420" y="618" on="0"/>
        <pt x="377" y="618" on="1"/>
        <pt x="246" y="618" on="1"/>
        <pt x="236" y="618" on="0"/>
        <pt x="210" y="599" on="0"/>
        <pt x="210" y="586" on="1"/>
        <pt x="210" y="374" on="1"/>
        <pt x="210" y="365" on="0"/>
        <pt x="221" y="352" on="0"/>
        <pt x="228" y="352" on="1"/>
        <pt x="324" y="352" on="1"/>
        <pt x="368" y="352" on="0"/>
        <pt x="385" y="391" on="1"/>
        <pt x="387" y="395" on="0"/>
        <pt x="400" y="408" on="0"/>
        <pt x="407" y="408" on="0"/>
        <pt x="416" y="399" on="0"/>
        <pt x="416" y="392" on="1"/>
      </contour>
    </TTGlyph>
    <TTGlyph name="E.ordn" xMin="8" yMin="277" xMax="335" yMax="672">
      <component glyphName="E.subs" x="0" y="280" flags="0x1004"/>
    </TTGlyph>
    <TTGlyph name="E.sc" xMin="11" yMin="-3" xMax="391" yMax="451">
      <component glyphName="e.sc" x="0" y="0" flags="0x1004"/>
    </TTGlyph>
    <TTGlyph name="E.sinf" xMin="8" yMin="-147" xMax="335" yMax="248">
      <component glyphName="E.subs" x="0" y="-144" flags="0x1004"/>
    </TTGlyph>
    <TTGlyph name="E.subs" xMin="8" yMin="-3" xMax="335" yMax="392">
      <contour>
        <pt x="148" y="390" on="1"/>
        <pt x="285" y="392" on="1"/>
        <pt x="294" y="392" on="1"/>
        <pt x="304" y="392" on="0"/>
        <pt x="306" y="386" on="1"/>
        <pt x="311" y="362" on="0"/>
        <pt x="313" y="325" on="1"/>
        <pt x="313" y="319" on="0"/>
        <pt x="298" y="319" on="0"/>
        <pt x="297" y="325" on="1"/>
        <pt x="288" y="349" on="0"/>
        <pt x="282" y="355" on="1"/>
        <pt x="267" y="371" on="0"/>
        <pt x="239" y="371" on="1"/>
        <pt x="153" y="371" on="1"/>
        <pt x="147" y="371" on="0"/>
        <pt x="134" y="360" on="0"/>
        <pt x="130" y="338" on="0"/>
        <pt x="130" y="224" on="1"/>
        <pt x="130" y="211" on="0"/>
        <pt x="136" y="211" on="1"/>
        <pt x="204" y="211" on="1"/>
        <pt x="234" y="211" on="0"/>
        <pt x="244" y="235" on="1"/>
        <pt x="245" y="237" on="0"/>
        <pt x="253" y="245" on="0"/>
        <pt x="258" y="245" on="0"/>
        <pt x="265" y="238" on="0"/>
        <pt x="262" y="207" on="0"/>
        <pt x="262" y="195" on="0"/>
        <pt x="264" y="161" on="1"/>
        <pt x="264" y="151" on="0"/>
        <pt x="253" y="151" on="0"/>
        <pt x="244" y="161" on="0"/>
        <pt x="243" y="165" on="1"/>
        <pt x="236" y="186" on="0"/>
        <pt x="213" y="188" on="1"/>
        <pt x="173" y="192" on="0"/>
        <pt x="149" y="192" on="0"/>
        <pt x="129" y="185" on="0"/>
        <pt x="130" y="175" on="1"/>
        <pt x="130" y="136" on="0"/>
        <pt x="132" y="68" on="1"/>
        <pt x="134" y="21" on="0"/>
        <pt x="173" y="21" on="1"/>
        <pt x="240" y="21" on="1"/>
        <pt x="245" y="21" on="0"/>
        <pt x="285" y="28" on="0"/>
        <pt x="290" y="32" on="1"/>
        <pt x="302" y="40" on="0"/>
        <pt x="317" y="70" on="1"/>
        <pt x="321" y="76" on="0"/>
        <pt x="326" y="76" on="1"/>
        <pt x="335" y="76" on="0"/>
        <pt x="335" y="69" on="1"/>
        <pt x="335" y="47" on="0"/>
        <pt x="324" y="7" on="1"/>
        <pt x="322" y="-3" on="0"/>
        <pt x="315" y="-3" on="1"/>
        <pt x="102" y="1" on="1"/>
        <pt x="27" y="-3" on="1"/>
        <pt x="8" y="-3" on="0"/>
        <pt x="8" y="11" on="0"/>
        <pt x="55" y="18" on="0"/>
        <pt x="78" y="38" on="0"/>
        <pt x="78" y="59" on="1"/>
        <pt x="78" y="329" on="1"/>
        <pt x="78" y="350" on="0"/>
        <pt x="58" y="369" on="0"/>
        <pt x="13" y="376" on="0"/>
        <pt x="13" y="385" on="1"/>
        <pt x="13" y="392" on="0"/>
        <pt x="73" y="392" on="0"/>
        <pt x="99" y="391" on="1"/>
      </contour>
    </TTGlyph>
    <TTGlyph name="E.sups" xMin="8" yMin="437" xMax="335" yMax="832">
      <component glyphName="E.subs" x="0" y="440" flags="0x1004"/>
    </TTGlyph>
    <TTGlyph name="Eacute" xMin="23" yMin="-5" xMax="525" yMax="851">
      <component glyphName="acutecomb.cap" x="243" y="1" flags="0x1004"/>
      <component glyphName="E" x="0" y="0" flags="0x1204"/>
    </TTGlyph>
    <TTGlyph name="Eacute.sc" xMin="11" yMin="-3" xMax="391" yMax="680">
      <component glyphName="eacute.sc" x="0" y="0" flags="0x1004"/>
    </TTGlyph>
    <TTGlyph name="Ebreve" xMin="23" yMin="-5" xMax="525" yMax="847">
      <component glyphName="uni0306.cap" x="132" y="1" flags="0x1004"/>
      <component glyphName="E" x="0" y="0" flags="0x1204"/>
    </TTGlyph>
    <TTGlyph name="Ebreve.sc" xMin="11" yMin="-3" xMax="391" yMax="639">
      <component glyphName="ebreve.sc" x="0" y="0" flags="0x1004"/>
    </TTGlyph>
    <TTGlyph name="Ecaron" xMin="23" yMin="-5" xMax="525" yMax="834">
      <component glyphName="uni030C.cap" x="136" y="21" flags="0x1004"/>
      <component glyphName="E" x="0" y="0" flags="0x1204"/>
    </TTGlyph>
    <TTGlyph name="Ecaron.sc" xMin="11" yMin="-3" xMax="391" yMax="688">
      <component glyphName="ecaron.sc" x="0" y="0" flags="0x1004"/>
    </TTGlyph>
    <TTGlyph name="Ecircumflex" xMin="23" yMin="-5" xMax="525" yMax="834">
      <component glyphName="uni0302.cap" x="136" y="21" flags="0x1004"/>
      <component glyphName="E" x="0" y="0" flags="0x1204"/>
    </TTGlyph>
    <TTGlyph name="Ecircumflex.sc" xMin="11" yMin="-3" xMax="391" yMax="679">
      <component glyphName="ecircumflex.sc" x="0" y="0" flags="0x1004"/>
    </TTGlyph>
    <TTGlyph name="Edieresis" xMin="23" yMin="-5" xMax="525" yMax="802">
      <component glyphName="uni0308.cap" x="134" y="2" flags="0x1004"/>
      <component glyphName="E" x="0" y="0" flags="0x1204"/>
    </TTGlyph>
    <TTGlyph name="Edieresis.sc" xMin="11" yMin="-3" xMax="391" yMax="624">
      <component glyphName="edieresis.sc" x="0" y="0" flags="0x1004"/>
    </TTGlyph>
    <TTGlyph name="Edotaccent" xMin="23" yMin="-5" xMax="525" yMax="811">
      <component glyphName="uni0307.cap" x="227" y="1" flags="0x1004"/>
      <component glyphName="E" x="0" y="0" flags="0x1204"/>
    </TTGlyph>
    <TTGlyph name="Edotaccent.sc" xMin="11" yMin="-3" xMax="391" yMax="625">
      <component glyphName="edotaccent.sc" x="0" y="0" flags="0x1004"/>
    </TTGlyph>
    <TTGlyph name="Egrave" xMin="23" yMin="-5" xMax="525" yMax="851">
      <component glyphName="gravecomb.cap" x="152" y="1" flags="0x1004"/>
      <component glyphName="E" x="0" y="0" flags="0x1204"/>
    </TTGlyph>
    <TTGlyph name="Egrave.ordn" xMin="8" yMin="277" xMax="335" yMax="821">
      <component glyphName="Egrave.subs" x="0" y="280" flags="0x1004"/>
    </TTGlyph>
    <TTGlyph name="Egrave.sc" xMin="11" yMin="-3" xMax="391" yMax="680">
      <component glyphName="egrave.sc" x="0" y="0" flags="0x1004"/>
    </TTGlyph>
    <TTGlyph name="Egrave.sinf" xMin="8" yMin="-147" xMax="554" yMax="778">
      <component glyphName="gravecomb.cap" x="381" y="-72" flags="0x1004"/>
      <component glyphName="E.sinf" x="0" y="0" flags="0x1204"/>
    </TTGlyph>
    <TTGlyph name="Egrave.subs" xMin="8" yMin="-3" xMax="335" yMax="541">
      <contour>
        <pt x="184" y="432" on="1"/>
        <pt x="112" y="516" on="0"/>
        <pt x="112" y="530" on="0"/>
        <pt x="126" y="542" on="0"/>
        <pt x="135" y="541" on="1"/>
        <pt x="160" y="541" on="0"/>
        <pt x="180" y="510" on="0"/>
        <pt x="216" y="434" on="0"/>
        <pt x="216" y="419" on="0"/>
        <pt x="194" y="419" on="0"/>
      </contour>
      <contour>
        <pt x="148" y="390" on="1"/>
        <pt x="285" y="392" on="1"/>
        <pt x="294" y="392" on="1"/>
        <pt x="304" y="392" on="0"/>
        <pt x="306" y="386" on="1"/>
        <pt x="311" y="362" on="0"/>
        <pt x="313" y="325" on="1"/>
        <pt x="313" y="319" on="0"/>
        <pt x="298" y="319" on="0"/>
        <pt x="297" y="325" on="1"/>
        <pt x="288" y="349" on="0"/>
        <pt x="282" y="355" on="1"/>
        <pt x="267" y="371" on="0"/>
        <pt x="239" y="371" on="1"/>
        <pt x="153" y="371" on="1"/>
        <pt x="147" y="371" on="0"/>
        <pt x="134" y="360" on="0"/>
        <pt x="130" y="338" on="0"/>
        <pt x="130" y="224" on="1"/>
        <pt x="130" y="211" on="0"/>
        <pt x="136" y="211" on="1"/>
        <pt x="204" y="211" on="1"/>
        <pt x="234" y="211" on="0"/>
        <pt x="244" y="235" on="1"/>
        <pt x="245" y="237" on="0"/>
        <pt x="253" y="245" on="0"/>
        <pt x="258" y="245" on="0"/>
        <pt x="265" y="238" on="0"/>
        <pt x="262" y="207" on="0"/>
        <pt x="262" y="195" on="0"/>
        <pt x="264" y="161" on="1"/>
        <pt x="264" y="151" on="0"/>
        <pt x="253" y="151" on="0"/>
        <pt x="244" y="161" on="0"/>
        <pt x="243" y="165" on="1"/>
        <pt x="236" y="186" on="0"/>
        <pt x="213" y="188" on="1"/>
        <pt x="173" y="192" on="0"/>
        <pt x="149" y="192" on="0"/>
        <pt x="129" y="185" on="0"/>
        <pt x="130" y="175" on="1"/>
        <pt x="130" y="136" on="0"/>
        <pt x="132" y="68" on="1"/>
        <pt x="134" y="21" on="0"/>
        <pt x="173" y="21" on="1"/>
        <pt x="240" y="21" on="1"/>
        <pt x="245" y="21" on="0"/>
        <pt x="285" y="28" on="0"/>
        <pt x="290" y="32" on="1"/>
        <pt x="302" y="40" on="0"/>
        <pt x="317" y="70" on="1"/>
        <pt x="321" y="76" on="0"/>
        <pt x="326" y="76" on="1"/>
        <pt x="335" y="76" on="0"/>
        <pt x="335" y="69" on="1"/>
        <pt x="335" y="47" on="0"/>
        <pt x="324" y="7" on="1"/>
        <pt x="322" y="-3" on="0"/>
        <pt x="315" y="-3" on="1"/>
        <pt x="102" y="1" on="1"/>
        <pt x="27" y="-3" on="1"/>
        <pt x="8" y="-3" on="0"/>
        <pt x="8" y="11" on="0"/>
        <pt x="55" y="18" on="0"/>
        <pt x="78" y="38" on="0"/>
        <pt x="78" y="59" on="1"/>
        <pt x="78" y="329" on="1"/>
        <pt x="78" y="350" on="0"/>
        <pt x="58" y="369" on="0"/>
        <pt x="13" y="376" on="0"/>
        <pt x="13" y="385" on="1"/>
        <pt x="13" y="392" on="0"/>
        <pt x="73" y="392" on="0"/>
        <pt x="99" y="391" on="1"/>
      </contour>
    </TTGlyph>
    <TTGlyph name="Egrave.sups" xMin="8" yMin="437" xMax="335" yMax="981">
      <component glyphName="Egrave.subs" x="0" y="440" flags="0x1004"/>
    </TTGlyph>
    <TTGlyph name="Emacron" xMin="23" yMin="-5" xMax="525" yMax="778">
      <component glyphName="uni0304.cap" x="132" y="1" flags="0x1004"/>
      <component glyphName="E" x="0" y="0" flags="0x1204"/>
    </TTGlyph>
    <TTGlyph name="Emacron.sc" xMin="11" yMin="-3" xMax="391" yMax="586">
      <component glyphName="emacron.sc" x="0" y="0" flags="0x1004"/>
    </TTGlyph>
    <TTGlyph name="Eng" xMin="17" yMin="-255" xMax="775" yMax="658">
      <contour>
        <pt x="631" y="650" on="1"/>
        <pt x="746" y="653" on="1"/>
        <pt x="775" y="653" on="0"/>
        <pt x="775" y="642" on="1"/>
        <pt x="775" y="628" on="0"/>
        <pt x="705" y="615" on="0"/>
        <pt x="679" y="593" on="0"/>
        <pt x="679" y="568" on="1"/>
        <pt x="679" y="14" on="1"/>
        <pt x="679" y="-33" on="0"/>
        <pt x="658" y="-126" on="1"/>
        <pt x="646" y="-180" on="0"/>
        <pt x="584" y="-255" on="0"/>
        <pt x="495" y="-255" on="0"/>
        <pt x="421" y="-226" on="0"/>
        <pt x="421" y="-199" on="1"/>
        <pt x="421" y="-183" on="0"/>
        <pt x="436" y="-151" on="0"/>
        <pt x="448" y="-151" on="1"/>
        <pt x="480" y="-151" on="0"/>
        <pt x="496" y="-174" on="1"/>
        <pt x="522" y="-211" on="0"/>
        <pt x="560" y="-211" on="1"/>
        <pt x="582" y="-211" on="0"/>
        <pt x="618" y="-118" on="0"/>
        <pt x="618" y="-8" on="0"/>
        <pt x="578" y="47" on="0"/>
        <pt x="219" y="484" on="1"/>
        <pt x="206" y="500" on="0"/>
        <pt x="189" y="500" on="0"/>
        <pt x="189" y="479" on="1"/>
        <pt x="184" y="231" on="0"/>
        <pt x="184" y="104" on="1"/>
        <pt x="184" y="36" on="0"/>
        <pt x="248" y="24" on="1"/>
        <pt x="281" y="18" on="0"/>
        <pt x="281" y="-5" on="0"/>
        <pt x="252" y="-5" on="1"/>
        <pt x="158" y="0" on="1"/>
        <pt x="67" y="-5" on="1"/>
        <pt x="38" y="-5" on="0"/>
        <pt x="38" y="18" on="0"/>
        <pt x="95" y="28" on="0"/>
        <pt x="126" y="87" on="0"/>
        <pt x="129" y="107" on="1"/>
        <pt x="147" y="257" on="0"/>
        <pt x="147" y="507" on="1"/>
        <pt x="147" y="556" on="0"/>
        <pt x="98" y="604" on="0"/>
        <pt x="17" y="630" on="0"/>
        <pt x="17" y="658" on="0"/>
        <pt x="40" y="658" on="1"/>
        <pt x="194" y="653" on="1"/>
        <pt x="205" y="653" on="0"/>
        <pt x="231" y="618" on="0"/>
        <pt x="580" y="179" on="0"/>
        <pt x="616" y="136" on="0"/>
        <pt x="633" y="136" on="0"/>
        <pt x="634" y="157" on="1"/>
        <pt x="636" y="221" on="0"/>
        <pt x="636" y="477" on="1"/>
        <pt x="636" y="564" on="1"/>
        <pt x="635" y="582" on="0"/>
        <pt x="596" y="616" on="0"/>
        <pt x="545" y="625" on="0"/>
        <pt x="545" y="639" on="1"/>
        <pt x="545" y="650" on="0"/>
        <pt x="574" y="650" on="1"/>
      </contour>
    </TTGlyph>
    <TTGlyph name="Eng.sc" xMin="52" yMin="-14" xMax="610" yMax="449">
      <component glyphName="eng.sc" x="0" y="0" flags="0x1004"/>
    </TTGlyph>
    <TTGlyph name="Eogonek" xMin="23" yMin="-287" xMax="525" yMax="653">
      <contour>
        <pt x="413" y="337" on="1"/>
        <pt x="415" y="269" on="1"/>
        <pt x="415" y="252" on="0"/>
        <pt x="406" y="252" on="1"/>
        <pt x="390" y="252" on="0"/>
        <pt x="383" y="275" on="1"/>
        <pt x="368" y="320" on="0"/>
        <pt x="337" y="320" on="1"/>
        <pt x="244" y="320" on="1"/>
        <pt x="225" y="320" on="0"/>
        <pt x="210" y="310" on="0"/>
        <pt x="210" y="294" on="1"/>
        <pt x="210" y="102" on="1"/>
        <pt x="210" y="65" on="0"/>
        <pt x="241" y="35" on="0"/>
        <pt x="276" y="35" on="1"/>
        <pt x="380" y="35" on="1"/>
        <pt x="433" y="35" on="0"/>
        <pt x="475" y="68" on="0"/>
        <pt x="498" y="116" on="1"/>
        <pt x="504" y="127" on="0"/>
        <pt x="525" y="124" on="0"/>
        <pt x="525" y="115" on="1"/>
        <pt x="525" y="75" on="0"/>
        <pt x="508" y="12" on="1"/>
        <pt x="504" y="-5" on="0"/>
        <pt x="494" y="-5" on="1"/>
        <pt x="435" y="-5" on="1"/>
        <pt x="352" y="-78" on="0"/>
        <pt x="352" y="-155" on="1"/>
        <pt x="352" y="-181" on="0"/>
        <pt x="391" y="-216" on="0"/>
        <pt x="430" y="-216" on="0"/>
        <pt x="459" y="-205" on="0"/>
        <pt x="468" y="-198" on="1"/>
        <pt x="495" y="-179" on="0"/>
        <pt x="504" y="-173" on="0"/>
        <pt x="512" y="-176" on="0"/>
        <pt x="512" y="-182" on="1"/>
        <pt x="512" y="-214" on="0"/>
        <pt x="421" y="-287" on="0"/>
        <pt x="334" y="-287" on="0"/>
        <pt x="267" y="-221" on="0"/>
        <pt x="267" y="-174" on="1"/>
        <pt x="267" y="-93" on="0"/>
        <pt x="402" y="-4" on="1"/>
        <pt x="187" y="1" on="0"/>
        <pt x="167" y="1" on="1"/>
        <pt x="52" y="-5" on="1"/>
        <pt x="23" y="-5" on="0"/>
        <pt x="23" y="18" on="0"/>
        <pt x="95" y="31" on="0"/>
        <pt x="130" y="64" on="0"/>
        <pt x="130" y="99" on="1"/>
        <pt x="130" y="549" on="1"/>
        <pt x="130" y="584" on="0"/>
        <pt x="101" y="615" on="0"/>
        <pt x="30" y="628" on="0"/>
        <pt x="30" y="642" on="1"/>
        <pt x="30" y="653" on="0"/>
        <pt x="59" y="653" on="1"/>
        <pt x="236" y="650" on="1"/>
        <pt x="458" y="653" on="1"/>
        <pt x="475" y="653" on="0"/>
        <pt x="476" y="644" on="1"/>
        <pt x="491" y="563" on="0"/>
        <pt x="491" y="526" on="0"/>
        <pt x="477" y="526" on="1"/>
        <pt x="469" y="526" on="0"/>
        <pt x="466" y="536" on="1"/>
        <pt x="451" y="583" on="0"/>
        <pt x="444" y="591" on="1"/>
        <pt x="420" y="618" on="0"/>
        <pt x="377" y="618" on="1"/>
        <pt x="246" y="618" on="1"/>
        <pt x="236" y="618" on="0"/>
        <pt x="210" y="599" on="0"/>
        <pt x="210" y="586" on="1"/>
        <pt x="210" y="374" on="1"/>
        <pt x="210" y="365" on="0"/>
        <pt x="221" y="352" on="0"/>
        <pt x="228" y="352" on="1"/>
        <pt x="324" y="352" on="1"/>
        <pt x="368" y="352" on="0"/>
        <pt x="385" y="391" on="1"/>
        <pt x="387" y="395" on="0"/>
        <pt x="400" y="408" on="0"/>
        <pt x="407" y="408" on="0"/>
        <pt x="416" y="399" on="0"/>
        <pt x="416" y="392" on="1"/>
      </contour>
    </TTGlyph>
    <TTGlyph name="Eogonek.sc" xMin="11" yMin="-285" xMax="391" yMax="451">
      <component glyphName="eogonek.sc" x="0" y="0" flags="0x1004"/>
    </TTGlyph>
    <TTGlyph name="Epsilon" xMin="23" yMin="-5" xMax="525" yMax="653">
      <component glyphName="E" x="0" y="0" flags="0x1204"/>
    </TTGlyph>
    <TTGlyph name="Eta" xMin="37" yMin="-5" xMax="770" yMax="653">
      <component glyphName="H" x="0" y="0" flags="0x1204"/>
    </TTGlyph>
    <TTGlyph name="Eth" xMin="29" yMin="-7" xMax="704" yMax="659">
      <component glyphName="Dcroat" x="0" y="0" flags="0x1004"/>
    </TTGlyph>
    <TTGlyph name="Eth.sc" xMin="17" yMin="-3" xMax="506" yMax="453">
      <component glyphName="eth.sc" x="0" y="0" flags="0x1004"/>
    </TTGlyph>
    <TTGlyph name="Etilde" xMin="23" yMin="-5" xMax="525" yMax="830">
      <component glyphName="tildecomb.cap" x="144" y="8" flags="0x1004"/>
      <component glyphName="E" x="0" y="0" flags="0x1204"/>
    </TTGlyph>
    <TTGlyph name="Euro" xMin="-27" yMin="-15" xMax="620" yMax="663">
      <contour>
        <pt x="51" y="288" on="1"/>
        <pt x="50" y="310" on="1"/>
        <pt x="50" y="332" on="0"/>
        <pt x="53" y="355" on="1"/>
        <pt x="19" y="354" on="1"/>
        <pt x="14" y="354" on="0"/>
        <pt x="5" y="362" on="0"/>
        <pt x="5" y="374" on="0"/>
        <pt x="19" y="392" on="0"/>
        <pt x="29" y="392" on="1"/>
        <pt x="60" y="393" on="1"/>
        <pt x="89" y="511" on="0"/>
        <pt x="285" y="663" on="0"/>
        <pt x="410" y="663" on="1"/>
        <pt x="480" y="663" on="0"/>
        <pt x="516" y="651" on="1"/>
        <pt x="526" y="648" on="0"/>
        <pt x="585" y="635" on="0"/>
        <pt x="603" y="630" on="0"/>
        <pt x="612" y="549" on="0"/>
        <pt x="614" y="486" on="0"/>
        <pt x="609" y="470" on="0"/>
        <pt x="594" y="472" on="0"/>
        <pt x="588" y="484" on="0"/>
        <pt x="585" y="502" on="1"/>
        <pt x="580" y="546" on="0"/>
        <pt x="541" y="581" on="1"/>
        <pt x="528" y="594" on="0"/>
        <pt x="446" y="624" on="0"/>
        <pt x="386" y="624" on="1"/>
        <pt x="295" y="624" on="0"/>
        <pt x="169" y="492" on="0"/>
        <pt x="152" y="395" on="1"/>
        <pt x="504" y="405" on="1"/>
        <pt x="510" y="405" on="0"/>
        <pt x="519" y="396" on="0"/>
        <pt x="517" y="391" on="1"/>
        <pt x="506" y="361" on="0"/>
        <pt x="486" y="361" on="1"/>
        <pt x="147" y="356" on="1"/>
        <pt x="146" y="334" on="1"/>
        <pt x="146" y="312" on="0"/>
        <pt x="149" y="291" on="1"/>
        <pt x="472" y="300" on="1"/>
        <pt x="478" y="300" on="0"/>
        <pt x="487" y="291" on="0"/>
        <pt x="485" y="286" on="1"/>
        <pt x="474" y="256" on="0"/>
        <pt x="454" y="256" on="1"/>
        <pt x="156" y="252" on="1"/>
        <pt x="178" y="154" on="0"/>
        <pt x="311" y="25" on="0"/>
        <pt x="403" y="25" on="1"/>
        <pt x="461" y="25" on="0"/>
        <pt x="527" y="62" on="1"/>
        <pt x="573" y="89" on="0"/>
        <pt x="586" y="137" on="1"/>
        <pt x="590" y="147" on="0"/>
        <pt x="610" y="155" on="0"/>
        <pt x="612" y="157" on="0"/>
        <pt x="613" y="157" on="1"/>
        <pt x="620" y="157" on="0"/>
        <pt x="620" y="138" on="1"/>
        <pt x="617" y="113" on="0"/>
        <pt x="589" y="44" on="0"/>
        <pt x="576" y="24" on="0"/>
        <pt x="569" y="19" on="0"/>
        <pt x="565" y="18" on="1"/>
        <pt x="553" y="13" on="0"/>
        <pt x="537" y="5" on="1"/>
        <pt x="494" y="-15" on="0"/>
        <pt x="252" y="-15" on="0"/>
        <pt x="76" y="136" on="0"/>
        <pt x="56" y="250" on="1"/>
        <pt x="-13" y="249" on="1"/>
        <pt x="-18" y="249" on="0"/>
        <pt x="-27" y="256" on="0"/>
        <pt x="-27" y="269" on="0"/>
        <pt x="-13" y="287" on="0"/>
        <pt x="-3" y="287" on="1"/>
      </contour>
    </TTGlyph>
    <TTGlyph name="Euro.tablining" xMin="4" yMin="-15" xMax="463" yMax="630">
      <contour>
        <pt x="36" y="354" on="1"/>
        <pt x="31" y="354" on="0"/>
        <pt x="22" y="362" on="0"/>
        <pt x="22" y="374" on="0"/>
        <pt x="36" y="390" on="0"/>
        <pt x="46" y="390" on="1"/>
        <pt x="68" y="390" on="1"/>
        <pt x="89" y="494" on="0"/>
        <pt x="226" y="630" on="0"/>
        <pt x="329" y="630" on="1"/>
        <pt x="358" y="630" on="0"/>
        <pt x="402" y="618" on="1"/>
        <pt x="446" y="606" on="1"/>
        <pt x="452" y="606" on="0"/>
        <pt x="463" y="561" on="0"/>
        <pt x="463" y="501" on="1"/>
        <pt x="463" y="478" on="0"/>
        <pt x="437" y="478" on="0"/>
        <pt x="429" y="500" on="1"/>
        <pt x="411" y="551" on="0"/>
        <pt x="361" y="598" on="0"/>
        <pt x="317" y="598" on="1"/>
        <pt x="244" y="598" on="0"/>
        <pt x="161" y="480" on="0"/>
        <pt x="149" y="391" on="1"/>
        <pt x="353" y="393" on="1"/>
        <pt x="359" y="393" on="0"/>
        <pt x="368" y="384" on="0"/>
        <pt x="366" y="379" on="1"/>
        <pt x="356" y="351" on="0"/>
        <pt x="335" y="351" on="1"/>
        <pt x="146" y="353" on="1"/>
        <pt x="145" y="344" on="0"/>
        <pt x="145" y="295" on="0"/>
        <pt x="146" y="280" on="1"/>
        <pt x="335" y="283" on="1"/>
        <pt x="341" y="283" on="0"/>
        <pt x="350" y="274" on="0"/>
        <pt x="348" y="269" on="1"/>
        <pt x="338" y="241" on="0"/>
        <pt x="317" y="241" on="1"/>
        <pt x="149" y="243" on="1"/>
        <pt x="156" y="181" on="0"/>
        <pt x="188" y="87" on="0"/>
        <pt x="260" y="20" on="0"/>
        <pt x="351" y="20" on="0"/>
        <pt x="412" y="71" on="0"/>
        <pt x="428" y="106" on="1"/>
        <pt x="432" y="116" on="0"/>
        <pt x="447" y="135" on="0"/>
        <pt x="452" y="135" on="1"/>
        <pt x="463" y="135" on="0"/>
        <pt x="463" y="83" on="0"/>
        <pt x="448" y="34" on="1"/>
        <pt x="440" y="9" on="0"/>
        <pt x="366" y="-6" on="1"/>
        <pt x="326" y="-15" on="0"/>
        <pt x="288" y="-15" on="1"/>
        <pt x="194" y="-15" on="0"/>
        <pt x="79" y="135" on="0"/>
        <pt x="64" y="244" on="1"/>
        <pt x="18" y="244" on="1"/>
        <pt x="13" y="244" on="0"/>
        <pt x="4" y="252" on="0"/>
        <pt x="4" y="263" on="0"/>
        <pt x="18" y="278" on="0"/>
        <pt x="28" y="278" on="1"/>
        <pt x="61" y="279" on="1"/>
        <pt x="60" y="290" on="0"/>
        <pt x="60" y="340" on="0"/>
        <pt x="62" y="354" on="1"/>
      </contour>
    </TTGlyph>
    <TTGlyph name="F" xMin="30" yMin="-5" xMax="485" yMax="653">
      <contour>
        <pt x="237" y="650" on="1"/>
        <pt x="408" y="652" on="1"/>
        <pt x="447" y="652" on="1"/>
        <pt x="462" y="653" on="1"/>
        <pt x="479" y="653" on="0"/>
        <pt x="480" y="644" on="1"/>
        <pt x="485" y="615" on="0"/>
        <pt x="485" y="544" on="1"/>
        <pt x="485" y="523" on="0"/>
        <pt x="476" y="523" on="1"/>
        <pt x="464" y="523" on="0"/>
        <pt x="461" y="535" on="1"/>
        <pt x="449" y="571" on="0"/>
        <pt x="438" y="584" on="1"/>
        <pt x="414" y="611" on="0"/>
        <pt x="371" y="611" on="1"/>
        <pt x="244" y="611" on="1"/>
        <pt x="229" y="611" on="0"/>
        <pt x="214" y="595" on="0"/>
        <pt x="211" y="577" on="0"/>
        <pt x="209" y="536" on="0"/>
        <pt x="209" y="398" on="0"/>
        <pt x="210" y="352" on="0"/>
        <pt x="220" y="352" on="1"/>
        <pt x="336" y="355" on="1"/>
        <pt x="380" y="355" on="0"/>
        <pt x="397" y="394" on="1"/>
        <pt x="399" y="398" on="0"/>
        <pt x="412" y="411" on="0"/>
        <pt x="419" y="411" on="0"/>
        <pt x="429" y="401" on="0"/>
        <pt x="425" y="360" on="0"/>
        <pt x="425" y="316" on="0"/>
        <pt x="428" y="272" on="1"/>
        <pt x="428" y="255" on="0"/>
        <pt x="419" y="255" on="1"/>
        <pt x="403" y="255" on="0"/>
        <pt x="396" y="278" on="1"/>
        <pt x="383" y="317" on="0"/>
        <pt x="349" y="317" on="1"/>
        <pt x="349" y="317" on="0"/>
        <pt x="299" y="318" on="1"/>
        <pt x="276" y="318" on="0"/>
        <pt x="234" y="316" on="1"/>
        <pt x="210" y="314" on="0"/>
        <pt x="210" y="291" on="1"/>
        <pt x="210" y="167" on="0"/>
        <pt x="213" y="101" on="1"/>
        <pt x="215" y="67" on="0"/>
        <pt x="243" y="30" on="0"/>
        <pt x="312" y="18" on="0"/>
        <pt x="312" y="-5" on="0"/>
        <pt x="254" y="-5" on="0"/>
        <pt x="202" y="2" on="0"/>
        <pt x="185" y="2" on="1"/>
        <pt x="59" y="-5" on="1"/>
        <pt x="30" y="-5" on="0"/>
        <pt x="30" y="18" on="0"/>
        <pt x="101" y="31" on="0"/>
        <pt x="130" y="64" on="0"/>
        <pt x="130" y="100" on="1"/>
        <pt x="130" y="522" on="1"/>
        <pt x="130" y="570" on="0"/>
        <pt x="105" y="616" on="0"/>
        <pt x="36" y="628" on="0"/>
        <pt x="36" y="642" on="1"/>
        <pt x="36" y="653" on="0"/>
        <pt x="65" y="653" on="1"/>
      </contour>
    </TTGlyph>
    <TTGlyph name="F.ordn" xMin="14" yMin="277" xMax="309" yMax="672">
      <component glyphName="F.subs" x="0" y="280" flags="0x1004"/>
    </TTGlyph>
    <TTGlyph name="F.sc" xMin="24" yMin="-4" xMax="354" yMax="452">
      <component glyphName="f.sc" x="0" y="0" flags="0x1004"/>
    </TTGlyph>
    <TTGlyph name="F.sinf" xMin="14" yMin="-147" xMax="309" yMax="248">
      <component glyphName="F.subs" x="0" y="-144" flags="0x1004"/>
    </TTGlyph>
    <TTGlyph name="F.subs" xMin="14" yMin="-3" xMax="309" yMax="392">
      <contour>
        <pt x="150" y="390" on="1"/>
        <pt x="285" y="392" on="1"/>
        <pt x="294" y="392" on="1"/>
        <pt x="304" y="392" on="0"/>
        <pt x="306" y="386" on="1"/>
        <pt x="309" y="368" on="0"/>
        <pt x="309" y="355" on="1"/>
        <pt x="309" y="326" on="1"/>
        <pt x="309" y="314" on="0"/>
        <pt x="304" y="314" on="1"/>
        <pt x="296" y="314" on="0"/>
        <pt x="294" y="321" on="1"/>
        <pt x="285" y="344" on="0"/>
        <pt x="279" y="350" on="1"/>
        <pt x="263" y="367" on="0"/>
        <pt x="235" y="367" on="1"/>
        <pt x="153" y="367" on="1"/>
        <pt x="144" y="367" on="0"/>
        <pt x="139" y="362" on="1"/>
        <pt x="133" y="356" on="0"/>
        <pt x="130" y="322" on="0"/>
        <pt x="130" y="238" on="0"/>
        <pt x="131" y="211" on="0"/>
        <pt x="137" y="211" on="1"/>
        <pt x="213" y="213" on="1"/>
        <pt x="242" y="213" on="0"/>
        <pt x="252" y="236" on="1"/>
        <pt x="253" y="238" on="0"/>
        <pt x="262" y="247" on="0"/>
        <pt x="264" y="247" on="1"/>
        <pt x="272" y="247" on="0"/>
        <pt x="272" y="230" on="1"/>
        <pt x="270" y="203" on="1"/>
        <pt x="270" y="197" on="0"/>
        <pt x="272" y="163" on="1"/>
        <pt x="272" y="153" on="0"/>
        <pt x="266" y="153" on="1"/>
        <pt x="256" y="153" on="0"/>
        <pt x="252" y="167" on="1"/>
        <pt x="245" y="190" on="0"/>
        <pt x="221" y="190" on="1"/>
        <pt x="182" y="191" on="1"/>
        <pt x="146" y="190" on="1"/>
        <pt x="131" y="190" on="0"/>
        <pt x="131" y="175" on="1"/>
        <pt x="131" y="101" on="0"/>
        <pt x="135" y="20" on="0"/>
        <pt x="176" y="14" on="1"/>
        <pt x="197" y="11" on="0"/>
        <pt x="197" y="-3" on="0"/>
        <pt x="178" y="-3" on="1"/>
        <pt x="114" y="1" on="1"/>
        <pt x="32" y="-3" on="1"/>
        <pt x="14" y="-3" on="0"/>
        <pt x="14" y="11" on="0"/>
        <pt x="59" y="18" on="0"/>
        <pt x="79" y="38" on="0"/>
        <pt x="79" y="60" on="1"/>
        <pt x="79" y="313" on="1"/>
        <pt x="79" y="341" on="0"/>
        <pt x="62" y="369" on="0"/>
        <pt x="18" y="376" on="0"/>
        <pt x="18" y="385" on="1"/>
        <pt x="18" y="392" on="0"/>
        <pt x="75" y="392" on="0"/>
        <pt x="101" y="391" on="1"/>
      </contour>
    </TTGlyph>
    <TTGlyph name="F.sups" xMin="14" yMin="437" xMax="309" yMax="832">
      <component glyphName="F.subs" x="0" y="440" flags="0x1004"/>
    </TTGlyph>
    <TTGlyph name="G" xMin="45" yMin="-14" xMax="693" yMax="663">
      <contour>
        <pt x="583" y="286" on="1"/>
        <pt x="672" y="290" on="1"/>
        <pt x="693" y="290" on="0"/>
        <pt x="693" y="274" on="1"/>
        <pt x="693" y="268" on="0"/>
        <pt x="677" y="257" on="0"/>
        <pt x="664" y="254" on="1"/>
        <pt x="636" y="246" on="0"/>
        <pt x="625" y="171" on="0"/>
        <pt x="625" y="132" on="1"/>
        <pt x="625" y="105" on="1"/>
        <pt x="625" y="94" on="0"/>
        <pt x="644" y="75" on="0"/>
        <pt x="644" y="72" on="1"/>
        <pt x="644" y="55" on="0"/>
        <pt x="630" y="53" on="1"/>
        <pt x="626" y="52" on="0"/>
        <pt x="556" y="18" on="0"/>
        <pt x="448" y="-14" on="0"/>
        <pt x="392" y="-14" on="1"/>
        <pt x="251" y="-14" on="0"/>
        <pt x="45" y="174" on="0"/>
        <pt x="45" y="458" on="0"/>
        <pt x="262" y="663" on="0"/>
        <pt x="413" y="663" on="1"/>
        <pt x="455" y="663" on="0"/>
        <pt x="620" y="634" on="0"/>
        <pt x="621" y="624" on="1"/>
        <pt x="632" y="547" on="0"/>
        <pt x="632" y="526" on="1"/>
        <pt x="632" y="492" on="0"/>
        <pt x="603" y="492" on="0"/>
        <pt x="583" y="549" on="0"/>
        <pt x="549" y="590" on="0"/>
        <pt x="466" y="625" on="0"/>
        <pt x="404" y="625" on="1"/>
        <pt x="291" y="625" on="0"/>
        <pt x="144" y="446" on="0"/>
        <pt x="144" y="188" on="0"/>
        <pt x="300" y="23" on="0"/>
        <pt x="406" y="23" on="1"/>
        <pt x="491" y="23" on="0"/>
        <pt x="558" y="90" on="0"/>
        <pt x="558" y="137" on="1"/>
        <pt x="560" y="195" on="1"/>
        <pt x="560" y="219" on="0"/>
        <pt x="555" y="225" on="1"/>
        <pt x="544" y="240" on="0"/>
        <pt x="478" y="256" on="0"/>
        <pt x="452" y="256" on="0"/>
        <pt x="437" y="266" on="0"/>
        <pt x="437" y="280" on="0"/>
        <pt x="452" y="290" on="0"/>
        <pt x="457" y="290" on="1"/>
      </contour>
    </TTGlyph>
    <TTGlyph name="G.ordn" xMin="29" yMin="272" xMax="450" yMax="678">
      <component glyphName="G.subs" x="0" y="280" flags="0x1004"/>
    </TTGlyph>
    <TTGlyph name="G.sc" xMin="20" yMin="-12" xMax="492" yMax="454">
      <component glyphName="g.sc" x="0" y="0" flags="0x1004"/>
    </TTGlyph>
    <TTGlyph name="G.sinf" xMin="29" yMin="-152" xMax="450" yMax="254">
      <component glyphName="G.subs" x="0" y="-144" flags="0x1004"/>
    </TTGlyph>
    <TTGlyph name="G.subs" xMin="29" yMin="-8" xMax="450" yMax="398">
      <contour>
        <pt x="379" y="172" on="1"/>
        <pt x="437" y="174" on="1"/>
        <pt x="450" y="174" on="0"/>
        <pt x="450" y="164" on="1"/>
        <pt x="450" y="158" on="0"/>
        <pt x="437" y="154" on="1"/>
        <pt x="415" y="148" on="0"/>
        <pt x="406" y="101" on="0"/>
        <pt x="406" y="63" on="1"/>
        <pt x="406" y="54" on="0"/>
        <pt x="412" y="51" on="1"/>
        <pt x="419" y="46" on="0"/>
        <pt x="419" y="43" on="1"/>
        <pt x="419" y="36" on="0"/>
        <pt x="410" y="32" on="1"/>
        <pt x="332" y="-8" on="0"/>
        <pt x="259" y="-8" on="1"/>
        <pt x="164" y="-8" on="0"/>
        <pt x="29" y="113" on="0"/>
        <pt x="29" y="285" on="0"/>
        <pt x="172" y="398" on="0"/>
        <pt x="268" y="398" on="1"/>
        <pt x="295" y="398" on="0"/>
        <pt x="403" y="380" on="0"/>
        <pt x="404" y="374" on="1"/>
        <pt x="411" y="330" on="0"/>
        <pt x="411" y="295" on="0"/>
        <pt x="401" y="295" on="1"/>
        <pt x="393" y="295" on="0"/>
        <pt x="379" y="328" on="0"/>
        <pt x="357" y="354" on="0"/>
        <pt x="304" y="375" on="0"/>
        <pt x="263" y="375" on="1"/>
        <pt x="188" y="375" on="0"/>
        <pt x="89" y="265" on="0"/>
        <pt x="89" y="119" on="0"/>
        <pt x="187" y="14" on="0"/>
        <pt x="261" y="14" on="1"/>
        <pt x="304" y="14" on="0"/>
        <pt x="363" y="51" on="0"/>
        <pt x="363" y="82" on="1"/>
        <pt x="364" y="117" on="1"/>
        <pt x="364" y="132" on="0"/>
        <pt x="354" y="144" on="0"/>
        <pt x="311" y="154" on="0"/>
        <pt x="294" y="154" on="0"/>
        <pt x="284" y="160" on="0"/>
        <pt x="284" y="168" on="0"/>
        <pt x="294" y="174" on="0"/>
        <pt x="297" y="174" on="1"/>
      </contour>
    </TTGlyph>
    <TTGlyph name="G.sups" xMin="29" yMin="432" xMax="450" yMax="838">
      <component glyphName="G.subs" x="0" y="440" flags="0x1004"/>
    </TTGlyph>
    <TTGlyph name="Gamma" xMin="19" yMin="-5" xMax="517" yMax="653">
      <contour>
        <pt x="511" y="644" on="1"/>
        <pt x="517" y="533" on="1"/>
        <pt x="517" y="528" on="0"/>
        <pt x="510" y="519" on="0"/>
        <pt x="506" y="519" on="1"/>
        <pt x="497" y="519" on="0"/>
        <pt x="492" y="535" on="1"/>
        <pt x="480" y="571" on="0"/>
        <pt x="469" y="584" on="1"/>
        <pt x="445" y="611" on="0"/>
        <pt x="402" y="611" on="1"/>
        <pt x="252" y="611" on="1"/>
        <pt x="229" y="611" on="0"/>
        <pt x="210" y="581" on="0"/>
        <pt x="210" y="549" on="1"/>
        <pt x="210" y="98" on="1"/>
        <pt x="210" y="64" on="0"/>
        <pt x="249" y="31" on="0"/>
        <pt x="322" y="18" on="0"/>
        <pt x="322" y="-5" on="0"/>
        <pt x="293" y="-5" on="1"/>
        <pt x="176" y="0" on="1"/>
        <pt x="48" y="-5" on="1"/>
        <pt x="19" y="-5" on="0"/>
        <pt x="19" y="18" on="0"/>
        <pt x="92" y="31" on="0"/>
        <pt x="130" y="64" on="0"/>
        <pt x="130" y="98" on="1"/>
        <pt x="130" y="550" on="1"/>
        <pt x="130" y="585" on="0"/>
        <pt x="101" y="615" on="0"/>
        <pt x="30" y="628" on="0"/>
        <pt x="30" y="642" on="1"/>
        <pt x="30" y="653" on="0"/>
        <pt x="59" y="653" on="1"/>
        <pt x="177" y="650" on="1"/>
        <pt x="467" y="650" on="1"/>
        <pt x="493" y="653" on="1"/>
        <pt x="511" y="653" on="0"/>
      </contour>
    </TTGlyph>
    <TTGlyph name="Gbreve" xMin="45" yMin="-14" xMax="693" yMax="846">
      <component glyphName="uni0306.cap" x="245" y="0" flags="0x1004"/>
      <component glyphName="G" x="0" y="0" flags="0x1204"/>
    </TTGlyph>
    <TTGlyph name="Gbreve.sc" xMin="20" yMin="-12" xMax="492" yMax="638">
      <component glyphName="gbreve.sc" x="0" y="0" flags="0x1004"/>
    </TTGlyph>
    <TTGlyph name="Gcaron" xMin="45" yMin="-14" xMax="693" yMax="833">
      <component glyphName="uni030C.cap" x="249" y="20" flags="0x1004"/>
      <component glyphName="G" x="0" y="0" flags="0x1204"/>
    </TTGlyph>
    <TTGlyph name="Gcircumflex" xMin="45" yMin="-14" xMax="693" yMax="833">
      <component glyphName="uni0302.cap" x="249" y="20" flags="0x1004"/>
      <component glyphName="G" x="0" y="0" flags="0x1204"/>
    </TTGlyph>
    <TTGlyph name="Gcircumflex.sc" xMin="20" yMin="-12" xMax="492" yMax="678">
      <component glyphName="gcircumflex.sc" x="0" y="0" flags="0x1004"/>
    </TTGlyph>
    <TTGlyph name="Gcommaaccent" xMin="45" yMin="-275" xMax="693" yMax="663">
      <component glyphName="uni0326" x="295" y="0" flags="0x1004"/>
      <component glyphName="G" x="0" y="0" flags="0x1204"/>
    </TTGlyph>
    <TTGlyph name="Gcommaaccent.sc" xMin="20" yMin="-12" xMax="492" yMax="719">
      <component glyphName="gcommaaccent.sc" x="0" y="0" flags="0x1004"/>
    </TTGlyph>
    <TTGlyph name="Gdotaccent" xMin="45" yMin="-14" xMax="693" yMax="810">
      <component glyphName="uni0307.cap" x="340" y="0" flags="0x1004"/>
      <component glyphName="G" x="0" y="0" flags="0x1204"/>
    </TTGlyph>
    <TTGlyph name="Gdotaccent.sc" xMin="20" yMin="-12" xMax="492" yMax="624">
      <component glyphName="gdotaccent.sc" x="0" y="0" flags="0x1004"/>
    </TTGlyph>
    <TTGlyph name="H" xMin="37" yMin="-5" xMax="770" yMax="653">
      <contour>
        <pt x="648" y="650" on="1"/>
        <pt x="739" y="653" on="1"/>
        <pt x="768" y="653" on="0"/>
        <pt x="768" y="642" on="1"/>
        <pt x="768" y="628" on="0"/>
        <pt x="701" y="616" on="0"/>
        <pt x="682" y="585" on="0"/>
        <pt x="682" y="552" on="1"/>
        <pt x="682" y="100" on="1"/>
        <pt x="682" y="61" on="0"/>
        <pt x="701" y="30" on="0"/>
        <pt x="770" y="18" on="0"/>
        <pt x="770" y="-5" on="0"/>
        <pt x="741" y="-5" on="1"/>
        <pt x="637" y="0" on="1"/>
        <pt x="530" y="-5" on="1"/>
        <pt x="501" y="-5" on="0"/>
        <pt x="501" y="18" on="0"/>
        <pt x="534" y="24" on="1"/>
        <pt x="602" y="37" on="0"/>
        <pt x="602" y="97" on="1"/>
        <pt x="602" y="287" on="1"/>
        <pt x="602" y="302" on="0"/>
        <pt x="597" y="302" on="1"/>
        <pt x="215" y="302" on="1"/>
        <pt x="210" y="302" on="0"/>
        <pt x="210" y="291" on="1"/>
        <pt x="210" y="106" on="1"/>
        <pt x="210" y="75" on="0"/>
        <pt x="254" y="30" on="0"/>
        <pt x="322" y="18" on="0"/>
        <pt x="322" y="-5" on="0"/>
        <pt x="293" y="-5" on="1"/>
        <pt x="176" y="0" on="1"/>
        <pt x="66" y="-5" on="1"/>
        <pt x="37" y="-5" on="0"/>
        <pt x="37" y="18" on="0"/>
        <pt x="106" y="31" on="0"/>
        <pt x="130" y="62" on="0"/>
        <pt x="130" y="99" on="1"/>
        <pt x="130" y="551" on="1"/>
        <pt x="130" y="588" on="0"/>
        <pt x="112" y="616" on="0"/>
        <pt x="44" y="628" on="0"/>
        <pt x="44" y="642" on="1"/>
        <pt x="44" y="653" on="0"/>
        <pt x="73" y="653" on="1"/>
        <pt x="176" y="650" on="1"/>
        <pt x="282" y="653" on="1"/>
        <pt x="311" y="653" on="0"/>
        <pt x="311" y="642" on="1"/>
        <pt x="311" y="628" on="0"/>
        <pt x="278" y="622" on="1"/>
        <pt x="210" y="610" on="0"/>
        <pt x="210" y="551" on="1"/>
        <pt x="210" y="359" on="1"/>
        <pt x="210" y="350" on="0"/>
        <pt x="224" y="350" on="1"/>
        <pt x="595" y="350" on="1"/>
        <pt x="602" y="350" on="0"/>
        <pt x="602" y="362" on="1"/>
        <pt x="602" y="552" on="1"/>
        <pt x="602" y="610" on="0"/>
        <pt x="536" y="622" on="1"/>
        <pt x="503" y="628" on="0"/>
        <pt x="503" y="642" on="1"/>
        <pt x="503" y="653" on="0"/>
        <pt x="532" y="653" on="1"/>
      </contour>
    </TTGlyph>
    <TTGlyph name="H.ordn" xMin="31" yMin="277" xMax="522" yMax="672">
      <component glyphName="H.subs" x="0" y="280" flags="0x1004"/>
    </TTGlyph>
    <TTGlyph name="H.sc" xMin="14" yMin="-3" xMax="574" yMax="452">
      <component glyphName="h.sc" x="0" y="0" flags="0x1004"/>
    </TTGlyph>
    <TTGlyph name="H.sinf" xMin="31" yMin="-147" xMax="522" yMax="248">
      <component glyphName="H.subs" x="0" y="-144" flags="0x1004"/>
    </TTGlyph>
    <TTGlyph name="H.subs" xMin="31" yMin="-3" xMax="522" yMax="392">
      <contour>
        <pt x="443" y="390" on="1"/>
        <pt x="502" y="392" on="1"/>
        <pt x="521" y="392" on="0"/>
        <pt x="521" y="385" on="1"/>
        <pt x="521" y="376" on="0"/>
        <pt x="477" y="370" on="0"/>
        <pt x="465" y="351" on="0"/>
        <pt x="465" y="331" on="1"/>
        <pt x="465" y="60" on="1"/>
        <pt x="466" y="43" on="0"/>
        <pt x="468" y="36" on="1"/>
        <pt x="471" y="18" on="0"/>
        <pt x="522" y="11" on="0"/>
        <pt x="522" y="-3" on="0"/>
        <pt x="503" y="-3" on="1"/>
        <pt x="436" y="0" on="1"/>
        <pt x="366" y="-3" on="1"/>
        <pt x="347" y="-3" on="0"/>
        <pt x="347" y="11" on="0"/>
        <pt x="369" y="14" on="1"/>
        <pt x="413" y="22" on="0"/>
        <pt x="413" y="58" on="1"/>
        <pt x="413" y="180" on="1"/>
        <pt x="413" y="184" on="0"/>
        <pt x="410" y="184" on="1"/>
        <pt x="298" y="186" on="0"/>
        <pt x="239" y="186" on="0"/>
        <pt x="147" y="184" on="1"/>
        <pt x="144" y="184" on="0"/>
        <pt x="144" y="178" on="1"/>
        <pt x="144" y="64" on="1"/>
        <pt x="144" y="45" on="0"/>
        <pt x="172" y="18" on="0"/>
        <pt x="216" y="11" on="0"/>
        <pt x="216" y="-3" on="0"/>
        <pt x="198" y="-3" on="1"/>
        <pt x="122" y="0" on="1"/>
        <pt x="50" y="-3" on="1"/>
        <pt x="31" y="-3" on="0"/>
        <pt x="31" y="11" on="0"/>
        <pt x="76" y="18" on="0"/>
        <pt x="92" y="37" on="0"/>
        <pt x="92" y="59" on="1"/>
        <pt x="92" y="331" on="1"/>
        <pt x="92" y="353" on="0"/>
        <pt x="80" y="369" on="0"/>
        <pt x="36" y="376" on="0"/>
        <pt x="36" y="385" on="1"/>
        <pt x="36" y="392" on="0"/>
        <pt x="55" y="392" on="1"/>
        <pt x="122" y="390" on="1"/>
        <pt x="190" y="392" on="1"/>
        <pt x="209" y="392" on="0"/>
        <pt x="209" y="385" on="1"/>
        <pt x="209" y="376" on="0"/>
        <pt x="188" y="373" on="1"/>
        <pt x="144" y="366" on="0"/>
        <pt x="144" y="331" on="1"/>
        <pt x="144" y="214" on="1"/>
        <pt x="144" y="208" on="0"/>
        <pt x="153" y="208" on="1"/>
        <pt x="263" y="206" on="0"/>
        <pt x="318" y="206" on="0"/>
        <pt x="408" y="208" on="1"/>
        <pt x="413" y="208" on="0"/>
        <pt x="413" y="215" on="1"/>
        <pt x="412" y="331" on="1"/>
        <pt x="412" y="366" on="0"/>
        <pt x="370" y="373" on="1"/>
        <pt x="348" y="376" on="0"/>
        <pt x="348" y="385" on="1"/>
        <pt x="348" y="392" on="0"/>
        <pt x="367" y="392" on="1"/>
      </contour>
    </TTGlyph>
    <TTGlyph name="H.sups" xMin="31" yMin="437" xMax="522" yMax="832">
      <component glyphName="H.subs" x="0" y="440" flags="0x1004"/>
    </TTGlyph>
    <TTGlyph name="Hbar" xMin="37" yMin="-5" xMax="770" yMax="653">
      <contour>
        <pt x="648" y="650" on="1"/>
        <pt x="739" y="653" on="1"/>
        <pt x="768" y="653" on="0"/>
        <pt x="768" y="642" on="1"/>
        <pt x="768" y="628" on="0"/>
        <pt x="701" y="616" on="0"/>
        <pt x="682" y="585" on="0"/>
        <pt x="682" y="552" on="1"/>
        <pt x="682" y="492" on="1"/>
        <pt x="749" y="492" on="1"/>
        <pt x="755" y="492" on="0"/>
        <pt x="764" y="483" on="0"/>
        <pt x="762" y="478" on="1"/>
        <pt x="750" y="456" on="0"/>
        <pt x="731" y="456" on="1"/>
        <pt x="682" y="456" on="1"/>
        <pt x="682" y="100" on="1"/>
        <pt x="682" y="61" on="0"/>
        <pt x="701" y="30" on="0"/>
        <pt x="770" y="18" on="0"/>
        <pt x="770" y="-5" on="0"/>
        <pt x="741" y="-5" on="1"/>
        <pt x="637" y="0" on="1"/>
        <pt x="530" y="-5" on="1"/>
        <pt x="501" y="-5" on="0"/>
        <pt x="501" y="18" on="0"/>
        <pt x="534" y="24" on="1"/>
        <pt x="602" y="37" on="0"/>
        <pt x="602" y="97" on="1"/>
        <pt x="602" y="287" on="1"/>
        <pt x="602" y="302" on="0"/>
        <pt x="597" y="302" on="1"/>
        <pt x="215" y="302" on="1"/>
        <pt x="210" y="302" on="0"/>
        <pt x="210" y="291" on="1"/>
        <pt x="210" y="106" on="1"/>
        <pt x="210" y="75" on="0"/>
        <pt x="254" y="30" on="0"/>
        <pt x="322" y="18" on="0"/>
        <pt x="322" y="-5" on="0"/>
        <pt x="293" y="-5" on="1"/>
        <pt x="176" y="0" on="1"/>
        <pt x="66" y="-5" on="1"/>
        <pt x="37" y="-5" on="0"/>
        <pt x="37" y="18" on="0"/>
        <pt x="106" y="31" on="0"/>
        <pt x="130" y="62" on="0"/>
        <pt x="130" y="99" on="1"/>
        <pt x="130" y="456" on="1"/>
        <pt x="66" y="456" on="1"/>
        <pt x="60" y="456" on="0"/>
        <pt x="52" y="468" on="0"/>
        <pt x="52" y="481" on="0"/>
        <pt x="67" y="492" on="0"/>
        <pt x="76" y="492" on="1"/>
        <pt x="130" y="492" on="1"/>
        <pt x="130" y="551" on="1"/>
        <pt x="130" y="588" on="0"/>
        <pt x="112" y="616" on="0"/>
        <pt x="44" y="628" on="0"/>
        <pt x="44" y="642" on="1"/>
        <pt x="44" y="653" on="0"/>
        <pt x="73" y="653" on="1"/>
        <pt x="176" y="650" on="1"/>
        <pt x="176" y="650" on="0"/>
        <pt x="282" y="653" on="1"/>
        <pt x="311" y="653" on="0"/>
        <pt x="311" y="642" on="1"/>
        <pt x="311" y="628" on="0"/>
        <pt x="278" y="622" on="1"/>
        <pt x="210" y="610" on="0"/>
        <pt x="210" y="551" on="1"/>
        <pt x="210" y="492" on="1"/>
        <pt x="602" y="492" on="1"/>
        <pt x="602" y="552" on="1"/>
        <pt x="602" y="610" on="0"/>
        <pt x="536" y="622" on="1"/>
        <pt x="503" y="628" on="0"/>
        <pt x="503" y="642" on="1"/>
        <pt x="503" y="653" on="0"/>
        <pt x="532" y="653" on="1"/>
        <pt x="532" y="653" on="0"/>
      </contour>
      <contour>
        <pt x="602" y="456" on="1"/>
        <pt x="210" y="456" on="1"/>
        <pt x="210" y="359" on="1"/>
        <pt x="210" y="350" on="0"/>
        <pt x="224" y="350" on="1"/>
        <pt x="595" y="350" on="1"/>
        <pt x="602" y="350" on="0"/>
        <pt x="602" y="362" on="1"/>
      </contour>
    </TTGlyph>
    <TTGlyph name="Hbar.sc" xMin="14" yMin="-3" xMax="574" yMax="452">
      <component glyphName="hbar.sc" x="0" y="0" flags="0x1004"/>
    </TTGlyph>
    <TTGlyph name="Hcircumflex" xMin="37" yMin="-5" xMax="770" yMax="833">
      <component glyphName="uni0302.cap" x="255" y="20" flags="0x1004"/>
      <component glyphName="H" x="0" y="0" flags="0x1204"/>
    </TTGlyph>
    <TTGlyph name="Hcircumflex.sc" xMin="14" yMin="-3" xMax="574" yMax="678">
      <component glyphName="hcircumflex.sc" x="0" y="0" flags="0x1004"/>
    </TTGlyph>
    <TTGlyph name="I" xMin="19" yMin="-5" xMax="322" yMax="653">
      <contour>
        <pt x="176" y="0" on="1"/>
        <pt x="48" y="-5" on="1"/>
        <pt x="19" y="-5" on="0"/>
        <pt x="19" y="18" on="0"/>
        <pt x="92" y="31" on="0"/>
        <pt x="130" y="64" on="0"/>
        <pt x="130" y="98" on="1"/>
        <pt x="130" y="550" on="1"/>
        <pt x="130" y="585" on="0"/>
        <pt x="101" y="615" on="0"/>
        <pt x="30" y="628" on="0"/>
        <pt x="30" y="642" on="1"/>
        <pt x="30" y="653" on="0"/>
        <pt x="59" y="653" on="1"/>
        <pt x="176" y="650" on="1"/>
        <pt x="285" y="653" on="1"/>
        <pt x="314" y="653" on="0"/>
        <pt x="314" y="642" on="1"/>
        <pt x="314" y="628" on="0"/>
        <pt x="242" y="615" on="0"/>
        <pt x="210" y="584" on="0"/>
        <pt x="210" y="550" on="1"/>
        <pt x="210" y="98" on="1"/>
        <pt x="210" y="64" on="0"/>
        <pt x="249" y="31" on="0"/>
        <pt x="322" y="18" on="0"/>
        <pt x="322" y="-5" on="0"/>
        <pt x="293" y="-5" on="1"/>
      </contour>
    </TTGlyph>
    <TTGlyph name="I.ordn" xMin="20" yMin="277" xMax="216" yMax="672">
      <component glyphName="I.subs" x="0" y="280" flags="0x1004"/>
    </TTGlyph>
    <TTGlyph name="I.sc" xMin="53" yMin="-3" xMax="279" yMax="452">
      <component glyphName="i.sc" x="0" y="0" flags="0x1004"/>
    </TTGlyph>
    <TTGlyph name="I.sinf" xMin="20" yMin="-147" xMax="216" yMax="248">
      <component glyphName="I.subs" x="0" y="-144" flags="0x1004"/>
    </TTGlyph>
    <TTGlyph name="I.subs" xMin="20" yMin="-3" xMax="216" yMax="392">
      <contour>
        <pt x="122" y="0" on="1"/>
        <pt x="38" y="-3" on="1"/>
        <pt x="20" y="-3" on="0"/>
        <pt x="20" y="11" on="0"/>
        <pt x="41" y="14" on="1"/>
        <pt x="92" y="22" on="0"/>
        <pt x="92" y="59" on="1"/>
        <pt x="92" y="330" on="1"/>
        <pt x="92" y="351" on="0"/>
        <pt x="72" y="369" on="0"/>
        <pt x="27" y="376" on="0"/>
        <pt x="27" y="385" on="1"/>
        <pt x="27" y="392" on="0"/>
        <pt x="46" y="392" on="1"/>
        <pt x="122" y="390" on="1"/>
        <pt x="192" y="392" on="1"/>
        <pt x="211" y="392" on="0"/>
        <pt x="211" y="385" on="1"/>
        <pt x="211" y="376" on="0"/>
        <pt x="165" y="369" on="0"/>
        <pt x="144" y="350" on="0"/>
        <pt x="144" y="330" on="1"/>
        <pt x="144" y="59" on="1"/>
        <pt x="144" y="22" on="0"/>
        <pt x="195" y="14" on="1"/>
        <pt x="216" y="11" on="0"/>
        <pt x="216" y="-3" on="0"/>
        <pt x="198" y="-3" on="1"/>
      </contour>
    </TTGlyph>
    <TTGlyph name="I.sups" xMin="20" yMin="437" xMax="216" yMax="832">
      <component glyphName="I.subs" x="0" y="440" flags="0x1004"/>
    </TTGlyph>
    <TTGlyph name="IJ" xMin="19" yMin="-200" xMax="653" yMax="653">
      <component glyphName="J" x="353" y="0" flags="0x1004"/>
      <component glyphName="I" x="0" y="0" flags="0x1004"/>
    </TTGlyph>
    <TTGlyph name="IJ.sc" xMin="53" yMin="-175" xMax="542" yMax="452">
      <component glyphName="ij.sc" x="0" y="0" flags="0x1004"/>
    </TTGlyph>
    <TTGlyph name="Iacute" xMin="19" yMin="-5" xMax="322" yMax="850">
      <component glyphName="acutecomb.cap" x="137" y="0" flags="0x1004"/>
      <component glyphName="I" x="0" y="0" flags="0x1204"/>
    </TTGlyph>
    <TTGlyph name="Iacute.sc" xMin="53" yMin="-3" xMax="291" yMax="679">
      <component glyphName="iacute.sc" x="0" y="0" flags="0x1004"/>
    </TTGlyph>
    <TTGlyph name="Ibreve" xMin="19" yMin="-5" xMax="331" yMax="846">
      <component glyphName="uni0306.cap" x="26" y="0" flags="0x1004"/>
      <component glyphName="I" x="0" y="0" flags="0x1204"/>
    </TTGlyph>
    <TTGlyph name="Ibreve.sc" xMin="53" yMin="-3" xMax="279" yMax="638">
      <component glyphName="ibreve.sc" x="0" y="0" flags="0x1004"/>
    </TTGlyph>
    <TTGlyph name="Icircumflex" xMin="19" yMin="-5" xMax="326" yMax="833">
      <component glyphName="uni0302.cap" x="30" y="20" flags="0x1004"/>
      <component glyphName="I" x="0" y="0" flags="0x1204"/>
    </TTGlyph>
    <TTGlyph name="Icircumflex.sc" xMin="53" yMin="-3" xMax="279" yMax="678">
      <component glyphName="icircumflex.sc" x="0" y="0" flags="0x1004"/>
    </TTGlyph>
    <TTGlyph name="Idieresis" xMin="19" yMin="-5" xMax="328" yMax="801">
      <component glyphName="uni0308.cap" x="28" y="1" flags="0x1004"/>
      <component glyphName="I" x="0" y="0" flags="0x1204"/>
    </TTGlyph>
    <TTGlyph name="Idieresis.sc" xMin="32" yMin="-3" xMax="309" yMax="623">
      <component glyphName="idieresis.sc" x="0" y="0" flags="0x1004"/>
    </TTGlyph>
    <TTGlyph name="Idotaccent" xMin="19" yMin="-5" xMax="322" yMax="810">
      <component glyphName="uni0307.cap" x="121" y="0" flags="0x1004"/>
      <component glyphName="I" x="0" y="0" flags="0x1204"/>
    </TTGlyph>
    <TTGlyph name="Idotaccent.sc" xMin="32" yMin="-4" xMax="303" yMax="616">
      <contour>
        <pt x="144" y="616" on="0"/>
        <pt x="188" y="616" on="0"/>
        <pt x="221" y="584" on="0"/>
        <pt x="221" y="538" on="0"/>
        <pt x="188" y="506" on="0"/>
        <pt x="144" y="506" on="0"/>
        <pt x="111" y="538" on="0"/>
        <pt x="111" y="584" on="0"/>
      </contour>
      <contour>
        <pt x="168" y="2" on="1"/>
        <pt x="42" y="-4" on="1"/>
        <pt x="32" y="-4" on="0"/>
        <pt x="32" y="20" on="0"/>
        <pt x="42" y="21" on="1"/>
        <pt x="129" y="33" on="0"/>
        <pt x="129" y="83" on="1"/>
        <pt x="129" y="350" on="1"/>
        <pt x="129" y="364" on="0"/>
        <pt x="95" y="387" on="0"/>
        <pt x="51" y="403" on="1"/>
        <pt x="45" y="404" on="0"/>
        <pt x="45" y="434" on="0"/>
        <pt x="51" y="434" on="1"/>
        <pt x="168" y="432" on="1"/>
        <pt x="282" y="434" on="1"/>
        <pt x="290" y="434" on="0"/>
        <pt x="290" y="405" on="0"/>
        <pt x="282" y="403" on="1"/>
        <pt x="234" y="386" on="0"/>
        <pt x="204" y="365" on="0"/>
        <pt x="204" y="350" on="1"/>
        <pt x="204" y="83" on="1"/>
        <pt x="204" y="36" on="0"/>
        <pt x="291" y="21" on="1"/>
        <pt x="303" y="20" on="0"/>
        <pt x="303" y="-4" on="0"/>
        <pt x="291" y="-4" on="1"/>
      </contour>
    </TTGlyph>
    <TTGlyph name="Igrave" xMin="19" yMin="-5" xMax="322" yMax="850">
      <component glyphName="gravecomb.cap" x="46" y="0" flags="0x1004"/>
      <component glyphName="I" x="0" y="0" flags="0x1204"/>
    </TTGlyph>
    <TTGlyph name="Igrave.sc" xMin="41" yMin="-3" xMax="279" yMax="679">
      <component glyphName="igrave.sc" x="0" y="0" flags="0x1004"/>
    </TTGlyph>
    <TTGlyph name="Imacron" xMin="19" yMin="-5" xMax="331" yMax="777">
      <component glyphName="uni0304.cap" x="26" y="0" flags="0x1004"/>
      <component glyphName="I" x="0" y="0" flags="0x1204"/>
    </TTGlyph>
    <TTGlyph name="Imacron.sc" xMin="46" yMin="-3" xMax="286" yMax="585">
      <component glyphName="imacron.sc" x="0" y="0" flags="0x1004"/>
    </TTGlyph>
    <TTGlyph name="Iogonek" xMin="19" yMin="-287" xMax="322" yMax="653">
      <contour>
        <pt x="293" y="-5" on="1"/>
        <pt x="210" y="-1" on="1"/>
        <pt x="123" y="-75" on="0"/>
        <pt x="123" y="-155" on="1"/>
        <pt x="123" y="-181" on="0"/>
        <pt x="162" y="-216" on="0"/>
        <pt x="201" y="-216" on="0"/>
        <pt x="230" y="-205" on="0"/>
        <pt x="240" y="-198" on="1"/>
        <pt x="266" y="-179" on="0"/>
        <pt x="275" y="-173" on="0"/>
        <pt x="283" y="-176" on="0"/>
        <pt x="283" y="-182" on="1"/>
        <pt x="283" y="-214" on="0"/>
        <pt x="192" y="-287" on="0"/>
        <pt x="105" y="-287" on="0"/>
        <pt x="38" y="-221" on="0"/>
        <pt x="38" y="-125" on="0"/>
        <pt x="126" y="-34" on="0"/>
        <pt x="179" y="0" on="1"/>
        <pt x="176" y="0" on="1"/>
        <pt x="48" y="-5" on="1"/>
        <pt x="19" y="-5" on="0"/>
        <pt x="19" y="18" on="0"/>
        <pt x="92" y="31" on="0"/>
        <pt x="130" y="64" on="0"/>
        <pt x="130" y="98" on="1"/>
        <pt x="130" y="550" on="1"/>
        <pt x="130" y="585" on="0"/>
        <pt x="101" y="615" on="0"/>
        <pt x="30" y="628" on="0"/>
        <pt x="30" y="642" on="1"/>
        <pt x="30" y="653" on="0"/>
        <pt x="59" y="653" on="1"/>
        <pt x="176" y="650" on="1"/>
        <pt x="285" y="653" on="1"/>
        <pt x="314" y="653" on="0"/>
        <pt x="314" y="642" on="1"/>
        <pt x="314" y="628" on="0"/>
        <pt x="242" y="615" on="0"/>
        <pt x="210" y="584" on="0"/>
        <pt x="210" y="550" on="1"/>
        <pt x="210" y="98" on="1"/>
        <pt x="210" y="64" on="0"/>
        <pt x="249" y="31" on="0"/>
        <pt x="322" y="18" on="0"/>
        <pt x="322" y="-5" on="0"/>
      </contour>
    </TTGlyph>
    <TTGlyph name="Iogonek.sc" xMin="53" yMin="-286" xMax="279" yMax="452">
      <component glyphName="iogonek.sc" x="0" y="0" flags="0x1004"/>
    </TTGlyph>
    <TTGlyph name="Iota" xMin="19" yMin="-5" xMax="322" yMax="653">
      <component glyphName="I" x="0" y="0" flags="0x1204"/>
    </TTGlyph>
    <TTGlyph name="Iotadieresis" xMin="-169" yMin="-5" xMax="322" yMax="746">
      <component glyphName="uni0308.cap" x="-174" y="-54" flags="0x1004"/>
      <component glyphName="Iota" x="0" y="0" flags="0x1204"/>
    </TTGlyph>
    <TTGlyph name="Itilde" xMin="19" yMin="-5" xMax="323" yMax="829">
      <component glyphName="tildecomb.cap" x="38" y="7" flags="0x1004"/>
      <component glyphName="I" x="0" y="0" flags="0x1204"/>
    </TTGlyph>
    <TTGlyph name="Itilde.sc" xMin="40" yMin="-3" xMax="308" yMax="630">
      <component glyphName="itilde.sc" x="0" y="0" flags="0x1004"/>
    </TTGlyph>
    <TTGlyph name="J" xMin="-69" yMin="-200" xMax="300" yMax="653">
      <contour>
        <pt x="177" y="650" on="1"/>
        <pt x="271" y="653" on="1"/>
        <pt x="300" y="653" on="0"/>
        <pt x="300" y="642" on="1"/>
        <pt x="300" y="628" on="0"/>
        <pt x="231" y="615" on="0"/>
        <pt x="210" y="587" on="0"/>
        <pt x="210" y="551" on="1"/>
        <pt x="210" y="142" on="1"/>
        <pt x="210" y="-10" on="0"/>
        <pt x="193" y="-62" on="1"/>
        <pt x="183" y="-92" on="0"/>
        <pt x="172" y="-112" on="0"/>
        <pt x="157" y="-134" on="1"/>
        <pt x="111" y="-200" on="0"/>
        <pt x="34" y="-200" on="1"/>
        <pt x="-12" y="-200" on="0"/>
        <pt x="-69" y="-175" on="0"/>
        <pt x="-69" y="-138" on="0"/>
        <pt x="-46" y="-103" on="0"/>
        <pt x="-33" y="-103" on="1"/>
        <pt x="0" y="-103" on="0"/>
        <pt x="36" y="-158" on="0"/>
        <pt x="64" y="-158" on="1"/>
        <pt x="130" y="-158" on="0"/>
        <pt x="130" y="0" on="1"/>
        <pt x="130" y="551" on="1"/>
        <pt x="130" y="585" on="0"/>
        <pt x="101" y="615" on="0"/>
        <pt x="31" y="628" on="0"/>
        <pt x="31" y="642" on="1"/>
        <pt x="31" y="653" on="0"/>
        <pt x="60" y="653" on="1"/>
      </contour>
    </TTGlyph>
    <TTGlyph name="J.ordn" xMin="-36" yMin="189" xMax="207" yMax="672">
      <component glyphName="J.subs" x="0" y="280" flags="0x1004"/>
    </TTGlyph>
    <TTGlyph name="J.sc" xMin="-89" yMin="-175" xMax="246" yMax="452">
      <component glyphName="j.sc" x="0" y="0" flags="0x1004"/>
    </TTGlyph>
    <TTGlyph name="J.sinf" xMin="-36" yMin="-235" xMax="207" yMax="248">
      <component glyphName="J.subs" x="0" y="-144" flags="0x1004"/>
    </TTGlyph>
    <TTGlyph name="J.subs" xMin="-36" yMin="-91" xMax="207" yMax="392">
      <contour>
        <pt x="117" y="390" on="1"/>
        <pt x="188" y="392" on="1"/>
        <pt x="207" y="392" on="0"/>
        <pt x="207" y="385" on="1"/>
        <pt x="207" y="376" on="0"/>
        <pt x="160" y="369" on="0"/>
        <pt x="139" y="351" on="0"/>
        <pt x="138" y="331" on="1"/>
        <pt x="138" y="114" on="1"/>
        <pt x="138" y="28" on="0"/>
        <pt x="133" y="11" on="1"/>
        <pt x="121" y="-37" on="0"/>
        <pt x="67" y="-91" on="0"/>
        <pt x="31" y="-91" on="1"/>
        <pt x="27" y="-91" on="1"/>
        <pt x="-36" y="-91" on="0"/>
        <pt x="-36" y="-66" on="1"/>
        <pt x="-36" y="-56" on="0"/>
        <pt x="-9" y="-53" on="0"/>
        <pt x="10" y="-73" on="0"/>
        <pt x="49" y="-73" on="0"/>
        <pt x="77" y="-40" on="0"/>
        <pt x="86" y="19" on="0"/>
        <pt x="86" y="79" on="1"/>
        <pt x="86" y="331" on="1"/>
        <pt x="87" y="352" on="0"/>
        <pt x="68" y="369" on="0"/>
        <pt x="22" y="376" on="0"/>
        <pt x="22" y="385" on="1"/>
        <pt x="22" y="392" on="0"/>
        <pt x="41" y="392" on="1"/>
      </contour>
    </TTGlyph>
    <TTGlyph name="J.sups" xMin="-36" yMin="349" xMax="207" yMax="832">
      <component glyphName="J.subs" x="0" y="440" flags="0x1004"/>
    </TTGlyph>
    <TTGlyph name="Jcircumflex" xMin="-69" yMin="-200" xMax="318" yMax="833">
      <component glyphName="uni0302.cap" x="22" y="20" flags="0x1004"/>
      <component glyphName="J" x="0" y="0" flags="0x1204"/>
    </TTGlyph>
    <TTGlyph name="Jcircumflex.sc" xMin="-89" yMin="-175" xMax="252" yMax="678">
      <component glyphName="jcircumflex.sc" x="0" y="0" flags="0x1004"/>
    </TTGlyph>
    <TTGlyph name="K" xMin="31" yMin="-5" xMax="688" yMax="655">
      <contour>
        <pt x="172" y="651" on="1"/>
        <pt x="269" y="653" on="1"/>
        <pt x="298" y="653" on="0"/>
        <pt x="298" y="642" on="1"/>
        <pt x="298" y="628" on="0"/>
        <pt x="230" y="616" on="0"/>
        <pt x="211" y="584" on="0"/>
        <pt x="211" y="551" on="1"/>
        <pt x="211" y="364" on="1"/>
        <pt x="211" y="345" on="0"/>
        <pt x="216" y="345" on="1"/>
        <pt x="227" y="345" on="0"/>
        <pt x="243" y="363" on="1"/>
        <pt x="443" y="567" on="1"/>
        <pt x="458" y="582" on="0"/>
        <pt x="458" y="615" on="0"/>
        <pt x="439" y="620" on="1"/>
        <pt x="408" y="628" on="0"/>
        <pt x="408" y="651" on="0"/>
        <pt x="437" y="651" on="1"/>
        <pt x="491" y="651" on="1"/>
        <pt x="603" y="651" on="0"/>
        <pt x="646" y="655" on="1"/>
        <pt x="653" y="655" on="1"/>
        <pt x="675" y="655" on="0"/>
        <pt x="675" y="644" on="1"/>
        <pt x="675" y="630" on="0"/>
        <pt x="642" y="624" on="1"/>
        <pt x="548" y="607" on="0"/>
        <pt x="490" y="558" on="1"/>
        <pt x="394" y="477" on="0"/>
        <pt x="298" y="371" on="1"/>
        <pt x="292" y="364" on="0"/>
        <pt x="303" y="353" on="1"/>
        <pt x="545" y="95" on="1"/>
        <pt x="580" y="56" on="0"/>
        <pt x="614" y="33" on="0"/>
        <pt x="688" y="17" on="0"/>
        <pt x="688" y="-5" on="0"/>
        <pt x="659" y="-5" on="1"/>
        <pt x="520" y="0" on="1"/>
        <pt x="439" y="-1" on="1"/>
        <pt x="410" y="-1" on="0"/>
        <pt x="410" y="21" on="0"/>
        <pt x="465" y="34" on="0"/>
        <pt x="465" y="47" on="1"/>
        <pt x="465" y="55" on="0"/>
        <pt x="450" y="72" on="1"/>
        <pt x="238" y="306" on="1"/>
        <pt x="221" y="323" on="0"/>
        <pt x="215" y="323" on="1"/>
        <pt x="211" y="323" on="0"/>
        <pt x="211" y="243" on="0"/>
        <pt x="216" y="110" on="1"/>
        <pt x="219" y="35" on="0"/>
        <pt x="280" y="24" on="1"/>
        <pt x="313" y="18" on="0"/>
        <pt x="313" y="-5" on="0"/>
        <pt x="255" y="-5" on="0"/>
        <pt x="203" y="2" on="0"/>
        <pt x="186" y="2" on="1"/>
        <pt x="60" y="-5" on="1"/>
        <pt x="31" y="-5" on="0"/>
        <pt x="31" y="18" on="0"/>
        <pt x="102" y="31" on="0"/>
        <pt x="131" y="64" on="0"/>
        <pt x="131" y="101" on="1"/>
        <pt x="131" y="551" on="1"/>
        <pt x="131" y="585" on="0"/>
        <pt x="102" y="615" on="0"/>
        <pt x="31" y="628" on="0"/>
        <pt x="31" y="642" on="1"/>
        <pt x="31" y="653" on="0"/>
        <pt x="60" y="653" on="1"/>
      </contour>
    </TTGlyph>
    <TTGlyph name="K.ordn" xMin="20" yMin="277" xMax="447" yMax="673">
      <component glyphName="K.subs" x="0" y="280" flags="0x1004"/>
    </TTGlyph>
    <TTGlyph name="K.sc" xMin="28" yMin="-7" xMax="505" yMax="454">
      <component glyphName="k.sc" x="0" y="0" flags="0x1004"/>
    </TTGlyph>
    <TTGlyph name="K.sinf" xMin="20" yMin="-147" xMax="447" yMax="249">
      <component glyphName="K.subs" x="0" y="-144" flags="0x1004"/>
    </TTGlyph>
    <TTGlyph name="K.subs" xMin="20" yMin="-3" xMax="447" yMax="393">
      <contour>
        <pt x="115" y="390" on="1"/>
        <pt x="175" y="392" on="1"/>
        <pt x="194" y="392" on="0"/>
        <pt x="194" y="385" on="1"/>
        <pt x="194" y="376" on="0"/>
        <pt x="150" y="370" on="0"/>
        <pt x="137" y="351" on="0"/>
        <pt x="137" y="331" on="1"/>
        <pt x="137" y="218" on="1"/>
        <pt x="137" y="211" on="0"/>
        <pt x="140" y="211" on="1"/>
        <pt x="148" y="211" on="0"/>
        <pt x="158" y="219" on="1"/>
        <pt x="183" y="239" on="0"/>
        <pt x="266" y="319" on="1"/>
        <pt x="294" y="346" on="1"/>
        <pt x="305" y="357" on="0"/>
        <pt x="305" y="361" on="1"/>
        <pt x="305" y="369" on="0"/>
        <pt x="265" y="375" on="0"/>
        <pt x="265" y="384" on="1"/>
        <pt x="265" y="391" on="0"/>
        <pt x="284" y="391" on="1"/>
        <pt x="344" y="390" on="1"/>
        <pt x="360" y="390" on="1"/>
        <pt x="420" y="393" on="1"/>
        <pt x="439" y="393" on="0"/>
        <pt x="439" y="386" on="1"/>
        <pt x="439" y="377" on="0"/>
        <pt x="417" y="374" on="1"/>
        <pt x="357" y="365" on="0"/>
        <pt x="318" y="335" on="1"/>
        <pt x="260" y="289" on="0"/>
        <pt x="196" y="224" on="1"/>
        <pt x="192" y="220" on="0"/>
        <pt x="200" y="214" on="1"/>
        <pt x="354" y="57" on="1"/>
        <pt x="377" y="34" on="0"/>
        <pt x="400" y="19" on="0"/>
        <pt x="447" y="10" on="0"/>
        <pt x="447" y="-3" on="0"/>
        <pt x="428" y="-3" on="1"/>
        <pt x="349" y="0" on="1"/>
        <pt x="336" y="0" on="1"/>
        <pt x="285" y="-1" on="1"/>
        <pt x="266" y="-1" on="0"/>
        <pt x="266" y="13" on="0"/>
        <pt x="302" y="20" on="0"/>
        <pt x="302" y="28" on="1"/>
        <pt x="302" y="33" on="0"/>
        <pt x="292" y="43" on="1"/>
        <pt x="155" y="184" on="1"/>
        <pt x="145" y="194" on="0"/>
        <pt x="140" y="194" on="1"/>
        <pt x="137" y="194" on="0"/>
        <pt x="137" y="138" on="0"/>
        <pt x="140" y="66" on="1"/>
        <pt x="142" y="20" on="0"/>
        <pt x="182" y="14" on="1"/>
        <pt x="203" y="11" on="0"/>
        <pt x="203" y="-3" on="0"/>
        <pt x="185" y="-3" on="1"/>
        <pt x="121" y="1" on="1"/>
        <pt x="39" y="-3" on="1"/>
        <pt x="20" y="-3" on="0"/>
        <pt x="20" y="11" on="0"/>
        <pt x="66" y="18" on="0"/>
        <pt x="85" y="39" on="0"/>
        <pt x="85" y="61" on="1"/>
        <pt x="85" y="331" on="1"/>
        <pt x="85" y="352" on="0"/>
        <pt x="66" y="369" on="0"/>
        <pt x="20" y="376" on="0"/>
        <pt x="20" y="385" on="1"/>
        <pt x="20" y="392" on="0"/>
        <pt x="39" y="392" on="1"/>
        <pt x="39" y="392" on="0"/>
      </contour>
    </TTGlyph>
    <TTGlyph name="K.sups" xMin="20" yMin="437" xMax="447" yMax="833">
      <component glyphName="K.subs" x="0" y="440" flags="0x1004"/>
    </TTGlyph>
    <TTGlyph name="Kappa" xMin="31" yMin="-5" xMax="688" yMax="655">
      <component glyphName="K" x="0" y="0" flags="0x1204"/>
    </TTGlyph>
    <TTGlyph name="Kcommaaccent" xMin="31" yMin="-275" xMax="688" yMax="655">
      <component glyphName="uni0326" x="249" y="0" flags="0x1004"/>
      <component glyphName="K" x="0" y="0" flags="0x1204"/>
    </TTGlyph>
    <TTGlyph name="Kcommaaccent.sc" xMin="28" yMin="-275" xMax="505" yMax="454">
      <component glyphName="kcommaaccent.sc" x="0" y="0" flags="0x1004"/>
    </TTGlyph>
    <TTGlyph name="L" xMin="27" yMin="-5" xMax="575" yMax="653">
      <contour>
        <pt x="177" y="650" on="1"/>
        <pt x="303" y="653" on="1"/>
        <pt x="332" y="653" on="0"/>
        <pt x="332" y="642" on="1"/>
        <pt x="332" y="628" on="0"/>
        <pt x="275" y="618" on="0"/>
        <pt x="251" y="612" on="0"/>
        <pt x="236" y="606" on="1"/>
        <pt x="210" y="595" on="0"/>
        <pt x="210" y="567" on="1"/>
        <pt x="210" y="96" on="1"/>
        <pt x="210" y="63" on="0"/>
        <pt x="240" y="35" on="0"/>
        <pt x="287" y="35" on="1"/>
        <pt x="433" y="35" on="1"/>
        <pt x="439" y="35" on="0"/>
        <pt x="458" y="43" on="1"/>
        <pt x="510" y="65" on="0"/>
        <pt x="541" y="132" on="1"/>
        <pt x="552" y="162" on="0"/>
        <pt x="575" y="162" on="0"/>
        <pt x="575" y="144" on="1"/>
        <pt x="574" y="143" on="0"/>
        <pt x="574" y="141" on="1"/>
        <pt x="574" y="139" on="1"/>
        <pt x="551" y="53" on="0"/>
        <pt x="547" y="12" on="1"/>
        <pt x="545" y="-5" on="0"/>
        <pt x="533" y="-5" on="1"/>
        <pt x="190" y="0" on="1"/>
        <pt x="55" y="-5" on="1"/>
        <pt x="27" y="-5" on="0"/>
        <pt x="27" y="18" on="0"/>
        <pt x="49" y="24" on="1"/>
        <pt x="90" y="32" on="0"/>
        <pt x="130" y="64" on="0"/>
        <pt x="130" y="96" on="1"/>
        <pt x="130" y="560" on="1"/>
        <pt x="130" y="595" on="0"/>
        <pt x="108" y="615" on="0"/>
        <pt x="36" y="628" on="0"/>
        <pt x="36" y="642" on="1"/>
        <pt x="36" y="653" on="0"/>
        <pt x="65" y="653" on="1"/>
      </contour>
    </TTGlyph>
    <TTGlyph name="L.CAT" xMin="27" yMin="-5" xMax="575" yMax="653">
      <component glyphName="L" x="0" y="0" flags="0x1004"/>
    </TTGlyph>
    <TTGlyph name="L.CATsc" xMin="19" yMin="-2" xMax="432" yMax="453">
      <component glyphName="L.sc" x="0" y="0" flags="0x1004"/>
    </TTGlyph>
    <TTGlyph name="L.ordn" xMin="14" yMin="277" xMax="370" yMax="672">
      <component glyphName="L.subs" x="0" y="280" flags="0x1004"/>
    </TTGlyph>
    <TTGlyph name="L.sc" xMin="19" yMin="-2" xMax="432" yMax="453">
      <component glyphName="l.sc" x="0" y="0" flags="0x1004"/>
    </TTGlyph>
    <TTGlyph name="L.script" xMin="-10" yMin="-36" xMax="477" yMax="629">
      <contour>
        <pt x="421" y="146" on="1"/>
        <pt x="421" y="158" on="0"/>
        <pt x="430" y="158" on="1"/>
        <pt x="451" y="156" on="0"/>
        <pt x="477" y="126" on="0"/>
        <pt x="477" y="105" on="1"/>
        <pt x="477" y="48" on="0"/>
        <pt x="385" y="-36" on="0"/>
        <pt x="278" y="-36" on="0"/>
        <pt x="213" y="-8" on="0"/>
        <pt x="124" y="55" on="0"/>
        <pt x="100" y="55" on="1"/>
        <pt x="95" y="55" on="0"/>
        <pt x="66" y="24" on="0"/>
        <pt x="45" y="-14" on="0"/>
        <pt x="7" y="-14" on="0"/>
        <pt x="-10" y="4" on="0"/>
        <pt x="-10" y="34" on="0"/>
        <pt x="50" y="84" on="0"/>
        <pt x="86" y="91" on="1"/>
        <pt x="91" y="92" on="0"/>
        <pt x="112" y="130" on="0"/>
        <pt x="130" y="269" on="0"/>
        <pt x="130" y="341" on="1"/>
        <pt x="130" y="452" on="0"/>
        <pt x="243" y="628" on="0"/>
        <pt x="344" y="629" on="1"/>
        <pt x="347" y="629" on="1"/>
        <pt x="448" y="629" on="0"/>
        <pt x="448" y="547" on="1"/>
        <pt x="448" y="528" on="0"/>
        <pt x="417" y="491" on="0"/>
        <pt x="394" y="491" on="0"/>
        <pt x="394" y="505" on="1"/>
        <pt x="395" y="527" on="1"/>
        <pt x="394" y="552" on="0"/>
        <pt x="351" y="600" on="0"/>
        <pt x="326" y="600" on="1"/>
        <pt x="276" y="600" on="0"/>
        <pt x="218" y="460" on="0"/>
        <pt x="218" y="337" on="1"/>
        <pt x="218" y="271" on="0"/>
        <pt x="160" y="123" on="0"/>
        <pt x="135" y="102" on="1"/>
        <pt x="132" y="100" on="0"/>
        <pt x="134" y="93" on="0"/>
        <pt x="139" y="93" on="1"/>
        <pt x="202" y="93" on="0"/>
        <pt x="331" y="33" on="0"/>
        <pt x="375" y="32" on="1"/>
        <pt x="377" y="32" on="1"/>
        <pt x="400" y="32" on="0"/>
        <pt x="434" y="65" on="0"/>
        <pt x="434" y="97" on="0"/>
        <pt x="421" y="128" on="0"/>
        <pt x="421" y="136" on="1"/>
      </contour>
    </TTGlyph>
    <TTGlyph name="L.sinf" xMin="14" yMin="-147" xMax="370" yMax="248">
      <component glyphName="L.subs" x="0" y="-144" flags="0x1004"/>
    </TTGlyph>
    <TTGlyph name="L.subs" xMin="14" yMin="-3" xMax="370" yMax="392">
      <contour>
        <pt x="112" y="390" on="1"/>
        <pt x="194" y="392" on="1"/>
        <pt x="213" y="392" on="0"/>
        <pt x="213" y="385" on="1"/>
        <pt x="213" y="376" on="0"/>
        <pt x="171" y="370" on="0"/>
        <pt x="161" y="368" on="1"/>
        <pt x="133" y="360" on="0"/>
        <pt x="133" y="340" on="1"/>
        <pt x="133" y="58" on="1"/>
        <pt x="133" y="38" on="0"/>
        <pt x="152" y="21" on="0"/>
        <pt x="183" y="21" on="1"/>
        <pt x="278" y="21" on="1"/>
        <pt x="296" y="21" on="0"/>
        <pt x="335" y="54" on="0"/>
        <pt x="348" y="79" on="1"/>
        <pt x="355" y="97" on="0"/>
        <pt x="370" y="97" on="0"/>
        <pt x="370" y="67" on="0"/>
        <pt x="353" y="16" on="0"/>
        <pt x="350" y="-3" on="0"/>
        <pt x="343" y="-3" on="1"/>
        <pt x="120" y="0" on="1"/>
        <pt x="32" y="-3" on="1"/>
        <pt x="14" y="-3" on="0"/>
        <pt x="14" y="4" on="1"/>
        <pt x="14" y="9" on="0"/>
        <pt x="29" y="14" on="1"/>
        <pt x="81" y="23" on="0"/>
        <pt x="81" y="58" on="1"/>
        <pt x="81" y="336" on="1"/>
        <pt x="81" y="357" on="0"/>
        <pt x="67" y="369" on="0"/>
        <pt x="20" y="376" on="0"/>
        <pt x="20" y="385" on="1"/>
        <pt x="20" y="392" on="0"/>
        <pt x="39" y="392" on="1"/>
      </contour>
    </TTGlyph>
    <TTGlyph name="L.sups" xMin="14" yMin="437" xMax="370" yMax="832">
      <component glyphName="L.subs" x="0" y="440" flags="0x1004"/>
    </TTGlyph>
    <TTGlyph name="Lacute" xMin="27" yMin="-5" xMax="575" yMax="850">
      <component glyphName="acutecomb.cap" x="142" y="0" flags="0x1004"/>
      <component glyphName="L" x="0" y="0" flags="0x1204"/>
    </TTGlyph>
    <TTGlyph name="Lacute.sc" xMin="19" yMin="-2" xMax="432" yMax="679">
      <component glyphName="lacute.sc" x="0" y="0" flags="0x1004"/>
    </TTGlyph>
    <TTGlyph name="Lambda" xMin="-2" yMin="-5" xMax="697" yMax="670">
      <contour>
        <pt x="147" y="1" on="1"/>
        <pt x="27" y="-5" on="1"/>
        <pt x="-2" y="-5" on="0"/>
        <pt x="-2" y="20" on="0"/>
        <pt x="61" y="40" on="0"/>
        <pt x="103" y="73" on="0"/>
        <pt x="117" y="108" on="1"/>
        <pt x="304" y="578" on="1"/>
        <pt x="314" y="608" on="1"/>
        <pt x="315" y="613" on="0"/>
        <pt x="316" y="620" on="1"/>
        <pt x="317" y="636" on="0"/>
        <pt x="318" y="636" on="1"/>
        <pt x="325" y="638" on="0"/>
        <pt x="348" y="650" on="0"/>
        <pt x="356" y="654" on="0"/>
        <pt x="369" y="664" on="0"/>
        <pt x="376" y="670" on="0"/>
        <pt x="383" y="670" on="0"/>
        <pt x="388" y="656" on="1"/>
        <pt x="563" y="128" on="1"/>
        <pt x="581" y="73" on="0"/>
        <pt x="628" y="34" on="0"/>
        <pt x="697" y="22" on="0"/>
        <pt x="697" y="5" on="1"/>
        <pt x="697" y="-5" on="0"/>
        <pt x="668" y="-5" on="1"/>
        <pt x="529" y="1" on="1"/>
        <pt x="430" y="0" on="1"/>
        <pt x="401" y="0" on="0"/>
        <pt x="401" y="22" on="0"/>
        <pt x="463" y="38" on="0"/>
        <pt x="486" y="59" on="0"/>
        <pt x="486" y="87" on="0"/>
        <pt x="481" y="105" on="1"/>
        <pt x="350" y="541" on="1"/>
        <pt x="344" y="559" on="0"/>
        <pt x="339" y="559" on="0"/>
        <pt x="333" y="542" on="1"/>
        <pt x="178" y="102" on="1"/>
        <pt x="175" y="93" on="0"/>
        <pt x="175" y="86" on="1"/>
        <pt x="175" y="66" on="0"/>
        <pt x="209" y="36" on="0"/>
        <pt x="267" y="21" on="0"/>
        <pt x="267" y="-1" on="0"/>
        <pt x="238" y="-1" on="1"/>
      </contour>
    </TTGlyph>
    <TTGlyph name="Lcaron" xMin="27" yMin="-5" xMax="575" yMax="665">
      <contour>
        <pt x="453" y="488" on="0"/>
        <pt x="435" y="472" on="0"/>
        <pt x="425" y="472" on="0"/>
        <pt x="424" y="506" on="0"/>
        <pt x="428" y="542" on="0"/>
        <pt x="428" y="550" on="0"/>
        <pt x="424" y="598" on="0"/>
        <pt x="422" y="636" on="0"/>
        <pt x="462" y="664" on="0"/>
        <pt x="480" y="665" on="1"/>
        <pt x="496" y="665" on="0"/>
        <pt x="496" y="635" on="1"/>
        <pt x="496" y="626" on="0"/>
        <pt x="495" y="621" on="1"/>
        <pt x="486" y="556" on="0"/>
        <pt x="457" y="497" on="1"/>
      </contour>
      <contour>
        <pt x="177" y="650" on="1"/>
        <pt x="303" y="653" on="1"/>
        <pt x="332" y="653" on="0"/>
        <pt x="332" y="642" on="1"/>
        <pt x="332" y="628" on="0"/>
        <pt x="275" y="618" on="0"/>
        <pt x="251" y="612" on="0"/>
        <pt x="236" y="606" on="1"/>
        <pt x="210" y="595" on="0"/>
        <pt x="210" y="567" on="1"/>
        <pt x="210" y="96" on="1"/>
        <pt x="210" y="63" on="0"/>
        <pt x="240" y="35" on="0"/>
        <pt x="287" y="35" on="1"/>
        <pt x="433" y="35" on="1"/>
        <pt x="439" y="35" on="0"/>
        <pt x="458" y="43" on="1"/>
        <pt x="510" y="65" on="0"/>
        <pt x="541" y="132" on="1"/>
        <pt x="552" y="162" on="0"/>
        <pt x="575" y="162" on="0"/>
        <pt x="575" y="144" on="1"/>
        <pt x="574" y="143" on="0"/>
        <pt x="574" y="141" on="1"/>
        <pt x="574" y="139" on="1"/>
        <pt x="551" y="53" on="0"/>
        <pt x="547" y="12" on="1"/>
        <pt x="545" y="-5" on="0"/>
        <pt x="533" y="-5" on="1"/>
        <pt x="190" y="0" on="1"/>
        <pt x="55" y="-5" on="1"/>
        <pt x="27" y="-5" on="0"/>
        <pt x="27" y="18" on="0"/>
        <pt x="49" y="24" on="1"/>
        <pt x="90" y="32" on="0"/>
        <pt x="130" y="64" on="0"/>
        <pt x="130" y="96" on="1"/>
        <pt x="130" y="560" on="1"/>
        <pt x="130" y="595" on="0"/>
        <pt x="108" y="615" on="0"/>
        <pt x="36" y="628" on="0"/>
        <pt x="36" y="642" on="1"/>
        <pt x="36" y="653" on="0"/>
        <pt x="65" y="653" on="1"/>
      </contour>
    </TTGlyph>
    <TTGlyph name="Lcaron.sc" xMin="19" yMin="-2" xMax="432" yMax="465">
      <component glyphName="lcaron.sc" x="0" y="0" flags="0x1004"/>
    </TTGlyph>
    <TTGlyph name="Lcommaaccent" xMin="27" yMin="-275" xMax="575" yMax="653">
      <component glyphName="uni0326" x="208" y="0" flags="0x1004"/>
      <component glyphName="L" x="0" y="0" flags="0x1204"/>
    </TTGlyph>
    <TTGlyph name="Lcommaaccent.sc" xMin="19" yMin="-279" xMax="432" yMax="453">
      <component glyphName="lcommaaccent.sc" x="0" y="0" flags="0x1004"/>
    </TTGlyph>
    <TTGlyph name="Ldot" xMin="27" yMin="-5" xMax="575" yMax="653">
      <contour>
        <pt x="380" y="414" on="0"/>
        <pt x="424" y="414" on="0"/>
        <pt x="452" y="386" on="0"/>
        <pt x="452" y="342" on="0"/>
        <pt x="424" y="314" on="0"/>
        <pt x="380" y="314" on="0"/>
        <pt x="352" y="342" on="0"/>
        <pt x="352" y="386" on="0"/>
      </contour>
      <contour>
        <pt x="177" y="650" on="1"/>
        <pt x="303" y="653" on="1"/>
        <pt x="332" y="653" on="0"/>
        <pt x="332" y="642" on="1"/>
        <pt x="332" y="628" on="0"/>
        <pt x="275" y="618" on="0"/>
        <pt x="251" y="612" on="0"/>
        <pt x="236" y="606" on="1"/>
        <pt x="210" y="595" on="0"/>
        <pt x="210" y="567" on="1"/>
        <pt x="210" y="96" on="1"/>
        <pt x="210" y="63" on="0"/>
        <pt x="240" y="35" on="0"/>
        <pt x="287" y="35" on="1"/>
        <pt x="433" y="35" on="1"/>
        <pt x="439" y="35" on="0"/>
        <pt x="458" y="43" on="1"/>
        <pt x="510" y="65" on="0"/>
        <pt x="541" y="132" on="1"/>
        <pt x="552" y="162" on="0"/>
        <pt x="575" y="162" on="0"/>
        <pt x="575" y="144" on="1"/>
        <pt x="574" y="143" on="0"/>
        <pt x="574" y="141" on="1"/>
        <pt x="574" y="139" on="1"/>
        <pt x="551" y="53" on="0"/>
        <pt x="547" y="12" on="1"/>
        <pt x="545" y="-5" on="0"/>
        <pt x="533" y="-5" on="1"/>
        <pt x="190" y="0" on="1"/>
        <pt x="55" y="-5" on="1"/>
        <pt x="27" y="-5" on="0"/>
        <pt x="27" y="18" on="0"/>
        <pt x="49" y="24" on="1"/>
        <pt x="90" y="32" on="0"/>
        <pt x="130" y="64" on="0"/>
        <pt x="130" y="96" on="1"/>
        <pt x="130" y="560" on="1"/>
        <pt x="130" y="595" on="0"/>
        <pt x="108" y="615" on="0"/>
        <pt x="36" y="628" on="0"/>
        <pt x="36" y="642" on="1"/>
        <pt x="36" y="653" on="0"/>
        <pt x="65" y="653" on="1"/>
      </contour>
    </TTGlyph>
    <TTGlyph name="Ldot.sc" xMin="19" yMin="-2" xMax="432" yMax="453">
      <component glyphName="ldot.sc" x="0" y="0" flags="0x1004"/>
    </TTGlyph>
    <TTGlyph name="Lslash" xMin="22" yMin="-5" xMax="570" yMax="653">
      <contour>
        <pt x="172" y="650" on="1"/>
        <pt x="298" y="653" on="1"/>
        <pt x="327" y="653" on="0"/>
        <pt x="327" y="642" on="1"/>
        <pt x="327" y="628" on="0"/>
        <pt x="270" y="618" on="0"/>
        <pt x="246" y="612" on="0"/>
        <pt x="232" y="606" on="1"/>
        <pt x="205" y="595" on="0"/>
        <pt x="205" y="567" on="1"/>
        <pt x="205" y="352" on="1"/>
        <pt x="375" y="415" on="1"/>
        <pt x="380" y="418" on="0"/>
        <pt x="393" y="414" on="0"/>
        <pt x="393" y="409" on="1"/>
        <pt x="393" y="378" on="0"/>
        <pt x="375" y="372" on="1"/>
        <pt x="205" y="310" on="1"/>
        <pt x="205" y="96" on="1"/>
        <pt x="205" y="63" on="0"/>
        <pt x="235" y="35" on="0"/>
        <pt x="282" y="35" on="1"/>
        <pt x="428" y="35" on="1"/>
        <pt x="434" y="35" on="0"/>
        <pt x="453" y="43" on="1"/>
        <pt x="505" y="65" on="0"/>
        <pt x="536" y="132" on="1"/>
        <pt x="547" y="162" on="0"/>
        <pt x="570" y="162" on="0"/>
        <pt x="570" y="144" on="1"/>
        <pt x="570" y="141" on="1"/>
        <pt x="569" y="139" on="1"/>
        <pt x="546" y="53" on="0"/>
        <pt x="542" y="12" on="1"/>
        <pt x="540" y="-5" on="0"/>
        <pt x="528" y="-5" on="1"/>
        <pt x="185" y="0" on="1"/>
        <pt x="50" y="-5" on="1"/>
        <pt x="22" y="-5" on="0"/>
        <pt x="22" y="18" on="0"/>
        <pt x="44" y="24" on="1"/>
        <pt x="85" y="32" on="0"/>
        <pt x="125" y="64" on="0"/>
        <pt x="125" y="96" on="1"/>
        <pt x="125" y="281" on="1"/>
        <pt x="60" y="257" on="1"/>
        <pt x="54" y="254" on="0"/>
        <pt x="39" y="257" on="0"/>
        <pt x="39" y="263" on="1"/>
        <pt x="39" y="291" on="0"/>
        <pt x="53" y="296" on="1"/>
        <pt x="125" y="322" on="1"/>
        <pt x="125" y="560" on="1"/>
        <pt x="125" y="595" on="0"/>
        <pt x="103" y="615" on="0"/>
        <pt x="31" y="628" on="0"/>
        <pt x="31" y="642" on="1"/>
        <pt x="31" y="653" on="0"/>
        <pt x="60" y="653" on="1"/>
      </contour>
    </TTGlyph>
    <TTGlyph name="Lslash.sc" xMin="18" yMin="-2" xMax="432" yMax="453">
      <component glyphName="lslash.sc" x="0" y="0" flags="0x1004"/>
    </TTGlyph>
    <TTGlyph name="M" xMin="19" yMin="-10" xMax="865" yMax="656">
      <contour>
        <pt x="65" y="655" on="1"/>
        <pt x="231" y="647" on="1"/>
        <pt x="244" y="647" on="0"/>
        <pt x="258" y="588" on="1"/>
        <pt x="264" y="562" on="0"/>
        <pt x="267" y="554" on="1"/>
        <pt x="425" y="153" on="1"/>
        <pt x="431" y="138" on="0"/>
        <pt x="442" y="138" on="0"/>
        <pt x="448" y="150" on="1"/>
        <pt x="645" y="560" on="1"/>
        <pt x="651" y="573" on="0"/>
        <pt x="655" y="596" on="1"/>
        <pt x="664" y="648" on="0"/>
        <pt x="673" y="648" on="1"/>
        <pt x="709" y="648" on="1"/>
        <pt x="733" y="648" on="0"/>
        <pt x="813" y="656" on="0"/>
        <pt x="820" y="656" on="1"/>
        <pt x="823" y="656" on="1"/>
        <pt x="844" y="656" on="0"/>
        <pt x="844" y="646" on="1"/>
        <pt x="844" y="632" on="0"/>
        <pt x="792" y="615" on="0"/>
        <pt x="767" y="607" on="0"/>
        <pt x="735" y="583" on="0"/>
        <pt x="735" y="568" on="1"/>
        <pt x="735" y="433" on="0"/>
        <pt x="755" y="136" on="0"/>
        <pt x="758" y="64" on="0"/>
        <pt x="794" y="31" on="0"/>
        <pt x="865" y="18" on="0"/>
        <pt x="865" y="-5" on="0"/>
        <pt x="836" y="-5" on="1"/>
        <pt x="719" y="0" on="1"/>
        <pt x="614" y="-5" on="1"/>
        <pt x="585" y="-5" on="0"/>
        <pt x="585" y="6" on="1"/>
        <pt x="585" y="20" on="0"/>
        <pt x="647" y="28" on="0"/>
        <pt x="669" y="60" on="0"/>
        <pt x="669" y="96" on="1"/>
        <pt x="669" y="194" on="0"/>
        <pt x="657" y="464" on="1"/>
        <pt x="657" y="480" on="0"/>
        <pt x="652" y="480" on="1"/>
        <pt x="649" y="480" on="0"/>
        <pt x="641" y="464" on="1"/>
        <pt x="419" y="14" on="1"/>
        <pt x="408" y="-10" on="0"/>
        <pt x="397" y="-10" on="0"/>
        <pt x="388" y="16" on="1"/>
        <pt x="332" y="184" on="0"/>
        <pt x="209" y="471" on="1"/>
        <pt x="199" y="494" on="0"/>
        <pt x="196" y="471" on="1"/>
        <pt x="164" y="234" on="0"/>
        <pt x="164" y="102" on="1"/>
        <pt x="164" y="78" on="0"/>
        <pt x="196" y="30" on="0"/>
        <pt x="262" y="18" on="0"/>
        <pt x="262" y="-5" on="0"/>
        <pt x="233" y="-5" on="1"/>
        <pt x="139" y="0" on="1"/>
        <pt x="48" y="-5" on="1"/>
        <pt x="19" y="-5" on="0"/>
        <pt x="19" y="18" on="0"/>
        <pt x="52" y="24" on="1"/>
        <pt x="103" y="33" on="0"/>
        <pt x="114" y="102" on="1"/>
        <pt x="155" y="409" on="0"/>
        <pt x="155" y="538" on="1"/>
        <pt x="154" y="561" on="1"/>
        <pt x="154" y="575" on="0"/>
        <pt x="133" y="600" on="0"/>
        <pt x="118" y="610" on="0"/>
        <pt x="97" y="617" on="0"/>
        <pt x="83" y="621" on="0"/>
        <pt x="59" y="626" on="0"/>
        <pt x="56" y="627" on="1"/>
        <pt x="42" y="632" on="0"/>
        <pt x="42" y="655" on="0"/>
      </contour>
    </TTGlyph>
    <TTGlyph name="M.ordn" xMin="3" yMin="269" xMax="543" yMax="673">
      <component glyphName="M.subs" x="0" y="280" flags="0x1004"/>
    </TTGlyph>
    <TTGlyph name="M.sc" xMin="49" yMin="-17" xMax="688" yMax="456">
      <component glyphName="m.sc" x="0" y="0" flags="0x1004"/>
    </TTGlyph>
    <TTGlyph name="M.sinf" xMin="3" yMin="-155" xMax="543" yMax="249">
      <component glyphName="M.subs" x="0" y="-144" flags="0x1004"/>
    </TTGlyph>
    <TTGlyph name="M.subs" xMin="3" yMin="-11" xMax="543" yMax="393">
      <contour>
        <pt x="105" y="298" on="1"/>
        <pt x="99" y="305" on="0"/>
        <pt x="98" y="293" on="1"/>
        <pt x="98" y="62" on="1"/>
        <pt x="98" y="29" on="0"/>
        <pt x="140" y="22" on="1"/>
        <pt x="161" y="19" on="0"/>
        <pt x="161" y="8" on="1"/>
        <pt x="161" y="0" on="0"/>
        <pt x="142" y="0" on="1"/>
        <pt x="22" y="0" on="1"/>
        <pt x="3" y="0" on="0"/>
        <pt x="3" y="8" on="1"/>
        <pt x="3" y="19" on="0"/>
        <pt x="46" y="25" on="0"/>
        <pt x="65" y="51" on="0"/>
        <pt x="65" y="61" on="1"/>
        <pt x="65" y="318" on="1"/>
        <pt x="65" y="339" on="0"/>
        <pt x="43" y="362" on="0"/>
        <pt x="13" y="370" on="1"/>
        <pt x="4" y="372" on="0"/>
        <pt x="4" y="384" on="1"/>
        <pt x="4" y="393" on="0"/>
        <pt x="19" y="393" on="1"/>
        <pt x="121" y="393" on="1"/>
        <pt x="130" y="393" on="0"/>
        <pt x="158" y="332" on="1"/>
        <pt x="261" y="121" on="1"/>
        <pt x="268" y="105" on="0"/>
        <pt x="276" y="119" on="1"/>
        <pt x="394" y="355" on="1"/>
        <pt x="396" y="358" on="0"/>
        <pt x="401" y="368" on="0"/>
        <pt x="405" y="374" on="0"/>
        <pt x="410" y="382" on="0"/>
        <pt x="413" y="386" on="0"/>
        <pt x="416" y="388" on="1"/>
        <pt x="420" y="393" on="0"/>
        <pt x="424" y="393" on="1"/>
        <pt x="520" y="393" on="1"/>
        <pt x="536" y="393" on="0"/>
        <pt x="536" y="384" on="1"/>
        <pt x="536" y="379" on="0"/>
        <pt x="523" y="370" on="0"/>
        <pt x="516" y="368" on="0"/>
        <pt x="503" y="365" on="0"/>
        <pt x="497" y="363" on="0"/>
        <pt x="487" y="360" on="0"/>
        <pt x="481" y="356" on="0"/>
        <pt x="478" y="354" on="1"/>
        <pt x="473" y="349" on="0"/>
        <pt x="473" y="341" on="1"/>
        <pt x="473" y="57" on="1"/>
        <pt x="473" y="40" on="0"/>
        <pt x="495" y="26" on="0"/>
        <pt x="543" y="19" on="0"/>
        <pt x="543" y="8" on="1"/>
        <pt x="543" y="0" on="0"/>
        <pt x="524" y="0" on="1"/>
        <pt x="373" y="0" on="1"/>
        <pt x="354" y="0" on="0"/>
        <pt x="354" y="8" on="1"/>
        <pt x="354" y="19" on="0"/>
        <pt x="396" y="24" on="0"/>
        <pt x="409" y="38" on="0"/>
        <pt x="409" y="58" on="1"/>
        <pt x="409" y="304" on="1"/>
        <pt x="409" y="313" on="0"/>
        <pt x="403" y="313" on="0"/>
        <pt x="399" y="304" on="1"/>
        <pt x="250" y="-11" on="1"/>
        <pt x="247" y="-5" on="0"/>
        <pt x="223" y="48" on="1"/>
        <pt x="146" y="217" on="0"/>
      </contour>
    </TTGlyph>
    <TTGlyph name="M.sups" xMin="3" yMin="429" xMax="543" yMax="833">
      <component glyphName="M.subs" x="0" y="440" flags="0x1004"/>
    </TTGlyph>
    <TTGlyph name="Mu" xMin="19" yMin="-10" xMax="865" yMax="656">
      <component glyphName="M" x="0" y="0" flags="0x1204"/>
    </TTGlyph>
    <TTGlyph name="N" xMin="2" yMin="-17" xMax="760" yMax="658">
      <contour>
        <pt x="25" y="658" on="1"/>
        <pt x="179" y="653" on="1"/>
        <pt x="190" y="653" on="0"/>
        <pt x="216" y="618" on="0"/>
        <pt x="565" y="179" on="0"/>
        <pt x="601" y="136" on="0"/>
        <pt x="618" y="136" on="0"/>
        <pt x="619" y="157" on="1"/>
        <pt x="621" y="221" on="0"/>
        <pt x="621" y="477" on="1"/>
        <pt x="621" y="564" on="1"/>
        <pt x="620" y="582" on="0"/>
        <pt x="581" y="616" on="0"/>
        <pt x="530" y="625" on="0"/>
        <pt x="530" y="639" on="1"/>
        <pt x="530" y="650" on="0"/>
        <pt x="559" y="650" on="1"/>
        <pt x="616" y="650" on="1"/>
        <pt x="731" y="653" on="1"/>
        <pt x="760" y="653" on="0"/>
        <pt x="760" y="642" on="1"/>
        <pt x="760" y="628" on="0"/>
        <pt x="690" y="615" on="0"/>
        <pt x="665" y="593" on="0"/>
        <pt x="662" y="520" on="0"/>
        <pt x="662" y="8" on="1"/>
        <pt x="662" y="-17" on="0"/>
        <pt x="641" y="-17" on="1"/>
        <pt x="630" y="-17" on="0"/>
        <pt x="582" y="16" on="0"/>
        <pt x="533" y="83" on="0"/>
        <pt x="204" y="484" on="1"/>
        <pt x="191" y="500" on="0"/>
        <pt x="174" y="500" on="0"/>
        <pt x="174" y="479" on="1"/>
        <pt x="169" y="231" on="0"/>
        <pt x="169" y="104" on="1"/>
        <pt x="169" y="36" on="0"/>
        <pt x="233" y="24" on="1"/>
        <pt x="266" y="18" on="0"/>
        <pt x="266" y="-5" on="0"/>
        <pt x="237" y="-5" on="1"/>
        <pt x="143" y="0" on="1"/>
        <pt x="52" y="-5" on="1"/>
        <pt x="23" y="-5" on="0"/>
        <pt x="23" y="18" on="0"/>
        <pt x="80" y="28" on="0"/>
        <pt x="111" y="87" on="0"/>
        <pt x="114" y="107" on="1"/>
        <pt x="132" y="257" on="0"/>
        <pt x="132" y="507" on="1"/>
        <pt x="132" y="556" on="0"/>
        <pt x="83" y="604" on="0"/>
        <pt x="2" y="630" on="0"/>
        <pt x="2" y="658" on="0"/>
      </contour>
    </TTGlyph>
    <TTGlyph name="N.ordn" xMin="8" yMin="269" xMax="500" yMax="675">
      <component glyphName="N.subs" x="0" y="280" flags="0x1004"/>
    </TTGlyph>
    <TTGlyph name="N.sc" xMin="52" yMin="-14" xMax="610" yMax="449">
      <component glyphName="n.sc" x="0" y="0" flags="0x1004"/>
    </TTGlyph>
    <TTGlyph name="N.sinf" xMin="8" yMin="-155" xMax="500" yMax="251">
      <component glyphName="N.subs" x="0" y="-144" flags="0x1004"/>
    </TTGlyph>
    <TTGlyph name="N.subs" xMin="8" yMin="-11" xMax="500" yMax="395">
      <contour>
        <pt x="23" y="395" on="1"/>
        <pt x="123" y="392" on="1"/>
        <pt x="128" y="392" on="0"/>
        <pt x="138" y="382" on="1"/>
        <pt x="176" y="339" on="0"/>
        <pt x="330" y="155" on="0"/>
        <pt x="386" y="94" on="1"/>
        <pt x="398" y="82" on="0"/>
        <pt x="403" y="82" on="0"/>
        <pt x="403" y="94" on="1"/>
        <pt x="403" y="277" on="0"/>
        <pt x="401" y="337" on="1"/>
        <pt x="400" y="349" on="0"/>
        <pt x="383" y="369" on="0"/>
        <pt x="351" y="374" on="0"/>
        <pt x="351" y="383" on="1"/>
        <pt x="351" y="390" on="0"/>
        <pt x="370" y="390" on="1"/>
        <pt x="482" y="392" on="1"/>
        <pt x="500" y="392" on="0"/>
        <pt x="500" y="385" on="1"/>
        <pt x="500" y="376" on="0"/>
        <pt x="455" y="369" on="0"/>
        <pt x="437" y="356" on="0"/>
        <pt x="437" y="341" on="1"/>
        <pt x="434" y="180" on="0"/>
        <pt x="434" y="74" on="1"/>
        <pt x="434" y="8" on="1"/>
        <pt x="434" y="-11" on="0"/>
        <pt x="420" y="-11" on="1"/>
        <pt x="400" y="-11" on="0"/>
        <pt x="360" y="37" on="0"/>
        <pt x="284" y="126" on="0"/>
        <pt x="264" y="150" on="1"/>
        <pt x="206" y="217" on="0"/>
        <pt x="140" y="287" on="1"/>
        <pt x="130" y="298" on="0"/>
        <pt x="117" y="298" on="0"/>
        <pt x="117" y="287" on="1"/>
        <pt x="110" y="112" on="0"/>
        <pt x="110" y="79" on="1"/>
        <pt x="110" y="59" on="1"/>
        <pt x="112" y="20" on="0"/>
        <pt x="149" y="14" on="1"/>
        <pt x="170" y="11" on="0"/>
        <pt x="170" y="-3" on="0"/>
        <pt x="151" y="-3" on="1"/>
        <pt x="90" y="0" on="1"/>
        <pt x="31" y="-3" on="1"/>
        <pt x="12" y="-3" on="0"/>
        <pt x="12" y="11" on="0"/>
        <pt x="34" y="14" on="1"/>
        <pt x="67" y="19" on="0"/>
        <pt x="73" y="65" on="1"/>
        <pt x="87" y="177" on="0"/>
        <pt x="87" y="307" on="1"/>
        <pt x="87" y="356" on="0"/>
        <pt x="28" y="372" on="1"/>
        <pt x="8" y="377" on="0"/>
        <pt x="8" y="395" on="0"/>
      </contour>
    </TTGlyph>
    <TTGlyph name="N.sups" xMin="8" yMin="429" xMax="500" yMax="835">
      <component glyphName="N.subs" x="0" y="440" flags="0x1004"/>
    </TTGlyph>
    <TTGlyph name="Nacute" xMin="2" yMin="-17" xMax="760" yMax="850">
      <component glyphName="acutecomb.cap" x="367" y="0" flags="0x1004"/>
      <component glyphName="N" x="0" y="0" flags="0x1204"/>
    </TTGlyph>
    <TTGlyph name="Nacute.PLK" xMin="2" yMin="-17" xMax="760" yMax="843">
      <component glyphName="acute.PLKcap" x="601" y="0" flags="0x1004"/>
      <component glyphName="N" x="0" y="0" flags="0x1004"/>
    </TTGlyph>
    <TTGlyph name="Nacute.sc" xMin="52" yMin="-14" xMax="610" yMax="679">
      <component glyphName="nacute.sc" x="0" y="0" flags="0x1004"/>
    </TTGlyph>
    <TTGlyph name="NameMe.2324" xMin="4" yMin="447" xMax="303" yMax="713">
      <component glyphName="acutecomb.stack" x="184" y="104" flags="0x1004"/>
      <component glyphName="uni0302.stack" x="-1" y="0" flags="0x1004"/>
    </TTGlyph>
    <TTGlyph name="NameMe.2325" xMin="35" yMin="-14" xMax="398" yMax="714">
      <component glyphName="NameMe.2324" x="79" y="1" flags="0x1004"/>
      <component glyphName="a" x="0" y="0" flags="0x1004"/>
    </TTGlyph>
    <TTGlyph name="NameMe.2326" xMin="35" yMin="-14" xMax="398" yMax="719">
      <component glyphName="acutecomb.stack" x="158" y="110" flags="0x1004"/>
      <component glyphName="uni0306.stack" x="27" y="0" flags="0x1004"/>
      <component glyphName="a" x="0" y="0" flags="0x1004"/>
    </TTGlyph>
    <TTGlyph name="Ncaron" xMin="2" yMin="-17" xMax="760" yMax="833">
      <component glyphName="uni030C.cap" x="260" y="20" flags="0x1004"/>
      <component glyphName="N" x="0" y="0" flags="0x1204"/>
    </TTGlyph>
    <TTGlyph name="Ncaron.sc" xMin="52" yMin="-14" xMax="610" yMax="687">
      <component glyphName="ncaron.sc" x="0" y="0" flags="0x1004"/>
    </TTGlyph>
    <TTGlyph name="Ncommaaccent" xMin="2" yMin="-275" xMax="760" yMax="658">
      <component glyphName="uni0326" x="299" y="0" flags="0x1004"/>
      <component glyphName="N" x="0" y="0" flags="0x1204"/>
    </TTGlyph>
    <TTGlyph name="Ncommaaccent.sc" xMin="52" yMin="-278" xMax="610" yMax="449">
      <component glyphName="ncommaaccent.sc" x="0" y="0" flags="0x1004"/>
    </TTGlyph>
    <TTGlyph name="Ntilde" xMin="2" yMin="-17" xMax="760" yMax="829">
      <component glyphName="tildecomb.cap" x="268" y="7" flags="0x1004"/>
      <component glyphName="N" x="0" y="0" flags="0x1204"/>
    </TTGlyph>
    <TTGlyph name="Ntilde.sc" xMin="52" yMin="-14" xMax="610" yMax="630">
      <component glyphName="ntilde.sc" x="0" y="0" flags="0x1004"/>
    </TTGlyph>
    <TTGlyph name="Nu" xMin="2" yMin="-17" xMax="760" yMax="658">
      <component glyphName="N" x="0" y="0" flags="0x1204"/>
    </TTGlyph>
    <TTGlyph name="O" xMin="45" yMin="-14" xMax="718" yMax="664">
      <contour>
        <pt x="621" y="451" on="0"/>
        <pt x="493" y="625" on="0"/>
        <pt x="269" y="625" on="0"/>
        <pt x="142" y="461" on="0"/>
        <pt x="142" y="218" on="0"/>
        <pt x="287" y="25" on="0"/>
        <pt x="505" y="25" on="0"/>
        <pt x="621" y="174" on="0"/>
      </contour>
      <contour>
        <pt x="45" y="320" on="1"/>
        <pt x="45" y="413" on="0"/>
        <pt x="122" y="566" on="0"/>
        <pt x="282" y="664" on="0"/>
        <pt x="390" y="664" on="1"/>
        <pt x="524" y="664" on="0"/>
        <pt x="718" y="479" on="0"/>
        <pt x="718" y="335" on="1"/>
        <pt x="718" y="194" on="0"/>
        <pt x="632" y="93" on="1"/>
        <pt x="591" y="44" on="0"/>
        <pt x="461" y="-14" on="0"/>
        <pt x="382" y="-14" on="1"/>
        <pt x="247" y="-14" on="0"/>
        <pt x="45" y="180" on="0"/>
      </contour>
    </TTGlyph>
    <TTGlyph name="O.ordn" xMin="32" yMin="272" xMax="473" yMax="678">
      <component glyphName="O.subs" x="0" y="280" flags="0x1004"/>
    </TTGlyph>
    <TTGlyph name="O.sc" xMin="66" yMin="-15" xMax="552" yMax="456">
      <component glyphName="o.sc" x="0" y="0" flags="0x1004"/>
    </TTGlyph>
    <TTGlyph name="O.sinf" xMin="32" yMin="-152" xMax="473" yMax="254">
      <component glyphName="O.subs" x="0" y="-144" flags="0x1004"/>
    </TTGlyph>
    <TTGlyph name="O.subs" xMin="32" yMin="-8" xMax="473" yMax="398">
      <contour>
        <pt x="403" y="257" on="0"/>
        <pt x="320" y="375" on="0"/>
        <pt x="179" y="375" on="0"/>
        <pt x="105" y="278" on="0"/>
        <pt x="105" y="130" on="0"/>
        <pt x="190" y="16" on="0"/>
        <pt x="260" y="15" on="1"/>
        <pt x="262" y="15" on="1"/>
        <pt x="328" y="15" on="0"/>
        <pt x="403" y="117" on="0"/>
      </contour>
      <contour>
        <pt x="164" y="-8" on="0"/>
        <pt x="32" y="108" on="0"/>
        <pt x="32" y="277" on="0"/>
        <pt x="150" y="396" on="0"/>
        <pt x="252" y="398" on="1"/>
        <pt x="256" y="398" on="1"/>
        <pt x="345" y="398" on="0"/>
        <pt x="473" y="288" on="0"/>
        <pt x="473" y="115" on="0"/>
        <pt x="354" y="-8" on="0"/>
      </contour>
    </TTGlyph>
    <TTGlyph name="O.sups" xMin="32" yMin="432" xMax="473" yMax="838">
      <component glyphName="O.subs" x="0" y="440" flags="0x1004"/>
    </TTGlyph>
    <TTGlyph name="OE" xMin="45" yMin="-14" xMax="923" yMax="664">
      <contour>
        <pt x="892" y="-5" on="1"/>
        <pt x="573" y="1" on="1"/>
        <pt x="535" y="1" on="0"/>
        <pt x="480" y="-4" on="0"/>
        <pt x="473" y="-4" on="1"/>
        <pt x="466" y="-5" on="1"/>
        <pt x="427" y="-14" on="0"/>
        <pt x="382" y="-14" on="1"/>
        <pt x="247" y="-14" on="0"/>
        <pt x="45" y="180" on="0"/>
        <pt x="45" y="320" on="1"/>
        <pt x="45" y="413" on="0"/>
        <pt x="122" y="566" on="0"/>
        <pt x="282" y="664" on="0"/>
        <pt x="390" y="664" on="1"/>
        <pt x="433" y="664" on="0"/>
        <pt x="481" y="652" on="1"/>
        <pt x="493" y="649" on="0"/>
        <pt x="564" y="649" on="1"/>
        <pt x="856" y="653" on="1"/>
        <pt x="873" y="653" on="0"/>
        <pt x="874" y="644" on="1"/>
        <pt x="889" y="563" on="0"/>
        <pt x="889" y="526" on="0"/>
        <pt x="875" y="526" on="1"/>
        <pt x="867" y="526" on="0"/>
        <pt x="864" y="536" on="1"/>
        <pt x="849" y="583" on="0"/>
        <pt x="842" y="591" on="1"/>
        <pt x="818" y="618" on="0"/>
        <pt x="775" y="618" on="1"/>
        <pt x="644" y="618" on="1"/>
        <pt x="634" y="618" on="0"/>
        <pt x="608" y="599" on="0"/>
        <pt x="608" y="586" on="1"/>
        <pt x="608" y="374" on="1"/>
        <pt x="608" y="365" on="0"/>
        <pt x="619" y="352" on="0"/>
        <pt x="626" y="352" on="1"/>
        <pt x="722" y="352" on="1"/>
        <pt x="766" y="352" on="0"/>
        <pt x="783" y="391" on="1"/>
        <pt x="785" y="395" on="0"/>
        <pt x="798" y="408" on="0"/>
        <pt x="805" y="408" on="0"/>
        <pt x="814" y="399" on="0"/>
        <pt x="814" y="392" on="1"/>
        <pt x="811" y="337" on="1"/>
        <pt x="813" y="269" on="1"/>
        <pt x="813" y="252" on="0"/>
        <pt x="804" y="252" on="1"/>
        <pt x="788" y="252" on="0"/>
        <pt x="781" y="275" on="1"/>
        <pt x="766" y="320" on="0"/>
        <pt x="735" y="320" on="1"/>
        <pt x="642" y="320" on="1"/>
        <pt x="623" y="320" on="0"/>
        <pt x="608" y="310" on="0"/>
        <pt x="608" y="294" on="1"/>
        <pt x="608" y="102" on="1"/>
        <pt x="608" y="65" on="0"/>
        <pt x="639" y="35" on="0"/>
        <pt x="674" y="35" on="1"/>
        <pt x="778" y="35" on="1"/>
        <pt x="831" y="35" on="0"/>
        <pt x="873" y="68" on="0"/>
        <pt x="896" y="116" on="1"/>
        <pt x="902" y="127" on="0"/>
        <pt x="923" y="124" on="0"/>
        <pt x="923" y="115" on="1"/>
        <pt x="923" y="75" on="0"/>
        <pt x="906" y="12" on="1"/>
        <pt x="902" y="-5" on="0"/>
      </contour>
      <contour>
        <pt x="529" y="364" on="1"/>
        <pt x="528" y="477" on="1"/>
        <pt x="528" y="540" on="1"/>
        <pt x="518" y="625" on="0"/>
        <pt x="375" y="625" on="1"/>
        <pt x="269" y="625" on="0"/>
        <pt x="142" y="461" on="0"/>
        <pt x="142" y="218" on="0"/>
        <pt x="287" y="25" on="0"/>
        <pt x="395" y="25" on="1"/>
        <pt x="500" y="25" on="0"/>
        <pt x="518" y="49" on="1"/>
        <pt x="528" y="61" on="0"/>
        <pt x="528" y="80" on="1"/>
        <pt x="528" y="81" on="1"/>
        <pt x="529" y="322" on="1"/>
      </contour>
    </TTGlyph>
    <TTGlyph name="OE.sc" xMin="66" yMin="-15" xMax="552" yMax="456">
      <component glyphName="oe.sc" x="0" y="0" flags="0x1004"/>
    </TTGlyph>
    <TTGlyph name="Oacute" xMin="45" yMin="-14" xMax="718" yMax="850">
      <component glyphName="acutecomb.cap" x="339" y="0" flags="0x1004"/>
      <component glyphName="O" x="0" y="0" flags="0x1204"/>
    </TTGlyph>
    <TTGlyph name="Oacute.PLK" xMin="45" yMin="-14" xMax="718" yMax="843">
      <component glyphName="acute.PLKcap" x="575" y="0" flags="0x1004"/>
      <component glyphName="O" x="0" y="0" flags="0x1004"/>
    </TTGlyph>
    <TTGlyph name="Oacute.sc" xMin="66" yMin="-15" xMax="552" yMax="679">
      <component glyphName="oacute.sc" x="0" y="0" flags="0x1004"/>
    </TTGlyph>
    <TTGlyph name="Obreve" xMin="45" yMin="-14" xMax="718" yMax="846">
      <component glyphName="uni0306.cap" x="228" y="0" flags="0x1004"/>
      <component glyphName="O" x="0" y="0" flags="0x1204"/>
    </TTGlyph>
    <TTGlyph name="Obreve.sc" xMin="66" yMin="-15" xMax="552" yMax="638">
      <component glyphName="obreve.sc" x="0" y="0" flags="0x1004"/>
    </TTGlyph>
    <TTGlyph name="Ocircumflex" xMin="45" yMin="-14" xMax="718" yMax="833">
      <component glyphName="uni0302.cap" x="232" y="20" flags="0x1004"/>
      <component glyphName="O" x="0" y="0" flags="0x1204"/>
    </TTGlyph>
    <TTGlyph name="Ocircumflex.sc" xMin="66" yMin="-15" xMax="552" yMax="678">
      <component glyphName="ocircumflex.sc" x="0" y="0" flags="0x1004"/>
    </TTGlyph>
    <TTGlyph name="Odieresis" xMin="45" yMin="-14" xMax="718" yMax="801">
      <component glyphName="uni0308.cap" x="230" y="1" flags="0x1004"/>
      <component glyphName="O" x="0" y="0" flags="0x1204"/>
    </TTGlyph>
    <TTGlyph name="Odieresis.deu" xMin="45" yMin="-14" xMax="718" yMax="710">
      <contour>
        <pt x="646" y="710" on="0"/>
        <pt x="682" y="710" on="0"/>
        <pt x="714" y="678" on="0"/>
        <pt x="714" y="642" on="0"/>
        <pt x="682" y="610" on="0"/>
        <pt x="646" y="610" on="0"/>
        <pt x="614" y="642" on="0"/>
        <pt x="614" y="678" on="0"/>
      </contour>
      <contour>
        <pt x="92" y="710" on="0"/>
        <pt x="128" y="710" on="0"/>
        <pt x="160" y="678" on="0"/>
        <pt x="160" y="642" on="0"/>
        <pt x="128" y="610" on="0"/>
        <pt x="92" y="610" on="0"/>
        <pt x="60" y="642" on="0"/>
        <pt x="60" y="678" on="0"/>
      </contour>
      <contour>
        <pt x="621" y="451" on="0"/>
        <pt x="493" y="625" on="0"/>
        <pt x="269" y="625" on="0"/>
        <pt x="142" y="461" on="0"/>
        <pt x="142" y="218" on="0"/>
        <pt x="287" y="25" on="0"/>
        <pt x="505" y="25" on="0"/>
        <pt x="621" y="174" on="0"/>
      </contour>
      <contour>
        <pt x="45" y="320" on="1"/>
        <pt x="45" y="413" on="0"/>
        <pt x="122" y="566" on="0"/>
        <pt x="282" y="664" on="0"/>
        <pt x="390" y="664" on="1"/>
        <pt x="524" y="664" on="0"/>
        <pt x="718" y="479" on="0"/>
        <pt x="718" y="335" on="1"/>
        <pt x="718" y="194" on="0"/>
        <pt x="632" y="93" on="1"/>
        <pt x="591" y="44" on="0"/>
        <pt x="461" y="-14" on="0"/>
        <pt x="382" y="-14" on="1"/>
        <pt x="247" y="-14" on="0"/>
        <pt x="45" y="180" on="0"/>
      </contour>
    </TTGlyph>
    <TTGlyph name="Odieresis.sc" xMin="66" yMin="-15" xMax="552" yMax="623">
      <component glyphName="odieresis.sc" x="0" y="0" flags="0x1004"/>
    </TTGlyph>
    <TTGlyph name="Ograve" xMin="45" yMin="-14" xMax="718" yMax="850">
      <component glyphName="gravecomb.cap" x="248" y="0" flags="0x1004"/>
      <component glyphName="O" x="0" y="0" flags="0x1204"/>
    </TTGlyph>
    <TTGlyph name="Ograve.sc" xMin="66" yMin="-15" xMax="552" yMax="679">
      <component glyphName="ograve.sc" x="0" y="0" flags="0x1004"/>
    </TTGlyph>
    <TTGlyph name="Ohorn" xMin="45" yMin="-14" xMax="777" yMax="721">
      <contour>
        <pt x="667" y="547" on="1"/>
        <pt x="657" y="547" on="0"/>
        <pt x="651" y="538" on="0"/>
        <pt x="654" y="534" on="1"/>
        <pt x="687" y="485" on="0"/>
        <pt x="718" y="396" on="0"/>
        <pt x="718" y="267" on="0"/>
        <pt x="674" y="142" on="0"/>
        <pt x="591" y="44" on="0"/>
        <pt x="461" y="-14" on="0"/>
        <pt x="382" y="-14" on="1"/>
        <pt x="247" y="-14" on="0"/>
        <pt x="45" y="180" on="0"/>
        <pt x="45" y="463" on="0"/>
        <pt x="225" y="664" on="0"/>
        <pt x="382" y="664" on="1"/>
        <pt x="488" y="664" on="0"/>
        <pt x="582" y="618" on="1"/>
        <pt x="643" y="589" on="0"/>
        <pt x="689" y="589" on="0"/>
        <pt x="721" y="605" on="0"/>
        <pt x="721" y="615" on="1"/>
        <pt x="721" y="631" on="0"/>
        <pt x="679" y="646" on="0"/>
        <pt x="679" y="681" on="0"/>
        <pt x="722" y="721" on="0"/>
        <pt x="752" y="721" on="0"/>
        <pt x="777" y="679" on="0"/>
        <pt x="777" y="661" on="1"/>
        <pt x="777" y="609" on="0"/>
        <pt x="701" y="547" on="0"/>
      </contour>
      <contour>
        <pt x="621" y="451" on="0"/>
        <pt x="493" y="625" on="0"/>
        <pt x="269" y="625" on="0"/>
        <pt x="142" y="461" on="0"/>
        <pt x="142" y="218" on="0"/>
        <pt x="287" y="25" on="0"/>
        <pt x="505" y="25" on="0"/>
        <pt x="621" y="174" on="0"/>
      </contour>
    </TTGlyph>
    <TTGlyph name="Ohungarumlaut" xMin="45" yMin="-14" xMax="718" yMax="850">
      <component glyphName="uni030B.cap" x="280" y="0" flags="0x1004"/>
      <component glyphName="O" x="0" y="0" flags="0x1204"/>
    </TTGlyph>
    <TTGlyph name="Ohungarumlaut.sc" xMin="66" yMin="-15" xMax="552" yMax="679">
      <component glyphName="ohungarumlaut.sc" x="0" y="0" flags="0x1004"/>
    </TTGlyph>
    <TTGlyph name="Omacron" xMin="45" yMin="-14" xMax="718" yMax="777">
      <component glyphName="uni0304.cap" x="228" y="0" flags="0x1004"/>
      <component glyphName="O" x="0" y="0" flags="0x1204"/>
    </TTGlyph>
    <TTGlyph name="Omacron.sc" xMin="66" yMin="-15" xMax="552" yMax="585">
      <component glyphName="omacron.sc" x="0" y="0" flags="0x1004"/>
    </TTGlyph>
    <TTGlyph name="Omega" xMin="39" yMin="-5" xMax="791" yMax="664">
      <contour>
        <pt x="175" y="0" on="1"/>
        <pt x="95" y="-5" on="1"/>
        <pt x="85" y="-5" on="0"/>
        <pt x="79" y="23" on="0"/>
        <pt x="67" y="57" on="0"/>
        <pt x="46" y="113" on="0"/>
        <pt x="40" y="130" on="1"/>
        <pt x="40" y="132" on="1"/>
        <pt x="39" y="134" on="1"/>
        <pt x="39" y="143" on="0"/>
        <pt x="48" y="143" on="1"/>
        <pt x="62" y="143" on="0"/>
        <pt x="94" y="87" on="0"/>
        <pt x="145" y="70" on="0"/>
        <pt x="187" y="70" on="1"/>
        <pt x="208" y="70" on="1"/>
        <pt x="247" y="70" on="0"/>
        <pt x="275" y="72" on="0"/>
        <pt x="279" y="80" on="0"/>
        <pt x="277" y="81" on="1"/>
        <pt x="198" y="117" on="0"/>
        <pt x="100" y="258" on="0"/>
        <pt x="100" y="345" on="1"/>
        <pt x="100" y="478" on="0"/>
        <pt x="288" y="664" on="0"/>
        <pt x="544" y="664" on="0"/>
        <pt x="730" y="488" on="0"/>
        <pt x="730" y="365" on="1"/>
        <pt x="730" y="275" on="0"/>
        <pt x="633" y="125" on="0"/>
        <pt x="555" y="85" on="1"/>
        <pt x="546" y="79" on="0"/>
        <pt x="547" y="74" on="1"/>
        <pt x="570" y="70" on="0"/>
        <pt x="618" y="70" on="1"/>
        <pt x="643" y="70" on="1"/>
        <pt x="727" y="70" on="0"/>
        <pt x="751" y="113" on="1"/>
        <pt x="768" y="143" on="0"/>
        <pt x="782" y="143" on="1"/>
        <pt x="791" y="143" on="0"/>
        <pt x="791" y="134" on="1"/>
        <pt x="790" y="132" on="1"/>
        <pt x="790" y="130" on="1"/>
        <pt x="784" y="113" on="0"/>
        <pt x="774" y="85" on="1"/>
        <pt x="752" y="27" on="0"/>
        <pt x="745" y="-5" on="0"/>
        <pt x="735" y="-5" on="1"/>
        <pt x="655" y="0" on="1"/>
        <pt x="579" y="1" on="1"/>
        <pt x="480" y="0" on="1"/>
        <pt x="472" y="0" on="0"/>
        <pt x="472" y="21" on="0"/>
        <pt x="488" y="66" on="0"/>
        <pt x="503" y="77" on="1"/>
        <pt x="554" y="115" on="0"/>
        <pt x="630" y="257" on="0"/>
        <pt x="630" y="402" on="0"/>
        <pt x="578" y="538" on="0"/>
        <pt x="473" y="631" on="0"/>
        <pt x="408" y="631" on="1"/>
        <pt x="317" y="631" on="0"/>
        <pt x="200" y="474" on="0"/>
        <pt x="200" y="281" on="0"/>
        <pt x="269" y="118" on="0"/>
        <pt x="333" y="71" on="1"/>
        <pt x="351" y="58" on="0"/>
        <pt x="358" y="11" on="1"/>
        <pt x="360" y="0" on="0"/>
        <pt x="350" y="0" on="1"/>
        <pt x="250" y="1" on="1"/>
      </contour>
    </TTGlyph>
    <TTGlyph name="Omicron" xMin="45" yMin="-14" xMax="718" yMax="664">
      <component glyphName="O" x="0" y="0" flags="0x1204"/>
    </TTGlyph>
    <TTGlyph name="Oslash" xMin="49" yMin="-14" xMax="726" yMax="664">
      <contour>
        <pt x="380" y="625" on="1"/>
        <pt x="274" y="625" on="0"/>
        <pt x="147" y="461" on="0"/>
        <pt x="147" y="240" on="0"/>
        <pt x="191" y="161" on="1"/>
        <pt x="568" y="529" on="1"/>
        <pt x="503" y="625" on="0"/>
      </contour>
      <contour>
        <pt x="86" y="-11" on="1"/>
        <pt x="83" y="-14" on="0"/>
        <pt x="66" y="-14" on="0"/>
        <pt x="49" y="-1" on="0"/>
        <pt x="49" y="16" on="0"/>
        <pt x="59" y="26" on="1"/>
        <pt x="134" y="100" on="1"/>
        <pt x="50" y="194" on="0"/>
        <pt x="50" y="320" on="1"/>
        <pt x="50" y="413" on="0"/>
        <pt x="127" y="566" on="0"/>
        <pt x="287" y="664" on="0"/>
        <pt x="395" y="664" on="1"/>
        <pt x="525" y="664" on="0"/>
        <pt x="619" y="579" on="1"/>
        <pt x="699" y="658" on="1"/>
        <pt x="704" y="663" on="0"/>
        <pt x="712" y="662" on="1"/>
        <pt x="726" y="660" on="0"/>
        <pt x="726" y="628" on="0"/>
        <pt x="719" y="621" on="1"/>
        <pt x="647" y="549" on="1"/>
        <pt x="723" y="460" on="0"/>
        <pt x="723" y="335" on="1"/>
        <pt x="723" y="194" on="0"/>
        <pt x="638" y="93" on="1"/>
        <pt x="596" y="44" on="0"/>
        <pt x="466" y="-14" on="0"/>
        <pt x="387" y="-14" on="1"/>
        <pt x="263" y="-14" on="0"/>
        <pt x="166" y="69" on="1"/>
      </contour>
      <contour>
        <pt x="589" y="492" on="1"/>
        <pt x="216" y="123" on="1"/>
        <pt x="291" y="25" on="0"/>
        <pt x="510" y="25" on="0"/>
        <pt x="626" y="174" on="0"/>
        <pt x="626" y="417" on="0"/>
      </contour>
    </TTGlyph>
    <TTGlyph name="Oslash.sc" xMin="66" yMin="-15" xMax="552" yMax="456">
      <component glyphName="oslash.sc" x="0" y="0" flags="0x1004"/>
    </TTGlyph>
    <TTGlyph name="Oslashacute" xMin="49" yMin="-14" xMax="726" yMax="850">
      <component glyphName="acutecomb.cap" x="339" y="0" flags="0x1004"/>
      <component glyphName="Oslash" x="0" y="0" flags="0x1204"/>
    </TTGlyph>
    <TTGlyph name="Otilde" xMin="45" yMin="-14" xMax="718" yMax="829">
      <component glyphName="tildecomb.cap" x="240" y="7" flags="0x1004"/>
      <component glyphName="O" x="0" y="0" flags="0x1204"/>
    </TTGlyph>
    <TTGlyph name="Otilde.sc" xMin="66" yMin="-15" xMax="552" yMax="630">
      <component glyphName="otilde.sc" x="0" y="0" flags="0x1004"/>
    </TTGlyph>
    <TTGlyph name="P" xMin="24" yMin="-5" xMax="531" yMax="658">
      <contour>
        <pt x="163" y="652" on="1"/>
        <pt x="274" y="658" on="1"/>
        <pt x="387" y="658" on="0"/>
        <pt x="531" y="562" on="0"/>
        <pt x="531" y="482" on="1"/>
        <pt x="531" y="384" on="0"/>
        <pt x="413" y="254" on="0"/>
        <pt x="303" y="254" on="1"/>
        <pt x="283" y="254" on="0"/>
        <pt x="258" y="266" on="0"/>
        <pt x="258" y="273" on="1"/>
        <pt x="258" y="277" on="0"/>
        <pt x="269" y="284" on="0"/>
        <pt x="274" y="284" on="1"/>
        <pt x="289" y="282" on="1"/>
        <pt x="304" y="280" on="0"/>
        <pt x="320" y="279" on="1"/>
        <pt x="441" y="279" on="0"/>
        <pt x="441" y="458" on="1"/>
        <pt x="441" y="546" on="0"/>
        <pt x="351" y="630" on="0"/>
        <pt x="274" y="630" on="1"/>
        <pt x="210" y="630" on="0"/>
        <pt x="210" y="588" on="1"/>
        <pt x="210" y="111" on="1"/>
        <pt x="210" y="36" on="0"/>
        <pt x="277" y="24" on="1"/>
        <pt x="310" y="18" on="0"/>
        <pt x="310" y="-5" on="0"/>
        <pt x="252" y="-5" on="0"/>
        <pt x="200" y="2" on="0"/>
        <pt x="183" y="2" on="1"/>
        <pt x="53" y="-5" on="1"/>
        <pt x="24" y="-5" on="0"/>
        <pt x="24" y="18" on="0"/>
        <pt x="96" y="31" on="0"/>
        <pt x="130" y="64" on="0"/>
        <pt x="130" y="100" on="1"/>
        <pt x="130" y="522" on="1"/>
        <pt x="130" y="570" on="0"/>
        <pt x="105" y="616" on="0"/>
        <pt x="36" y="628" on="0"/>
        <pt x="36" y="642" on="1"/>
        <pt x="36" y="653" on="0"/>
        <pt x="65" y="653" on="1"/>
      </contour>
    </TTGlyph>
    <TTGlyph name="P.ordn" xMin="19" yMin="277" xMax="352" yMax="674">
      <component glyphName="P.subs" x="0" y="280" flags="0x1004"/>
    </TTGlyph>
    <TTGlyph name="P.sc" xMin="46" yMin="-3" xMax="438" yMax="453">
      <component glyphName="p.sc" x="0" y="0" flags="0x1004"/>
    </TTGlyph>
    <TTGlyph name="P.sinf" xMin="19" yMin="-147" xMax="352" yMax="250">
      <component glyphName="P.subs" x="0" y="-144" flags="0x1004"/>
    </TTGlyph>
    <TTGlyph name="P.subs" xMin="19" yMin="-3" xMax="352" yMax="394">
      <contour>
        <pt x="186" y="-3" on="1"/>
        <pt x="122" y="1" on="1"/>
        <pt x="38" y="-3" on="1"/>
        <pt x="19" y="-3" on="0"/>
        <pt x="19" y="11" on="0"/>
        <pt x="65" y="18" on="0"/>
        <pt x="88" y="39" on="0"/>
        <pt x="88" y="60" on="1"/>
        <pt x="88" y="313" on="1"/>
        <pt x="88" y="341" on="0"/>
        <pt x="71" y="369" on="0"/>
        <pt x="27" y="376" on="0"/>
        <pt x="27" y="385" on="1"/>
        <pt x="27" y="392" on="0"/>
        <pt x="46" y="392" on="1"/>
        <pt x="109" y="391" on="1"/>
        <pt x="181" y="394" on="1"/>
        <pt x="257" y="394" on="0"/>
        <pt x="352" y="335" on="0"/>
        <pt x="352" y="276" on="1"/>
        <pt x="352" y="254" on="0"/>
        <pt x="325" y="196" on="0"/>
        <pt x="304" y="182" on="1"/>
        <pt x="263" y="152" on="0"/>
        <pt x="204" y="152" on="1"/>
        <pt x="171" y="152" on="0"/>
        <pt x="171" y="162" on="1"/>
        <pt x="172" y="168" on="0"/>
        <pt x="185" y="167" on="0"/>
        <pt x="195" y="167" on="1"/>
        <pt x="229" y="167" on="0"/>
        <pt x="254" y="184" on="1"/>
        <pt x="295" y="213" on="0"/>
        <pt x="295" y="285" on="1"/>
        <pt x="295" y="330" on="0"/>
        <pt x="224" y="378" on="0"/>
        <pt x="140" y="378" on="0"/>
        <pt x="140" y="353" on="1"/>
        <pt x="140" y="67" on="1"/>
        <pt x="140" y="21" on="0"/>
        <pt x="183" y="14" on="1"/>
        <pt x="205" y="11" on="0"/>
        <pt x="205" y="-3" on="0"/>
      </contour>
    </TTGlyph>
    <TTGlyph name="P.sups" xMin="19" yMin="437" xMax="352" yMax="834">
      <component glyphName="P.subs" x="0" y="440" flags="0x1004"/>
    </TTGlyph>
    <TTGlyph name="Phi" xMin="35" yMin="-5" xMax="668" yMax="654">
      <contour>
        <pt x="357" y="0" on="1"/>
        <pt x="229" y="-5" on="1"/>
        <pt x="200" y="-5" on="0"/>
        <pt x="200" y="18" on="0"/>
        <pt x="288" y="34" on="0"/>
        <pt x="311" y="55" on="0"/>
        <pt x="311" y="76" on="1"/>
        <pt x="311" y="82" on="1"/>
        <pt x="197" y="92" on="0"/>
        <pt x="35" y="217" on="0"/>
        <pt x="35" y="422" on="0"/>
        <pt x="197" y="559" on="0"/>
        <pt x="311" y="572" on="1"/>
        <pt x="311" y="583" on="1"/>
        <pt x="311" y="598" on="0"/>
        <pt x="281" y="616" on="0"/>
        <pt x="211" y="629" on="0"/>
        <pt x="211" y="643" on="1"/>
        <pt x="211" y="654" on="0"/>
        <pt x="240" y="654" on="1"/>
        <pt x="357" y="651" on="1"/>
        <pt x="466" y="654" on="1"/>
        <pt x="495" y="654" on="0"/>
        <pt x="495" y="643" on="1"/>
        <pt x="495" y="629" on="0"/>
        <pt x="462" y="623" on="1"/>
        <pt x="391" y="610" on="0"/>
        <pt x="391" y="583" on="1"/>
        <pt x="391" y="572" on="1"/>
        <pt x="507" y="562" on="0"/>
        <pt x="668" y="438" on="0"/>
        <pt x="668" y="233" on="0"/>
        <pt x="507" y="95" on="0"/>
        <pt x="391" y="82" on="1"/>
        <pt x="391" y="76" on="1"/>
        <pt x="391" y="50" on="0"/>
        <pt x="423" y="32" on="0"/>
        <pt x="467" y="24" on="0"/>
        <pt x="470" y="24" on="1"/>
        <pt x="503" y="18" on="0"/>
        <pt x="503" y="-5" on="0"/>
        <pt x="474" y="-5" on="1"/>
      </contour>
      <contour>
        <pt x="391" y="541" on="1"/>
        <pt x="391" y="113" on="1"/>
        <pt x="466" y="126" on="0"/>
        <pt x="576" y="247" on="0"/>
        <pt x="576" y="415" on="0"/>
        <pt x="474" y="529" on="0"/>
      </contour>
      <contour>
        <pt x="311" y="115" on="1"/>
        <pt x="311" y="541" on="1"/>
        <pt x="234" y="530" on="0"/>
        <pt x="127" y="424" on="0"/>
        <pt x="127" y="265" on="0"/>
        <pt x="231" y="132" on="0"/>
      </contour>
    </TTGlyph>
    <TTGlyph name="Pi" xMin="9" yMin="-5" xMax="796" yMax="653">
      <contour>
        <pt x="650" y="0" on="1"/>
        <pt x="524" y="-5" on="1"/>
        <pt x="495" y="-5" on="0"/>
        <pt x="495" y="18" on="0"/>
        <pt x="528" y="24" on="1"/>
        <pt x="604" y="38" on="0"/>
        <pt x="604" y="99" on="1"/>
        <pt x="605" y="591" on="1"/>
        <pt x="605" y="610" on="0"/>
        <pt x="594" y="610" on="1"/>
        <pt x="213" y="610" on="1"/>
        <pt x="200" y="610" on="0"/>
        <pt x="200" y="587" on="1"/>
        <pt x="200" y="99" on="1"/>
        <pt x="200" y="38" on="0"/>
        <pt x="278" y="24" on="1"/>
        <pt x="311" y="18" on="0"/>
        <pt x="311" y="-5" on="0"/>
        <pt x="282" y="-5" on="1"/>
        <pt x="166" y="0" on="1"/>
        <pt x="38" y="-5" on="1"/>
        <pt x="9" y="-5" on="0"/>
        <pt x="9" y="18" on="0"/>
        <pt x="82" y="31" on="0"/>
        <pt x="120" y="64" on="0"/>
        <pt x="120" y="98" on="1"/>
        <pt x="120" y="550" on="1"/>
        <pt x="120" y="585" on="0"/>
        <pt x="91" y="615" on="0"/>
        <pt x="20" y="628" on="0"/>
        <pt x="20" y="642" on="1"/>
        <pt x="20" y="653" on="0"/>
        <pt x="49" y="653" on="1"/>
        <pt x="166" y="650" on="1"/>
        <pt x="650" y="650" on="1"/>
        <pt x="759" y="653" on="1"/>
        <pt x="788" y="653" on="0"/>
        <pt x="788" y="642" on="1"/>
        <pt x="788" y="628" on="0"/>
        <pt x="716" y="615" on="0"/>
        <pt x="684" y="584" on="0"/>
        <pt x="684" y="550" on="1"/>
        <pt x="684" y="98" on="1"/>
        <pt x="684" y="64" on="0"/>
        <pt x="723" y="31" on="0"/>
        <pt x="796" y="18" on="0"/>
        <pt x="796" y="-5" on="0"/>
        <pt x="767" y="-5" on="1"/>
      </contour>
    </TTGlyph>
    <TTGlyph name="Psi" xMin="0" yMin="-5" xMax="744" yMax="653">
      <contour>
        <pt x="410" y="551" on="1"/>
        <pt x="410" y="322" on="1"/>
        <pt x="410" y="317" on="0"/>
        <pt x="413" y="317" on="1"/>
        <pt x="420" y="317" on="1"/>
        <pt x="507" y="327" on="0"/>
        <pt x="545" y="451" on="1"/>
        <pt x="568" y="525" on="0"/>
        <pt x="636" y="617" on="0"/>
        <pt x="713" y="617" on="0"/>
        <pt x="744" y="587" on="0"/>
        <pt x="744" y="567" on="0"/>
        <pt x="728" y="567" on="1"/>
        <pt x="664" y="567" on="0"/>
        <pt x="630" y="481" on="1"/>
        <pt x="587" y="374" on="0"/>
        <pt x="502" y="300" on="0"/>
        <pt x="421" y="289" on="1"/>
        <pt x="410" y="288" on="0"/>
        <pt x="410" y="263" on="1"/>
        <pt x="410" y="99" on="1"/>
        <pt x="410" y="65" on="0"/>
        <pt x="449" y="31" on="0"/>
        <pt x="522" y="18" on="0"/>
        <pt x="522" y="-5" on="0"/>
        <pt x="493" y="-5" on="1"/>
        <pt x="376" y="0" on="1"/>
        <pt x="248" y="-5" on="1"/>
        <pt x="219" y="-5" on="0"/>
        <pt x="219" y="18" on="0"/>
        <pt x="292" y="31" on="0"/>
        <pt x="330" y="65" on="0"/>
        <pt x="330" y="99" on="1"/>
        <pt x="330" y="269" on="1"/>
        <pt x="330" y="285" on="0"/>
        <pt x="325" y="290" on="0"/>
        <pt x="318" y="289" on="0"/>
        <pt x="316" y="289" on="1"/>
        <pt x="241" y="300" on="0"/>
        <pt x="157" y="374" on="0"/>
        <pt x="114" y="481" on="1"/>
        <pt x="80" y="567" on="0"/>
        <pt x="16" y="567" on="1"/>
        <pt x="0" y="567" on="0"/>
        <pt x="0" y="587" on="0"/>
        <pt x="31" y="617" on="0"/>
        <pt x="108" y="617" on="0"/>
        <pt x="176" y="525" on="0"/>
        <pt x="199" y="451" on="1"/>
        <pt x="238" y="326" on="0"/>
        <pt x="324" y="317" on="1"/>
        <pt x="328" y="316" on="0"/>
        <pt x="330" y="324" on="0"/>
        <pt x="330" y="336" on="1"/>
        <pt x="330" y="551" on="1"/>
        <pt x="330" y="585" on="0"/>
        <pt x="301" y="615" on="0"/>
        <pt x="230" y="628" on="0"/>
        <pt x="230" y="642" on="1"/>
        <pt x="230" y="653" on="0"/>
        <pt x="259" y="653" on="1"/>
        <pt x="376" y="650" on="1"/>
        <pt x="485" y="653" on="1"/>
        <pt x="514" y="653" on="0"/>
        <pt x="514" y="642" on="1"/>
        <pt x="514" y="628" on="0"/>
        <pt x="442" y="615" on="0"/>
        <pt x="410" y="585" on="0"/>
      </contour>
    </TTGlyph>
    <TTGlyph name="Q" xMin="45" yMin="-248" xMax="888" yMax="662">
      <contour>
        <pt x="666" y="443" on="0"/>
        <pt x="502" y="626" on="0"/>
        <pt x="276" y="626" on="0"/>
        <pt x="139" y="463" on="0"/>
        <pt x="139" y="354" on="1"/>
        <pt x="139" y="220" on="0"/>
        <pt x="309" y="12" on="0"/>
        <pt x="430" y="12" on="1"/>
        <pt x="502" y="12" on="0"/>
        <pt x="613" y="111" on="0"/>
        <pt x="666" y="251" on="0"/>
        <pt x="666" y="324" on="1"/>
      </contour>
      <contour>
        <pt x="374" y="-54" on="1"/>
        <pt x="359" y="-42" on="0"/>
        <pt x="271" y="7" on="0"/>
        <pt x="229" y="18" on="0"/>
        <pt x="158" y="66" on="0"/>
        <pt x="90" y="140" on="0"/>
        <pt x="45" y="248" on="0"/>
        <pt x="45" y="307" on="1"/>
        <pt x="45" y="457" on="0"/>
        <pt x="248" y="662" on="0"/>
        <pt x="402" y="662" on="1"/>
        <pt x="492" y="662" on="0"/>
        <pt x="653" y="593" on="0"/>
        <pt x="761" y="447" on="0"/>
        <pt x="761" y="350" on="1"/>
        <pt x="761" y="282" on="0"/>
        <pt x="724" y="166" on="0"/>
        <pt x="669" y="90" on="0"/>
        <pt x="632" y="61" on="1"/>
        <pt x="569" y="12" on="0"/>
        <pt x="497" y="-8" on="1"/>
        <pt x="483" y="-12" on="0"/>
        <pt x="483" y="-22" on="0"/>
        <pt x="487" y="-26" on="1"/>
        <pt x="534" y="-76" on="0"/>
        <pt x="657" y="-165" on="0"/>
        <pt x="743" y="-192" on="0"/>
        <pt x="842" y="-192" on="0"/>
        <pt x="870" y="-181" on="0"/>
        <pt x="888" y="-181" on="0"/>
        <pt x="888" y="-204" on="0"/>
        <pt x="870" y="-215" on="1"/>
        <pt x="813" y="-248" on="0"/>
        <pt x="685" y="-248" on="0"/>
        <pt x="585" y="-211" on="0"/>
        <pt x="460" y="-122" on="0"/>
      </contour>
    </TTGlyph>
    <TTGlyph name="Q.long" xMin="45" yMin="-324" xMax="1671" yMax="662">
      <contour>
        <pt x="662" y="441" on="0"/>
        <pt x="498" y="625" on="0"/>
        <pt x="273" y="625" on="0"/>
        <pt x="143" y="464" on="0"/>
        <pt x="143" y="354" on="1"/>
        <pt x="143" y="221" on="0"/>
        <pt x="311" y="18" on="0"/>
        <pt x="433" y="18" on="1"/>
        <pt x="505" y="18" on="0"/>
        <pt x="613" y="113" on="0"/>
        <pt x="662" y="249" on="0"/>
        <pt x="662" y="322" on="1"/>
      </contour>
      <contour>
        <pt x="369" y="-34" on="1"/>
        <pt x="328" y="-12" on="0"/>
        <pt x="251" y="13" on="0"/>
        <pt x="168" y="65" on="0"/>
        <pt x="93" y="142" on="0"/>
        <pt x="45" y="250" on="0"/>
        <pt x="45" y="309" on="1"/>
        <pt x="45" y="459" on="0"/>
        <pt x="248" y="661" on="0"/>
        <pt x="403" y="662" on="1"/>
        <pt x="405" y="662" on="1"/>
        <pt x="561" y="662" on="0"/>
        <pt x="760" y="491" on="0"/>
        <pt x="760" y="357" on="1"/>
        <pt x="760" y="287" on="0"/>
        <pt x="709" y="161" on="0"/>
        <pt x="668" y="117" on="1"/>
        <pt x="596" y="38" on="0"/>
        <pt x="520" y="-1" on="1"/>
        <pt x="512" y="-5" on="0"/>
        <pt x="512" y="-19" on="0"/>
        <pt x="528" y="-29" on="1"/>
        <pt x="723" y="-141" on="0"/>
        <pt x="1144" y="-270" on="0"/>
        <pt x="1366" y="-270" on="0"/>
        <pt x="1544" y="-213" on="0"/>
        <pt x="1645" y="-149" on="1"/>
        <pt x="1651" y="-146" on="0"/>
        <pt x="1655" y="-146" on="1"/>
        <pt x="1671" y="-146" on="0"/>
        <pt x="1671" y="-163" on="1"/>
        <pt x="1671" y="-168" on="0"/>
        <pt x="1667" y="-171" on="1"/>
        <pt x="1578" y="-243" on="0"/>
        <pt x="1355" y="-324" on="0"/>
        <pt x="1183" y="-324" on="0"/>
        <pt x="1047" y="-307" on="0"/>
        <pt x="938" y="-281" on="1"/>
        <pt x="715" y="-228" on="0"/>
      </contour>
    </TTGlyph>
    <TTGlyph name="Q.ordn" xMin="34" yMin="131" xMax="582" yMax="677">
      <component glyphName="Q.subs" x="0" y="280" flags="0x1004"/>
    </TTGlyph>
    <TTGlyph name="Q.sc" xMin="34" yMin="-218" xMax="1134" yMax="460">
      <component glyphName="q.sc" x="0" y="0" flags="0x1004"/>
    </TTGlyph>
    <TTGlyph name="Q.sinf" xMin="34" yMin="-293" xMax="582" yMax="253">
      <component glyphName="Q.subs" x="0" y="-144" flags="0x1004"/>
    </TTGlyph>
    <TTGlyph name="Q.subs" xMin="34" yMin="-149" xMax="582" yMax="397">
      <contour>
        <pt x="438" y="265" on="0"/>
        <pt x="331" y="376" on="0"/>
        <pt x="185" y="376" on="0"/>
        <pt x="96" y="278" on="0"/>
        <pt x="96" y="133" on="0"/>
        <pt x="206" y="7" on="0"/>
        <pt x="354" y="7" on="0"/>
        <pt x="438" y="124" on="0"/>
      </contour>
      <contour>
        <pt x="248" y="-32" on="1"/>
        <pt x="238" y="-25" on="0"/>
        <pt x="182" y="4" on="0"/>
        <pt x="174" y="6" on="1"/>
        <pt x="128" y="17" on="0"/>
        <pt x="34" y="117" on="0"/>
        <pt x="34" y="184" on="1"/>
        <pt x="34" y="274" on="0"/>
        <pt x="166" y="397" on="0"/>
        <pt x="359" y="397" on="0"/>
        <pt x="500" y="296" on="0"/>
        <pt x="500" y="210" on="1"/>
        <pt x="500" y="170" on="0"/>
        <pt x="476" y="102" on="0"/>
        <pt x="445" y="61" on="0"/>
        <pt x="396" y="24" on="0"/>
        <pt x="365" y="9" on="0"/>
        <pt x="325" y="-7" on="0"/>
        <pt x="333" y="-17" on="1"/>
        <pt x="353" y="-37" on="0"/>
        <pt x="444" y="-99" on="0"/>
        <pt x="487" y="-114" on="0"/>
        <pt x="521" y="-115" on="1"/>
        <pt x="528" y="-115" on="1"/>
        <pt x="553" y="-115" on="0"/>
        <pt x="582" y="-104" on="0"/>
        <pt x="582" y="-113" on="1"/>
        <pt x="582" y="-124" on="0"/>
        <pt x="571" y="-129" on="1"/>
        <pt x="533" y="-149" on="0"/>
        <pt x="495" y="-149" on="1"/>
        <pt x="418" y="-149" on="0"/>
        <pt x="350" y="-104" on="1"/>
        <pt x="329" y="-91" on="0"/>
      </contour>
    </TTGlyph>
    <TTGlyph name="Q.sups" xMin="34" yMin="291" xMax="582" yMax="837">
      <component glyphName="Q.subs" x="0" y="440" flags="0x1004"/>
    </TTGlyph>
    <TTGlyph name="R" xMin="24" yMin="-21" xMax="718" yMax="657">
      <contour>
        <pt x="330" y="329" on="0"/>
        <pt x="413" y="417" on="0"/>
        <pt x="413" y="547" on="0"/>
        <pt x="356" y="627" on="0"/>
        <pt x="278" y="627" on="1"/>
        <pt x="240" y="627" on="0"/>
        <pt x="215" y="599" on="0"/>
        <pt x="214" y="573" on="1"/>
        <pt x="210" y="476" on="0"/>
        <pt x="210" y="364" on="1"/>
        <pt x="210" y="341" on="0"/>
        <pt x="234" y="329" on="0"/>
        <pt x="263" y="329" on="1"/>
      </contour>
      <contour>
        <pt x="163" y="652" on="1"/>
        <pt x="278" y="657" on="1"/>
        <pt x="503" y="657" on="0"/>
        <pt x="503" y="493" on="1"/>
        <pt x="503" y="385" on="0"/>
        <pt x="385" y="325" on="1"/>
        <pt x="378" y="322" on="0"/>
        <pt x="385" y="312" on="1"/>
        <pt x="430" y="244" on="0"/>
        <pt x="465" y="193" on="0"/>
        <pt x="544" y="98" on="0"/>
        <pt x="588" y="58" on="1"/>
        <pt x="612" y="37" on="0"/>
        <pt x="662" y="25" on="0"/>
        <pt x="703" y="25" on="1"/>
        <pt x="718" y="25" on="0"/>
        <pt x="718" y="14" on="1"/>
        <pt x="718" y="-5" on="0"/>
        <pt x="665" y="-21" on="0"/>
        <pt x="637" y="-21" on="1"/>
        <pt x="543" y="-21" on="0"/>
        <pt x="499" y="33" on="1"/>
        <pt x="423" y="124" on="0"/>
        <pt x="367" y="209" on="0"/>
        <pt x="350" y="238" on="1"/>
        <pt x="316" y="291" on="0"/>
        <pt x="225" y="302" on="1"/>
        <pt x="210" y="304" on="0"/>
        <pt x="210" y="282" on="1"/>
        <pt x="210" y="110" on="1"/>
        <pt x="210" y="36" on="0"/>
        <pt x="277" y="24" on="1"/>
        <pt x="310" y="18" on="0"/>
        <pt x="310" y="-5" on="0"/>
        <pt x="252" y="-5" on="0"/>
        <pt x="200" y="2" on="0"/>
        <pt x="183" y="2" on="1"/>
        <pt x="53" y="-5" on="1"/>
        <pt x="24" y="-5" on="0"/>
        <pt x="24" y="18" on="0"/>
        <pt x="96" y="31" on="0"/>
        <pt x="130" y="64" on="0"/>
        <pt x="130" y="100" on="1"/>
        <pt x="130" y="522" on="1"/>
        <pt x="130" y="570" on="0"/>
        <pt x="105" y="616" on="0"/>
        <pt x="36" y="628" on="0"/>
        <pt x="36" y="642" on="1"/>
        <pt x="36" y="653" on="0"/>
        <pt x="65" y="653" on="1"/>
      </contour>
    </TTGlyph>
    <TTGlyph name="R.ordn" xMin="19" yMin="267" xMax="470" yMax="674">
      <component glyphName="R.subs" x="0" y="280" flags="0x1004"/>
    </TTGlyph>
    <TTGlyph name="R.sc" xMin="12" yMin="-14" xMax="506" yMax="453">
      <component glyphName="r.sc" x="0" y="0" flags="0x1004"/>
    </TTGlyph>
    <TTGlyph name="R.sinf" xMin="19" yMin="-157" xMax="470" yMax="250">
      <component glyphName="R.subs" x="0" y="-144" flags="0x1004"/>
    </TTGlyph>
    <TTGlyph name="R.subs" xMin="19" yMin="-13" xMax="470" yMax="394">
      <contour>
        <pt x="140" y="218" on="1"/>
        <pt x="140" y="206" on="0"/>
        <pt x="154" y="198" on="0"/>
        <pt x="171" y="197" on="1"/>
        <pt x="176" y="197" on="1"/>
        <pt x="214" y="197" on="0"/>
        <pt x="271" y="247" on="0"/>
        <pt x="271" y="326" on="0"/>
        <pt x="233" y="376" on="0"/>
        <pt x="184" y="376" on="1"/>
        <pt x="159" y="376" on="0"/>
        <pt x="143" y="360" on="0"/>
        <pt x="140" y="301" on="0"/>
      </contour>
      <contour>
        <pt x="109" y="391" on="1"/>
        <pt x="184" y="394" on="1"/>
        <pt x="255" y="394" on="0"/>
        <pt x="330" y="342" on="0"/>
        <pt x="330" y="293" on="1"/>
        <pt x="330" y="275" on="0"/>
        <pt x="310" y="235" on="0"/>
        <pt x="301" y="227" on="1"/>
        <pt x="272" y="202" on="0"/>
        <pt x="254" y="193" on="1"/>
        <pt x="250" y="192" on="0"/>
        <pt x="257" y="182" on="0"/>
        <pt x="279" y="151" on="0"/>
        <pt x="287" y="141" on="0"/>
        <pt x="306" y="115" on="0"/>
        <pt x="317" y="102" on="0"/>
        <pt x="336" y="80" on="0"/>
        <pt x="344" y="72" on="1"/>
        <pt x="363" y="53" on="0"/>
        <pt x="409" y="15" on="0"/>
        <pt x="460" y="15" on="1"/>
        <pt x="470" y="15" on="0"/>
        <pt x="470" y="8" on="1"/>
        <pt x="470" y="-13" on="0"/>
        <pt x="357" y="-13" on="0"/>
        <pt x="328" y="20" on="1"/>
        <pt x="266" y="89" on="0"/>
        <pt x="229" y="145" on="1"/>
        <pt x="220" y="159" on="0"/>
        <pt x="175" y="179" on="0"/>
        <pt x="145" y="182" on="0"/>
        <pt x="140" y="175" on="0"/>
        <pt x="140" y="169" on="1"/>
        <pt x="140" y="66" on="1"/>
        <pt x="140" y="21" on="0"/>
        <pt x="183" y="14" on="1"/>
        <pt x="205" y="11" on="0"/>
        <pt x="205" y="-3" on="0"/>
        <pt x="186" y="-3" on="1"/>
        <pt x="122" y="1" on="1"/>
        <pt x="38" y="-3" on="1"/>
        <pt x="19" y="-3" on="0"/>
        <pt x="19" y="11" on="0"/>
        <pt x="65" y="18" on="0"/>
        <pt x="88" y="39" on="0"/>
        <pt x="88" y="60" on="1"/>
        <pt x="88" y="313" on="1"/>
        <pt x="88" y="341" on="0"/>
        <pt x="71" y="369" on="0"/>
        <pt x="27" y="376" on="0"/>
        <pt x="27" y="385" on="1"/>
        <pt x="27" y="392" on="0"/>
        <pt x="46" y="392" on="1"/>
      </contour>
    </TTGlyph>
    <TTGlyph name="R.sups" xMin="19" yMin="427" xMax="470" yMax="834">
      <component glyphName="R.subs" x="0" y="440" flags="0x1004"/>
    </TTGlyph>
    <TTGlyph name="Racute" xMin="24" yMin="-21" xMax="718" yMax="850">
      <component glyphName="acutecomb.cap" x="239" y="0" flags="0x1004"/>
      <component glyphName="R" x="0" y="0" flags="0x1204"/>
    </TTGlyph>
    <TTGlyph name="Racute.sc" xMin="12" yMin="-14" xMax="506" yMax="679">
      <component glyphName="racute.sc" x="0" y="0" flags="0x1004"/>
    </TTGlyph>
    <TTGlyph name="Rcaron" xMin="24" yMin="-21" xMax="718" yMax="833">
      <component glyphName="uni030C.cap" x="132" y="20" flags="0x1004"/>
      <component glyphName="R" x="0" y="0" flags="0x1204"/>
    </TTGlyph>
    <TTGlyph name="Rcaron.sc" xMin="12" yMin="-14" xMax="506" yMax="687">
      <component glyphName="rcaron.sc" x="0" y="0" flags="0x1004"/>
    </TTGlyph>
    <TTGlyph name="Rcommaaccent" xMin="24" yMin="-275" xMax="718" yMax="657">
      <component glyphName="uni0326" x="268" y="0" flags="0x1004"/>
      <component glyphName="R" x="0" y="0" flags="0x1204"/>
    </TTGlyph>
    <TTGlyph name="Rcommaaccent.sc" xMin="12" yMin="-270" xMax="506" yMax="453">
      <component glyphName="rcommaaccent.sc" x="0" y="0" flags="0x1004"/>
    </TTGlyph>
    <TTGlyph name="Rho" xMin="24" yMin="-5" xMax="531" yMax="658">
      <component glyphName="P" x="0" y="0" flags="0x1204"/>
    </TTGlyph>
    <TTGlyph name="S" xMin="41" yMin="-16" xMax="422" yMax="664">
      <contour>
        <pt x="92" y="103" on="1"/>
        <pt x="120" y="17" on="0"/>
        <pt x="227" y="17" on="1"/>
        <pt x="278" y="17" on="0"/>
        <pt x="338" y="79" on="0"/>
        <pt x="338" y="132" on="1"/>
        <pt x="338" y="216" on="0"/>
        <pt x="186" y="318" on="1"/>
        <pt x="125" y="359" on="0"/>
        <pt x="59" y="442" on="0"/>
        <pt x="59" y="565" on="0"/>
        <pt x="173" y="664" on="0"/>
        <pt x="260" y="664" on="1"/>
        <pt x="310" y="664" on="0"/>
        <pt x="376" y="644" on="0"/>
        <pt x="379" y="644" on="1"/>
        <pt x="393" y="644" on="0"/>
        <pt x="399" y="606" on="1"/>
        <pt x="405" y="565" on="0"/>
        <pt x="405" y="512" on="0"/>
        <pt x="398" y="512" on="1"/>
        <pt x="369" y="512" on="0"/>
        <pt x="363" y="540" on="1"/>
        <pt x="356" y="583" on="0"/>
        <pt x="294" y="631" on="0"/>
        <pt x="203" y="631" on="0"/>
        <pt x="136" y="572" on="0"/>
        <pt x="136" y="523" on="1"/>
        <pt x="136" y="477" on="0"/>
        <pt x="186" y="436" on="1"/>
        <pt x="228" y="401" on="0"/>
        <pt x="269" y="375" on="1"/>
        <pt x="422" y="276" on="0"/>
        <pt x="422" y="160" on="1"/>
        <pt x="422" y="91" on="0"/>
        <pt x="318" y="-16" on="0"/>
        <pt x="214" y="-16" on="1"/>
        <pt x="131" y="-16" on="0"/>
        <pt x="80" y="8" on="1"/>
        <pt x="63" y="16" on="0"/>
        <pt x="59" y="25" on="1"/>
        <pt x="41" y="63" on="0"/>
        <pt x="41" y="140" on="1"/>
        <pt x="41" y="148" on="0"/>
        <pt x="54" y="169" on="0"/>
        <pt x="71" y="169" on="0"/>
      </contour>
    </TTGlyph>
    <TTGlyph name="S.ordn" xMin="23" yMin="269" xMax="276" yMax="676">
      <component glyphName="S.subs" x="0" y="280" flags="0x1004"/>
    </TTGlyph>
    <TTGlyph name="S.sc" xMin="30" yMin="-11" xMax="331" yMax="458">
      <component glyphName="s.sc" x="0" y="0" flags="0x1004"/>
    </TTGlyph>
    <TTGlyph name="S.sinf" xMin="23" yMin="-155" xMax="276" yMax="252">
      <component glyphName="S.subs" x="0" y="-144" flags="0x1004"/>
    </TTGlyph>
    <TTGlyph name="S.subs" xMin="23" yMin="-11" xMax="276" yMax="396">
      <contour>
        <pt x="56" y="71" on="0"/>
        <pt x="111" y="10" on="0"/>
        <pt x="180" y="10" on="0"/>
        <pt x="217" y="46" on="0"/>
        <pt x="217" y="89" on="1"/>
        <pt x="217" y="108" on="0"/>
        <pt x="190" y="144" on="0"/>
        <pt x="159" y="167" on="0"/>
        <pt x="84" y="215" on="0"/>
        <pt x="37" y="266" on="0"/>
        <pt x="37" y="338" on="0"/>
        <pt x="102" y="396" on="0"/>
        <pt x="164" y="396" on="1"/>
        <pt x="192" y="396" on="0"/>
        <pt x="244" y="388" on="1"/>
        <pt x="254" y="387" on="0"/>
        <pt x="256" y="374" on="1"/>
        <pt x="263" y="339" on="0"/>
        <pt x="263" y="322" on="1"/>
        <pt x="263" y="294" on="0"/>
        <pt x="256" y="294" on="1"/>
        <pt x="253" y="294" on="0"/>
        <pt x="240" y="303" on="0"/>
        <pt x="239" y="309" on="1"/>
        <pt x="228" y="346" on="0"/>
        <pt x="181" y="376" on="0"/>
        <pt x="128" y="376" on="0"/>
        <pt x="86" y="339" on="0"/>
        <pt x="86" y="310" on="1"/>
        <pt x="86" y="287" on="0"/>
        <pt x="123" y="256" on="0"/>
        <pt x="139" y="245" on="0"/>
        <pt x="176" y="222" on="0"/>
        <pt x="181" y="218" on="0"/>
        <pt x="206" y="202" on="0"/>
        <pt x="212" y="198" on="1"/>
        <pt x="230" y="184" on="1"/>
        <pt x="276" y="150" on="0"/>
        <pt x="276" y="60" on="0"/>
        <pt x="209" y="-11" on="0"/>
        <pt x="87" y="-11" on="0"/>
        <pt x="52" y="5" on="1"/>
        <pt x="39" y="11" on="0"/>
        <pt x="33" y="25" on="0"/>
        <pt x="23" y="79" on="0"/>
        <pt x="23" y="96" on="1"/>
        <pt x="23" y="104" on="0"/>
        <pt x="43" y="104" on="0"/>
        <pt x="47" y="94" on="1"/>
      </contour>
    </TTGlyph>
    <TTGlyph name="S.sups" xMin="23" yMin="429" xMax="276" yMax="836">
      <component glyphName="S.subs" x="0" y="440" flags="0x1004"/>
    </TTGlyph>
    <TTGlyph name="Sacute" xMin="41" yMin="-16" xMax="422" yMax="850">
      <component glyphName="acutecomb.cap" x="196" y="0" flags="0x1004"/>
      <component glyphName="S" x="0" y="0" flags="0x1204"/>
    </TTGlyph>
    <TTGlyph name="Sacute.PLK" xMin="41" yMin="-16" xMax="422" yMax="843">
      <component glyphName="acute.PLKcap" x="449" y="0" flags="0x1004"/>
      <component glyphName="S" x="0" y="0" flags="0x1004"/>
    </TTGlyph>
    <TTGlyph name="Sacute.sc" xMin="30" yMin="-11" xMax="331" yMax="679">
      <component glyphName="sacute.sc" x="0" y="0" flags="0x1004"/>
    </TTGlyph>
    <TTGlyph name="Scaron" xMin="41" yMin="-16" xMax="422" yMax="833">
      <component glyphName="uni030C.cap" x="89" y="20" flags="0x1004"/>
      <component glyphName="S" x="0" y="0" flags="0x1204"/>
    </TTGlyph>
    <TTGlyph name="Scaron.sc" xMin="30" yMin="-11" xMax="331" yMax="687">
      <component glyphName="scaron.sc" x="0" y="0" flags="0x1004"/>
    </TTGlyph>
    <TTGlyph name="Scedilla" xMin="41" yMin="-275" xMax="422" yMax="664">
      <contour>
        <pt x="234" y="-15" on="1"/>
        <pt x="214" y="-16" on="1"/>
        <pt x="131" y="-16" on="0"/>
        <pt x="80" y="8" on="1"/>
        <pt x="63" y="16" on="0"/>
        <pt x="59" y="25" on="1"/>
        <pt x="41" y="63" on="0"/>
        <pt x="41" y="140" on="1"/>
        <pt x="41" y="148" on="0"/>
        <pt x="54" y="169" on="0"/>
        <pt x="71" y="169" on="0"/>
        <pt x="92" y="103" on="1"/>
        <pt x="106" y="60" on="0"/>
        <pt x="176" y="17" on="0"/>
        <pt x="278" y="17" on="0"/>
        <pt x="338" y="79" on="0"/>
        <pt x="338" y="132" on="1"/>
        <pt x="338" y="216" on="0"/>
        <pt x="186" y="318" on="1"/>
        <pt x="125" y="359" on="0"/>
        <pt x="59" y="442" on="0"/>
        <pt x="59" y="565" on="0"/>
        <pt x="173" y="664" on="0"/>
        <pt x="260" y="664" on="1"/>
        <pt x="310" y="664" on="0"/>
        <pt x="376" y="644" on="0"/>
        <pt x="379" y="644" on="1"/>
        <pt x="393" y="644" on="0"/>
        <pt x="399" y="606" on="1"/>
        <pt x="405" y="565" on="0"/>
        <pt x="405" y="512" on="0"/>
        <pt x="398" y="512" on="1"/>
        <pt x="369" y="512" on="0"/>
        <pt x="363" y="540" on="1"/>
        <pt x="356" y="583" on="0"/>
        <pt x="294" y="631" on="0"/>
        <pt x="203" y="631" on="0"/>
        <pt x="136" y="572" on="0"/>
        <pt x="136" y="523" on="1"/>
        <pt x="136" y="477" on="0"/>
        <pt x="186" y="436" on="1"/>
        <pt x="228" y="401" on="0"/>
        <pt x="269" y="375" on="1"/>
        <pt x="422" y="276" on="0"/>
        <pt x="422" y="160" on="1"/>
        <pt x="422" y="102" on="0"/>
        <pt x="345" y="4" on="0"/>
        <pt x="269" y="-11" on="1"/>
        <pt x="241" y="-54" on="1"/>
        <pt x="234" y="-63" on="0"/>
        <pt x="277" y="-81" on="0"/>
        <pt x="317" y="-127" on="0"/>
        <pt x="317" y="-159" on="1"/>
        <pt x="317" y="-206" on="0"/>
        <pt x="227" y="-275" on="0"/>
        <pt x="143" y="-275" on="0"/>
        <pt x="143" y="-243" on="1"/>
        <pt x="143" y="-209" on="0"/>
        <pt x="159" y="-209" on="1"/>
        <pt x="161" y="-209" on="0"/>
        <pt x="167" y="-212" on="1"/>
        <pt x="183" y="-222" on="0"/>
        <pt x="211" y="-222" on="1"/>
        <pt x="264" y="-222" on="0"/>
        <pt x="264" y="-183" on="1"/>
        <pt x="264" y="-162" on="0"/>
        <pt x="241" y="-129" on="0"/>
        <pt x="217" y="-129" on="1"/>
        <pt x="191" y="-132" on="1"/>
        <pt x="179" y="-132" on="0"/>
        <pt x="165" y="-120" on="0"/>
        <pt x="165" y="-108" on="0"/>
        <pt x="171" y="-100" on="1"/>
      </contour>
    </TTGlyph>
    <TTGlyph name="Scedilla.sc" xMin="30" yMin="-285" xMax="331" yMax="458">
      <component glyphName="scedilla.sc" x="0" y="0" flags="0x1004"/>
    </TTGlyph>
    <TTGlyph name="Scircumflex" xMin="41" yMin="-16" xMax="422" yMax="833">
      <component glyphName="uni0302.cap" x="89" y="20" flags="0x1004"/>
      <component glyphName="S" x="0" y="0" flags="0x1204"/>
    </TTGlyph>
    <TTGlyph name="Scircumflex.sc" xMin="30" yMin="-11" xMax="331" yMax="678">
      <component glyphName="scircumflex.sc" x="0" y="0" flags="0x1004"/>
    </TTGlyph>
    <TTGlyph name="Scommaaccent" xMin="41" yMin="-275" xMax="422" yMax="664">
      <component glyphName="uni0326" x="119" y="0" flags="0x1004"/>
      <component glyphName="S" x="0" y="0" flags="0x1204"/>
    </TTGlyph>
    <TTGlyph name="Sigma" xMin="25" yMin="-6" xMax="594" yMax="669">
      <contour>
        <pt x="158" y="0" on="1"/>
        <pt x="46" y="-6" on="1"/>
        <pt x="25" y="-6" on="0"/>
        <pt x="25" y="9" on="1"/>
        <pt x="25" y="17" on="0"/>
        <pt x="282" y="293" on="0"/>
        <pt x="297" y="310" on="1"/>
        <pt x="301" y="315" on="0"/>
        <pt x="296" y="321" on="1"/>
        <pt x="275" y="346" on="0"/>
        <pt x="204" y="425" on="1"/>
        <pt x="28" y="623" on="0"/>
        <pt x="28" y="640" on="0"/>
        <pt x="38" y="649" on="0"/>
        <pt x="44" y="649" on="1"/>
        <pt x="155" y="646" on="0"/>
        <pt x="382" y="646" on="0"/>
        <pt x="499" y="647" on="0"/>
        <pt x="510" y="655" on="1"/>
        <pt x="528" y="669" on="0"/>
        <pt x="535" y="669" on="1"/>
        <pt x="548" y="669" on="0"/>
        <pt x="550" y="652" on="1"/>
        <pt x="561" y="578" on="0"/>
        <pt x="569" y="527" on="0"/>
        <pt x="569" y="503" on="0"/>
        <pt x="559" y="503" on="1"/>
        <pt x="552" y="503" on="0"/>
        <pt x="545" y="511" on="0"/>
        <pt x="541" y="523" on="1"/>
        <pt x="537" y="535" on="1"/>
        <pt x="513" y="600" on="0"/>
        <pt x="455" y="604" on="1"/>
        <pt x="290" y="615" on="0"/>
        <pt x="180" y="615" on="1"/>
        <pt x="161" y="615" on="0"/>
        <pt x="161" y="608" on="1"/>
        <pt x="161" y="599" on="0"/>
        <pt x="350" y="395" on="0"/>
        <pt x="380" y="365" on="1"/>
        <pt x="389" y="356" on="0"/>
        <pt x="379" y="343" on="1"/>
        <pt x="158" y="94" on="1"/>
        <pt x="153" y="88" on="0"/>
        <pt x="158" y="78" on="0"/>
        <pt x="166" y="77" on="1"/>
        <pt x="220" y="70" on="0"/>
        <pt x="392" y="70" on="1"/>
        <pt x="446" y="70" on="1"/>
        <pt x="487" y="71" on="0"/>
        <pt x="535" y="94" on="0"/>
        <pt x="572" y="163" on="0"/>
        <pt x="585" y="163" on="1"/>
        <pt x="594" y="163" on="0"/>
        <pt x="594" y="154" on="1"/>
        <pt x="594" y="152" on="1"/>
        <pt x="593" y="150" on="1"/>
        <pt x="562" y="62" on="0"/>
        <pt x="552" y="12" on="1"/>
        <pt x="548" y="-5" on="0"/>
        <pt x="538" y="-5" on="1"/>
        <pt x="458" y="0" on="1"/>
        <pt x="394" y="1" on="0"/>
        <pt x="194" y="1" on="0"/>
      </contour>
    </TTGlyph>
    <TTGlyph name="T" xMin="27" yMin="-5" xMax="671" yMax="694">
      <contour>
        <pt x="671" y="669" on="1"/>
        <pt x="670" y="660" on="1"/>
        <pt x="654" y="594" on="0"/>
        <pt x="654" y="561" on="1"/>
        <pt x="654" y="549" on="1"/>
        <pt x="654" y="539" on="0"/>
        <pt x="645" y="517" on="0"/>
        <pt x="638" y="517" on="1"/>
        <pt x="627" y="517" on="0"/>
        <pt x="619" y="558" on="1"/>
        <pt x="611" y="604" on="0"/>
        <pt x="428" y="604" on="0"/>
        <pt x="392" y="600" on="1"/>
        <pt x="376" y="598" on="0"/>
        <pt x="376" y="557" on="1"/>
        <pt x="376" y="102" on="1"/>
        <pt x="376" y="38" on="0"/>
        <pt x="455" y="24" on="1"/>
        <pt x="488" y="18" on="0"/>
        <pt x="488" y="-5" on="0"/>
        <pt x="459" y="-5" on="1"/>
        <pt x="342" y="0" on="1"/>
        <pt x="214" y="-5" on="1"/>
        <pt x="185" y="-5" on="0"/>
        <pt x="185" y="18" on="0"/>
        <pt x="221" y="24" on="1"/>
        <pt x="296" y="38" on="0"/>
        <pt x="296" y="102" on="1"/>
        <pt x="296" y="557" on="1"/>
        <pt x="296" y="597" on="0"/>
        <pt x="278" y="600" on="1"/>
        <pt x="259" y="604" on="0"/>
        <pt x="204" y="604" on="1"/>
        <pt x="157" y="604" on="1"/>
        <pt x="131" y="604" on="0"/>
        <pt x="85" y="584" on="0"/>
        <pt x="69" y="553" on="0"/>
        <pt x="44" y="527" on="0"/>
        <pt x="34" y="527" on="1"/>
        <pt x="27" y="527" on="0"/>
        <pt x="27" y="550" on="0"/>
        <pt x="32" y="560" on="1"/>
        <pt x="54" y="606" on="0"/>
        <pt x="63" y="671" on="1"/>
        <pt x="66" y="694" on="0"/>
        <pt x="80" y="694" on="1"/>
        <pt x="88" y="694" on="0"/>
        <pt x="105" y="662" on="1"/>
        <pt x="116" y="642" on="0"/>
        <pt x="175" y="642" on="1"/>
        <pt x="556" y="642" on="1"/>
        <pt x="594" y="642" on="0"/>
        <pt x="614" y="656" on="1"/>
        <pt x="621" y="661" on="0"/>
        <pt x="642" y="681" on="0"/>
        <pt x="657" y="692" on="0"/>
        <pt x="671" y="692" on="0"/>
      </contour>
    </TTGlyph>
    <TTGlyph name="T.ordn" xMin="1" yMin="280" xMax="388" yMax="696">
      <component glyphName="T.subs" x="0" y="280" flags="0x1004"/>
    </TTGlyph>
    <TTGlyph name="T.sc" xMin="18" yMin="-3" xMax="470" yMax="482">
      <component glyphName="t.sc" x="0" y="0" flags="0x1004"/>
    </TTGlyph>
    <TTGlyph name="T.sinf" xMin="1" yMin="-144" xMax="388" yMax="272">
      <component glyphName="T.subs" x="0" y="-144" flags="0x1004"/>
    </TTGlyph>
    <TTGlyph name="T.subs" xMin="1" yMin="0" xMax="388" yMax="416">
      <contour>
        <pt x="388" y="402" on="1"/>
        <pt x="377" y="334" on="1"/>
        <pt x="376" y="324" on="0"/>
        <pt x="372" y="315" on="0"/>
        <pt x="363" y="316" on="0"/>
        <pt x="359" y="323" on="0"/>
        <pt x="356" y="334" on="0"/>
        <pt x="354" y="336" on="0"/>
        <pt x="351" y="342" on="0"/>
        <pt x="350" y="345" on="0"/>
        <pt x="346" y="350" on="0"/>
        <pt x="342" y="352" on="0"/>
        <pt x="335" y="355" on="0"/>
        <pt x="330" y="356" on="1"/>
        <pt x="322" y="358" on="0"/>
        <pt x="253" y="358" on="0"/>
        <pt x="229" y="356" on="1"/>
        <pt x="218" y="355" on="0"/>
        <pt x="218" y="330" on="1"/>
        <pt x="218" y="69" on="1"/>
        <pt x="218" y="30" on="0"/>
        <pt x="270" y="22" on="1"/>
        <pt x="291" y="19" on="0"/>
        <pt x="291" y="8" on="1"/>
        <pt x="291" y="0" on="0"/>
        <pt x="272" y="0" on="1"/>
        <pt x="101" y="0" on="1"/>
        <pt x="82" y="0" on="0"/>
        <pt x="82" y="8" on="1"/>
        <pt x="82" y="19" on="0"/>
        <pt x="104" y="22" on="1"/>
        <pt x="154" y="30" on="0"/>
        <pt x="154" y="69" on="1"/>
        <pt x="154" y="330" on="1"/>
        <pt x="154" y="354" on="0"/>
        <pt x="133" y="358" on="0"/>
        <pt x="119" y="358" on="1"/>
        <pt x="86" y="358" on="1"/>
        <pt x="44" y="358" on="0"/>
        <pt x="20" y="316" on="0"/>
        <pt x="6" y="316" on="1"/>
        <pt x="1" y="316" on="0"/>
        <pt x="1" y="328" on="0"/>
        <pt x="18" y="362" on="0"/>
        <pt x="25" y="403" on="1"/>
        <pt x="27" y="416" on="0"/>
        <pt x="45" y="416" on="0"/>
        <pt x="61" y="390" on="0"/>
        <pt x="98" y="390" on="1"/>
        <pt x="315" y="390" on="1"/>
        <pt x="351" y="390" on="0"/>
        <pt x="362" y="405" on="1"/>
        <pt x="367" y="412" on="0"/>
        <pt x="374" y="412" on="1"/>
        <pt x="388" y="412" on="0"/>
      </contour>
    </TTGlyph>
    <TTGlyph name="T.sups" xMin="1" yMin="440" xMax="388" yMax="856">
      <component glyphName="T.subs" x="0" y="440" flags="0x1004"/>
    </TTGlyph>
</ttFont>
